STARTFONT 2.1
COMMENT
COMMENT Converted from OpenType font "times.ttf" by "otf2bdf 3.0".
COMMENT
FONT -FreeType-Times New Roman-Medium-R-Normal--17-120-100-100-P-81-ISO10646-1
SIZE 12 100 100
FONTBOUNDINGBOX 28 23 -9 -5
STARTPROPERTIES 19
FOUNDRY "FreeType"
FAMILY_NAME "Times New Roman"
WEIGHT_NAME "Medium"
SLANT "R"
SETWIDTH_NAME "Normal"
ADD_STYLE_NAME ""
PIXEL_SIZE 17
POINT_SIZE 120
RESOLUTION_X 100
RESOLUTION_Y 100
SPACING "P"
AVERAGE_WIDTH 81
CHARSET_REGISTRY "ISO10646"
CHARSET_ENCODING "1"
FONT_ASCENT 15
FONT_DESCENT 3
COPYRIGHT "Typeface © The Monotype Corporation plc. Data © The Monotype Corporation plc/Type Solutions Inc. 1990-1992. All Rights Reserved"
_OTF_FONTFILE "times.ttf"
_OTF_PSNAME "TimesNewRomanPSMT"
ENDPROPERTIES
CHARS 1170
STARTCHAR 0020
ENCODING 32
SWIDTH 240 0
DWIDTH 4 0
BBX 0 0 0 0
BITMAP
ENDCHAR
STARTCHAR 0021
ENCODING 33
SWIDTH 300 0
DWIDTH 5 0
BBX 2 12 2 0
BITMAP
80
C0
80
80
80
80
80
80
00
00
80
80
ENDCHAR
STARTCHAR 0022
ENCODING 34
SWIDTH 420 0
DWIDTH 7 0
BBX 4 5 1 7
BITMAP
90
90
90
90
90
ENDCHAR
STARTCHAR 0023
ENCODING 35
SWIDTH 480 0
DWIDTH 8 0
BBX 8 12 0 0
BITMAP
10
12
12
22
FF
24
24
FF
44
44
48
48
ENDCHAR
STARTCHAR 0024
ENCODING 36
SWIDTH 480 0
DWIDTH 8 0
BBX 6 14 1 -2
BITMAP
78
D4
D4
D0
70
38
1C
1C
14
94
94
F8
10
10
ENDCHAR
STARTCHAR 0025
ENCODING 37
SWIDTH 900 0
DWIDTH 15 0
BBX 13 12 1 0
BITMAP
7020
D840
D880
D880
D900
3200
0220
04D8
08D8
08D8
10D8
2050
ENDCHAR
STARTCHAR 0026
ENCODING 38
SWIDTH 780 0
DWIDTH 13 0
BBX 12 12 1 0
BITMAP
0E00
1300
3300
1200
1CE0
38C0
4C80
4C80
C700
C310
C7A0
78E0
ENDCHAR
STARTCHAR 0027
ENCODING 39
SWIDTH 180 0
DWIDTH 3 0
BBX 1 5 1 7
BITMAP
80
80
80
80
80
ENDCHAR
STARTCHAR 0028
ENCODING 40
SWIDTH 360 0
DWIDTH 6 0
BBX 4 15 1 -3
BITMAP
10
20
40
40
40
C0
C0
C0
C0
C0
C0
40
40
20
20
ENDCHAR
STARTCHAR 0029
ENCODING 41
SWIDTH 300 0
DWIDTH 5 0
BBX 5 16 0 -3
BITMAP
80
40
20
20
10
10
10
18
10
10
10
10
20
20
40
80
ENDCHAR
STARTCHAR 002A
ENCODING 42
SWIDTH 540 0
DWIDTH 9 0
BBX 5 7 2 4
BITMAP
20
20
A8
50
78
A8
20
ENDCHAR
STARTCHAR 002B
ENCODING 43
SWIDTH 540 0
DWIDTH 9 0
BBX 9 9 0 2
BITMAP
0800
0800
0800
0800
FF80
0800
0800
0800
0800
ENDCHAR
STARTCHAR 002C
ENCODING 44
SWIDTH 300 0
DWIDTH 5 0
BBX 3 5 1 -3
BITMAP
E0
E0
20
60
80
ENDCHAR
STARTCHAR 002D
ENCODING 45
SWIDTH 360 0
DWIDTH 6 0
BBX 4 1 1 4
BITMAP
F0
ENDCHAR
STARTCHAR 002E
ENCODING 46
SWIDTH 240 0
DWIDTH 4 0
BBX 1 2 1 0
BITMAP
80
80
ENDCHAR
STARTCHAR 002F
ENCODING 47
SWIDTH 300 0
DWIDTH 5 0
BBX 5 12 0 0
BITMAP
08
10
10
10
20
20
20
40
40
40
80
80
ENDCHAR
STARTCHAR 0030
ENCODING 48
SWIDTH 540 0
DWIDTH 9 0
BBX 7 12 1 0
BITMAP
38
44
44
C6
C6
C6
C6
C6
C6
44
44
38
ENDCHAR
STARTCHAR 0031
ENCODING 49
SWIDTH 540 0
DWIDTH 9 0
BBX 4 12 2 0
BITMAP
30
F0
30
30
30
30
30
30
30
30
30
30
ENDCHAR
STARTCHAR 0032
ENCODING 50
SWIDTH 540 0
DWIDTH 9 0
BBX 7 12 1 0
BITMAP
38
4C
84
06
04
04
08
10
10
20
42
FE
ENDCHAR
STARTCHAR 0033
ENCODING 51
SWIDTH 480 0
DWIDTH 8 0
BBX 6 12 1 0
BITMAP
78
98
0C
08
10
38
1C
0C
0C
0C
08
F0
ENDCHAR
STARTCHAR 0034
ENCODING 52
SWIDTH 600 0
DWIDTH 10 0
BBX 8 12 1 0
BITMAP
04
0C
1C
1C
2C
4C
4C
8C
FF
0C
0C
0C
ENDCHAR
STARTCHAR 0035
ENCODING 53
SWIDTH 540 0
DWIDTH 9 0
BBX 7 12 1 0
BITMAP
3C
40
40
60
F8
1C
0C
06
04
04
88
F0
ENDCHAR
STARTCHAR 0036
ENCODING 54
SWIDTH 540 0
DWIDTH 9 0
BBX 7 12 1 0
BITMAP
0C
10
20
40
58
E4
C6
C6
C6
C6
44
38
ENDCHAR
STARTCHAR 0037
ENCODING 55
SWIDTH 480 0
DWIDTH 8 0
BBX 7 12 1 0
BITMAP
7E
C2
84
04
04
08
08
08
10
10
10
10
ENDCHAR
STARTCHAR 0038
ENCODING 56
SWIDTH 480 0
DWIDTH 8 0
BBX 6 12 1 0
BITMAP
78
CC
CC
CC
68
30
58
4C
CC
CC
CC
78
ENDCHAR
STARTCHAR 0039
ENCODING 57
SWIDTH 540 0
DWIDTH 9 0
BBX 7 12 1 0
BITMAP
38
44
C6
C6
C6
C6
46
7E
04
08
10
60
ENDCHAR
STARTCHAR 003A
ENCODING 58
SWIDTH 240 0
DWIDTH 4 0
BBX 1 8 1 0
BITMAP
80
80
00
00
00
00
80
80
ENDCHAR
STARTCHAR 003B
ENCODING 59
SWIDTH 240 0
DWIDTH 4 0
BBX 3 10 0 -3
BITMAP
40
40
00
00
00
00
C0
E0
60
40
ENDCHAR
STARTCHAR 003C
ENCODING 60
SWIDTH 660 0
DWIDTH 11 0
BBX 9 8 1 1
BITMAP
0080
0300
1C00
6000
C000
3000
0C00
0380
ENDCHAR
STARTCHAR 003D
ENCODING 61
SWIDTH 540 0
DWIDTH 9 0
BBX 9 4 0 4
BITMAP
FF80
0000
0000
FF80
ENDCHAR
STARTCHAR 003E
ENCODING 62
SWIDTH 660 0
DWIDTH 11 0
BBX 9 8 1 1
BITMAP
8000
6000
1C00
0300
0180
0600
1800
E000
ENDCHAR
STARTCHAR 003F
ENCODING 63
SWIDTH 480 0
DWIDTH 8 0
BBX 6 12 1 0
BITMAP
78
CC
CC
4C
08
18
10
20
20
00
20
20
ENDCHAR
STARTCHAR 0040
ENCODING 64
SWIDTH 960 0
DWIDTH 16 0
BBX 14 16 1 -4
BITMAP
07E0
1810
3008
600C
43CC
C44C
CC4C
C8CC
D888
D988
D990
5EE0
4004
2008
1010
0FE0
ENDCHAR
STARTCHAR 0041
ENCODING 65
SWIDTH 720 0
DWIDTH 12 0
BBX 11 12 0 0
BITMAP
0400
0600
0600
0A00
0B00
1100
1100
1F80
2080
40C0
40C0
E0E0
ENDCHAR
STARTCHAR 0042
ENCODING 66
SWIDTH 660 0
DWIDTH 11 0
BBX 9 12 1 0
BITMAP
FE00
6300
6100
6180
6100
6300
7E00
6100
6180
6180
6180
FE00
ENDCHAR
STARTCHAR 0043
ENCODING 67
SWIDTH 660 0
DWIDTH 11 0
BBX 10 12 1 0
BITMAP
1F40
20C0
4040
C040
C000
C000
C000
C000
C000
4040
2080
1F00
ENDCHAR
STARTCHAR 0044
ENCODING 68
SWIDTH 720 0
DWIDTH 12 0
BBX 11 12 1 0
BITMAP
FE00
6180
60C0
6040
6040
6060
6060
6040
6040
60C0
6180
FE00
ENDCHAR
STARTCHAR 0045
ENCODING 69
SWIDTH 600 0
DWIDTH 10 0
BBX 9 12 1 0
BITMAP
FF00
6100
6000
6000
6600
7E00
6600
6200
6000
6080
6100
FF00
ENDCHAR
STARTCHAR 0046
ENCODING 70
SWIDTH 540 0
DWIDTH 9 0
BBX 8 12 1 0
BITMAP
FF
61
61
60
62
7E
62
62
60
60
60
E0
ENDCHAR
STARTCHAR 0047
ENCODING 71
SWIDTH 720 0
DWIDTH 12 0
BBX 11 12 1 0
BITMAP
1F40
20C0
4040
4000
C000
C1E0
C0C0
C0C0
C0C0
60C0
20C0
1F80
ENDCHAR
STARTCHAR 0048
ENCODING 72
SWIDTH 720 0
DWIDTH 12 0
BBX 10 12 1 0
BITMAP
E1C0
6180
6180
6180
6180
6180
7F80
6180
6180
6180
6180
E1C0
ENDCHAR
STARTCHAR 0049
ENCODING 73
SWIDTH 360 0
DWIDTH 6 0
BBX 3 12 1 0
BITMAP
E0
60
60
60
60
60
60
60
60
60
60
E0
ENDCHAR
STARTCHAR 004A
ENCODING 74
SWIDTH 420 0
DWIDTH 7 0
BBX 5 12 1 0
BITMAP
38
18
18
18
18
18
18
18
10
10
D0
E0
ENDCHAR
STARTCHAR 004B
ENCODING 75
SWIDTH 720 0
DWIDTH 12 0
BBX 11 12 1 0
BITMAP
E180
6100
6200
6400
6800
7000
7800
6C00
6600
6300
6180
E1E0
ENDCHAR
STARTCHAR 004C
ENCODING 76
SWIDTH 600 0
DWIDTH 10 0
BBX 9 12 1 0
BITMAP
E000
6000
6000
6000
6000
6000
6000
6000
6000
6080
6100
FF00
ENDCHAR
STARTCHAR 004D
ENCODING 77
SWIDTH 900 0
DWIDTH 15 0
BBX 13 12 1 0
BITMAP
E038
7030
7030
7870
6870
68B0
6CB0
6530
6730
6730
6230
E238
ENDCHAR
STARTCHAR 004E
ENCODING 78
SWIDTH 720 0
DWIDTH 12 0
BBX 10 12 1 0
BITMAP
E1C0
6180
7180
7180
6980
6D80
6580
6380
6380
6180
6180
E080
ENDCHAR
STARTCHAR 004F
ENCODING 79
SWIDTH 720 0
DWIDTH 12 0
BBX 11 12 1 0
BITMAP
1E00
2180
40C0
C040
C040
C040
C060
C040
C040
40C0
2080
1F00
ENDCHAR
STARTCHAR 0050
ENCODING 80
SWIDTH 540 0
DWIDTH 9 0
BBX 8 12 1 0
BITMAP
FC
66
62
63
62
66
7C
60
60
60
60
E0
ENDCHAR
STARTCHAR 0051
ENCODING 81
SWIDTH 720 0
DWIDTH 12 0
BBX 11 16 1 -4
BITMAP
1E00
2180
4080
4040
C040
C040
C060
C040
C040
4040
4080
2100
1E00
0600
0300
0080
ENDCHAR
STARTCHAR 0052
ENCODING 82
SWIDTH 660 0
DWIDTH 11 0
BBX 10 12 1 0
BITMAP
FC00
6200
6300
6300
6300
6200
7C00
6C00
6600
6300
6300
E1C0
ENDCHAR
STARTCHAR 0053
ENCODING 83
SWIDTH 540 0
DWIDTH 9 0
BBX 7 12 1 0
BITMAP
7E
C6
C2
C2
E0
78
1C
06
02
82
82
FC
ENDCHAR
STARTCHAR 0054
ENCODING 84
SWIDTH 660 0
DWIDTH 11 0
BBX 10 12 1 0
BITMAP
FFC0
8C40
0C40
0C00
0C00
0C00
0C00
0C00
0C00
0C00
0C00
1C00
ENDCHAR
STARTCHAR 0055
ENCODING 85
SWIDTH 780 0
DWIDTH 13 0
BBX 11 12 1 0
BITMAP
E0E0
60C0
60C0
60C0
60C0
60C0
60C0
60C0
60C0
60C0
2180
1F00
ENDCHAR
STARTCHAR 0056
ENCODING 86
SWIDTH 660 0
DWIDTH 11 0
BBX 11 12 0 0
BITMAP
F0E0
6040
2080
3080
3080
1900
1900
0900
0E00
0600
0400
0400
ENDCHAR
STARTCHAR 0057
ENCODING 87
SWIDTH 960 0
DWIDTH 16 0
BBX 14 12 1 0
BITMAP
C70C
C308
4308
6308
6310
2390
3490
34A0
14E0
1860
1840
0040
ENDCHAR
STARTCHAR 0058
ENCODING 88
SWIDTH 720 0
DWIDTH 12 0
BBX 11 12 0 0
BITMAP
70C0
3080
1880
0900
0E00
0600
0600
0B00
1100
1180
20C0
E0E0
ENDCHAR
STARTCHAR 0059
ENCODING 89
SWIDTH 720 0
DWIDTH 12 0
BBX 10 12 1 0
BITMAP
E0C0
6080
6100
3100
3200
1C00
0C00
0C00
0C00
0C00
0C00
1C00
ENDCHAR
STARTCHAR 005A
ENCODING 90
SWIDTH 600 0
DWIDTH 10 0
BBX 9 12 0 0
BITMAP
7F80
4100
0300
0600
0400
0C00
1800
1800
3000
6000
6080
FF80
ENDCHAR
STARTCHAR 005B
ENCODING 91
SWIDTH 300 0
DWIDTH 5 0
BBX 4 16 1 -4
BITMAP
F0
C0
C0
C0
C0
C0
C0
C0
C0
C0
C0
C0
C0
C0
C0
F0
ENDCHAR
STARTCHAR 005C
ENCODING 92
SWIDTH 300 0
DWIDTH 5 0
BBX 5 12 0 0
BITMAP
80
80
40
40
40
20
20
20
10
10
10
08
ENDCHAR
STARTCHAR 005D
ENCODING 93
SWIDTH 360 0
DWIDTH 6 0
BBX 4 16 1 -4
BITMAP
F0
30
30
30
30
30
30
30
30
30
30
30
30
30
30
F0
ENDCHAR
STARTCHAR 005E
ENCODING 94
SWIDTH 480 0
DWIDTH 8 0
BBX 6 5 1 7
BITMAP
30
48
48
84
04
ENDCHAR
STARTCHAR 005F
ENCODING 95
SWIDTH 480 0
DWIDTH 8 0
BBX 8 1 0 -4
BITMAP
FF
ENDCHAR
STARTCHAR 0060
ENCODING 96
SWIDTH 360 0
DWIDTH 6 0
BBX 3 3 1 9
BITMAP
C0
40
20
ENDCHAR
STARTCHAR 0061
ENCODING 97
SWIDTH 480 0
DWIDTH 8 0
BBX 6 8 1 0
BITMAP
78
C8
8C
3C
4C
CC
CC
7C
ENDCHAR
STARTCHAR 0062
ENCODING 98
SWIDTH 480 0
DWIDTH 8 0
BBX 7 12 1 0
BITMAP
C0
C0
C0
C0
F8
CC
C4
C6
C4
C4
CC
70
ENDCHAR
STARTCHAR 0063
ENCODING 99
SWIDTH 480 0
DWIDTH 8 0
BBX 6 8 1 0
BITMAP
38
4C
C0
C0
C0
C4
64
38
ENDCHAR
STARTCHAR 0064
ENCODING 100
SWIDTH 540 0
DWIDTH 9 0
BBX 7 12 1 0
BITMAP
06
06
06
06
3E
46
C6
C6
C6
C6
46
7E
ENDCHAR
STARTCHAR 0065
ENCODING 101
SWIDTH 480 0
DWIDTH 8 0
BBX 6 8 1 0
BITMAP
38
44
FC
C0
C0
C0
7C
38
ENDCHAR
STARTCHAR 0066
ENCODING 102
SWIDTH 300 0
DWIDTH 5 0
BBX 6 12 1 0
BITMAP
38
64
60
60
F0
60
60
60
60
60
60
60
ENDCHAR
STARTCHAR 0067
ENCODING 103
SWIDTH 540 0
DWIDTH 9 0
BBX 7 12 1 -4
BITMAP
7E
CC
CC
CC
C8
70
80
FE
82
82
86
78
ENDCHAR
STARTCHAR 0068
ENCODING 104
SWIDTH 480 0
DWIDTH 8 0
BBX 6 12 1 0
BITMAP
C0
C0
C0
C0
D8
EC
CC
CC
CC
CC
CC
CC
ENDCHAR
STARTCHAR 0069
ENCODING 105
SWIDTH 300 0
DWIDTH 5 0
BBX 2 12 2 0
BITMAP
80
80
00
00
C0
C0
C0
C0
C0
C0
C0
C0
ENDCHAR
STARTCHAR 006A
ENCODING 106
SWIDTH 300 0
DWIDTH 5 0
BBX 5 16 -1 -4
BITMAP
10
10
00
00
18
18
18
18
18
18
18
18
18
10
90
E0
ENDCHAR
STARTCHAR 006B
ENCODING 107
SWIDTH 480 0
DWIDTH 8 0
BBX 6 12 1 0
BITMAP
C0
C0
C0
C0
CC
D0
E0
E0
F0
D8
C8
CC
ENDCHAR
STARTCHAR 006C
ENCODING 108
SWIDTH 300 0
DWIDTH 5 0
BBX 2 12 2 0
BITMAP
C0
C0
C0
C0
C0
C0
C0
C0
C0
C0
C0
C0
ENDCHAR
STARTCHAR 006D
ENCODING 109
SWIDTH 780 0
DWIDTH 13 0
BBX 11 8 1 0
BITMAP
D9C0
EE40
CC40
CC40
CC40
CC40
CC40
CC60
ENDCHAR
STARTCHAR 006E
ENCODING 110
SWIDTH 480 0
DWIDTH 8 0
BBX 7 8 0 0
BITMAP
6C
76
66
66
66
66
66
E6
ENDCHAR
STARTCHAR 006F
ENCODING 111
SWIDTH 540 0
DWIDTH 9 0
BBX 7 8 1 0
BITMAP
38
44
C6
C6
C6
C6
44
38
ENDCHAR
STARTCHAR 0070
ENCODING 112
SWIDTH 480 0
DWIDTH 8 0
BBX 7 12 1 -4
BITMAP
D8
EC
C4
C6
C4
C4
C4
F8
C0
C0
C0
C0
ENDCHAR
STARTCHAR 0071
ENCODING 113
SWIDTH 540 0
DWIDTH 9 0
BBX 7 12 1 -4
BITMAP
3E
46
C6
C6
C6
C6
EE
76
06
06
06
06
ENDCHAR
STARTCHAR 0072
ENCODING 114
SWIDTH 360 0
DWIDTH 6 0
BBX 4 8 1 0
BITMAP
F0
D0
C0
C0
C0
C0
C0
C0
ENDCHAR
STARTCHAR 0073
ENCODING 115
SWIDTH 420 0
DWIDTH 7 0
BBX 5 8 1 0
BITMAP
70
D0
C0
E0
38
18
98
F0
ENDCHAR
STARTCHAR 0074
ENCODING 116
SWIDTH 240 0
DWIDTH 4 0
BBX 4 11 0 0
BITMAP
20
20
60
F0
60
60
60
60
60
60
70
ENDCHAR
STARTCHAR 0075
ENCODING 117
SWIDTH 480 0
DWIDTH 8 0
BBX 6 8 1 0
BITMAP
CC
CC
CC
CC
CC
CC
CC
7C
ENDCHAR
STARTCHAR 0076
ENCODING 118
SWIDTH 480 0
DWIDTH 8 0
BBX 7 8 1 0
BITMAP
C6
C4
44
68
28
30
30
10
ENDCHAR
STARTCHAR 0077
ENCODING 119
SWIDTH 720 0
DWIDTH 12 0
BBX 12 8 0 0
BITMAP
E630
6220
2240
2740
3540
1980
1980
1080
ENDCHAR
STARTCHAR 0078
ENCODING 120
SWIDTH 480 0
DWIDTH 8 0
BBX 6 8 1 0
BITMAP
CC
48
70
30
30
58
8C
8C
ENDCHAR
STARTCHAR 0079
ENCODING 121
SWIDTH 540 0
DWIDTH 9 0
BBX 7 12 1 -4
BITMAP
C2
42
64
24
28
38
18
10
10
10
E0
C0
ENDCHAR
STARTCHAR 007A
ENCODING 122
SWIDTH 540 0
DWIDTH 9 0
BBX 7 8 1 0
BITMAP
7E
04
08
18
30
20
60
FE
ENDCHAR
STARTCHAR 007B
ENCODING 123
SWIDTH 480 0
DWIDTH 8 0
BBX 4 16 3 -3
BITMAP
20
60
60
60
60
40
40
80
80
40
40
60
60
60
20
10
ENDCHAR
STARTCHAR 007C
ENCODING 124
SWIDTH 180 0
DWIDTH 3 0
BBX 1 16 1 -4
BITMAP
80
80
80
80
80
80
80
80
80
80
80
80
80
80
80
80
ENDCHAR
STARTCHAR 007D
ENCODING 125
SWIDTH 480 0
DWIDTH 8 0
BBX 4 15 2 -3
BITMAP
80
40
40
60
60
60
20
10
20
60
60
60
60
40
40
ENDCHAR
STARTCHAR 007E
ENCODING 126
SWIDTH 600 0
DWIDTH 10 0
BBX 8 3 1 3
BITMAP
60
99
07
ENDCHAR
STARTCHAR 00A0
ENCODING 160
SWIDTH 240 0
DWIDTH 4 0
BBX 0 0 0 0
BITMAP
ENDCHAR
STARTCHAR 00A1
ENCODING 161
SWIDTH 300 0
DWIDTH 5 0
BBX 1 12 2 -4
BITMAP
80
80
00
00
80
80
80
80
80
80
80
80
ENDCHAR
STARTCHAR 00A2
ENCODING 162
SWIDTH 540 0
DWIDTH 9 0
BBX 6 15 1 -3
BITMAP
04
04
08
08
3C
54
D0
D0
E0
E4
64
38
40
80
80
ENDCHAR
STARTCHAR 00A3
ENCODING 163
SWIDTH 540 0
DWIDTH 9 0
BBX 8 12 1 0
BITMAP
1C
36
30
30
30
78
30
20
20
61
FE
CE
ENDCHAR
STARTCHAR 00A4
ENCODING 164
SWIDTH 540 0
DWIDTH 9 0
BBX 7 8 1 2
BITMAP
92
6C
44
C6
C6
44
48
B6
ENDCHAR
STARTCHAR 00A5
ENCODING 165
SWIDTH 480 0
DWIDTH 8 0
BBX 8 12 0 0
BITMAP
C2
42
64
24
24
38
FF
18
FF
18
18
38
ENDCHAR
STARTCHAR 00A6
ENCODING 166
SWIDTH 180 0
DWIDTH 3 0
BBX 1 16 1 -4
BITMAP
80
80
80
80
80
80
00
00
00
00
80
80
80
80
80
80
ENDCHAR
STARTCHAR 00A7
ENCODING 167
SWIDTH 480 0
DWIDTH 8 0
BBX 6 16 1 -4
BITMAP
38
48
C8
60
30
58
DC
CC
CC
CC
68
30
18
4C
48
50
ENDCHAR
STARTCHAR 00A8
ENCODING 168
SWIDTH 360 0
DWIDTH 6 0
BBX 4 2 1 10
BITMAP
90
90
ENDCHAR
STARTCHAR 00A9
ENCODING 169
SWIDTH 840 0
DWIDTH 14 0
BBX 12 12 1 0
BITMAP
0F00
30C0
6F60
5020
F030
F030
F030
F030
5020
6F60
2040
1F80
ENDCHAR
STARTCHAR 00AA
ENCODING 170
SWIDTH 300 0
DWIDTH 5 0
BBX 4 5 0 7
BITMAP
F0
B0
70
F0
D0
ENDCHAR
STARTCHAR 00AB
ENCODING 171
SWIDTH 480 0
DWIDTH 8 0
BBX 7 8 1 0
BITMAP
22
44
4C
88
88
4C
44
22
ENDCHAR
STARTCHAR 00AC
ENCODING 172
SWIDTH 540 0
DWIDTH 9 0
BBX 9 4 0 4
BITMAP
FF80
0080
0080
0080
ENDCHAR
STARTCHAR 00AD
ENCODING 173
SWIDTH 360 0
DWIDTH 6 0
BBX 4 1 1 4
BITMAP
F0
ENDCHAR
STARTCHAR 00AE
ENCODING 174
SWIDTH 840 0
DWIDTH 14 0
BBX 12 12 1 0
BITMAP
0F00
30C0
7C60
5B20
DB30
DC30
DA30
DA30
5920
79E0
2040
1F80
ENDCHAR
STARTCHAR 00AF
ENCODING 175
SWIDTH 480 0
DWIDTH 8 0
BBX 8 1 0 12
BITMAP
FF
ENDCHAR
STARTCHAR 00B0
ENCODING 176
SWIDTH 420 0
DWIDTH 7 0
BBX 6 5 1 7
BITMAP
70
C8
CC
C8
70
ENDCHAR
STARTCHAR 00B1
ENCODING 177
SWIDTH 540 0
DWIDTH 9 0
BBX 9 9 0 2
BITMAP
0800
0800
0800
0800
FF80
0800
0800
0800
FF80
ENDCHAR
STARTCHAR 00B2
ENCODING 178
SWIDTH 360 0
DWIDTH 6 0
BBX 5 6 1 6
BITMAP
70
98
10
20
40
F8
ENDCHAR
STARTCHAR 00B3
ENCODING 179
SWIDTH 300 0
DWIDTH 5 0
BBX 5 6 0 6
BITMAP
70
18
10
30
10
E0
ENDCHAR
STARTCHAR 00B4
ENCODING 180
SWIDTH 360 0
DWIDTH 6 0
BBX 2 3 2 9
BITMAP
40
80
80
ENDCHAR
STARTCHAR 00B5
ENCODING 181
SWIDTH 600 0
DWIDTH 10 0
BBX 8 12 1 -4
BITMAP
C6
C6
C6
C6
C6
C6
CE
F7
80
80
80
80
ENDCHAR
STARTCHAR 00B6
ENCODING 182
SWIDTH 480 0
DWIDTH 8 0
BBX 7 16 0 -4
BITMAP
3E
7A
FA
FA
FA
7A
1A
0A
0A
0A
0A
0A
0A
0A
0A
0A
ENDCHAR
STARTCHAR 00B7
ENCODING 183
SWIDTH 240 0
DWIDTH 4 0
BBX 1 2 1 5
BITMAP
80
80
ENDCHAR
STARTCHAR 00B8
ENCODING 184
SWIDTH 360 0
DWIDTH 6 0
BBX 3 4 2 -4
BITMAP
40
C0
60
C0
ENDCHAR
STARTCHAR 00B9
ENCODING 185
SWIDTH 300 0
DWIDTH 5 0
BBX 3 6 1 6
BITMAP
60
60
60
60
60
E0
ENDCHAR
STARTCHAR 00BA
ENCODING 186
SWIDTH 420 0
DWIDTH 7 0
BBX 5 5 1 7
BITMAP
70
D8
D8
D8
60
ENDCHAR
STARTCHAR 00BB
ENCODING 187
SWIDTH 480 0
DWIDTH 8 0
BBX 6 8 1 0
BITMAP
10
88
4C
64
64
4C
88
10
ENDCHAR
STARTCHAR 00BC
ENCODING 188
SWIDTH 780 0
DWIDTH 13 0
BBX 11 12 1 0
BITMAP
6080
6100
6100
6200
6200
E400
0860
08E0
1160
1160
21E0
6060
ENDCHAR
STARTCHAR 00BD
ENCODING 189
SWIDTH 780 0
DWIDTH 13 0
BBX 11 12 1 0
BITMAP
6080
6100
6100
6200
6400
E400
08C0
0860
1060
2040
2080
41E0
ENDCHAR
STARTCHAR 00BE
ENCODING 190
SWIDTH 780 0
DWIDTH 13 0
BBX 12 12 0 0
BITMAP
7040
1080
3080
1100
1200
E200
0430
0470
08B0
10B0
10F0
2030
ENDCHAR
STARTCHAR 00BF
ENCODING 191
SWIDTH 480 0
DWIDTH 8 0
BBX 6 12 1 -4
BITMAP
20
20
00
10
10
30
60
40
C8
CC
CC
78
ENDCHAR
STARTCHAR 00C0
ENCODING 192
SWIDTH 720 0
DWIDTH 12 0
BBX 11 16 0 0
BITMAP
0C00
0400
0400
0200
0400
0400
0600
0A00
0B00
1100
1100
1F80
2080
40C0
40C0
E0E0
ENDCHAR
STARTCHAR 00C1
ENCODING 193
SWIDTH 720 0
DWIDTH 12 0
BBX 11 16 0 0
BITMAP
0300
0600
0400
0000
0400
0400
0600
0A00
0B00
1100
1100
1F80
2080
40C0
40C0
E0E0
ENDCHAR
STARTCHAR 00C2
ENCODING 194
SWIDTH 720 0
DWIDTH 12 0
BBX 11 15 0 0
BITMAP
0600
0B00
1000
0400
0400
0600
0A00
0B00
1100
1100
1F80
2080
40C0
40C0
E0E0
ENDCHAR
STARTCHAR 00C3
ENCODING 195
SWIDTH 720 0
DWIDTH 12 0
BBX 11 15 0 0
BITMAP
0C00
0700
0000
0400
0400
0600
0A00
1300
1100
1100
3F80
2080
40C0
40C0
E0E0
ENDCHAR
STARTCHAR 00C4
ENCODING 196
SWIDTH 720 0
DWIDTH 12 0
BBX 11 15 1 0
BITMAP
1200
1200
0000
0400
0C00
0C00
1600
1200
1300
2300
3F00
4180
4080
40C0
C0E0
ENDCHAR
STARTCHAR 00C5
ENCODING 197
SWIDTH 720 0
DWIDTH 12 0
BBX 11 15 0 0
BITMAP
0700
0D80
0D80
0200
0200
0600
0B00
0900
1080
1080
1F80
2040
4040
4040
E060
ENDCHAR
STARTCHAR 00C6
ENCODING 198
SWIDTH 900 0
DWIDTH 15 0
BBX 14 12 0 0
BITMAP
07FC
0384
0584
0580
0988
09F8
1188
1F88
2180
2180
4184
C3FC
ENDCHAR
STARTCHAR 00C7
ENCODING 199
SWIDTH 660 0
DWIDTH 11 0
BBX 10 16 1 -4
BITMAP
1F40
20C0
4040
4040
C000
C000
C000
C000
C000
4040
2080
1F00
0000
0C00
0400
0C00
ENDCHAR
STARTCHAR 00C8
ENCODING 200
SWIDTH 600 0
DWIDTH 10 0
BBX 9 16 1 0
BITMAP
3000
1000
1000
0000
FF00
6100
6000
6000
6600
7E00
6600
6200
6000
6080
6100
FF00
ENDCHAR
STARTCHAR 00C9
ENCODING 201
SWIDTH 600 0
DWIDTH 10 0
BBX 9 16 1 0
BITMAP
0800
1000
1000
0000
FF00
6100
6000
6000
6600
7E00
6600
6200
6000
6080
6100
FF00
ENDCHAR
STARTCHAR 00CA
ENCODING 202
SWIDTH 600 0
DWIDTH 10 0
BBX 9 15 1 0
BITMAP
1000
2800
0000
FF00
6100
6000
6000
6600
7E00
6600
6200
6000
6080
6100
FF00
ENDCHAR
STARTCHAR 00CB
ENCODING 203
SWIDTH 600 0
DWIDTH 10 0
BBX 9 15 1 0
BITMAP
2400
2400
0000
FF00
6100
6000
6000
6200
7E00
6200
6200
6000
6080
6100
FF00
ENDCHAR
STARTCHAR 00CC
ENCODING 204
SWIDTH 360 0
DWIDTH 6 0
BBX 3 16 1 0
BITMAP
C0
40
40
20
E0
60
60
60
60
60
60
60
60
60
60
E0
ENDCHAR
STARTCHAR 00CD
ENCODING 205
SWIDTH 360 0
DWIDTH 6 0
BBX 4 16 1 0
BITMAP
30
60
40
00
E0
60
60
60
60
60
60
60
60
60
60
E0
ENDCHAR
STARTCHAR 00CE
ENCODING 206
SWIDTH 360 0
DWIDTH 6 0
BBX 4 15 0 0
BITMAP
30
50
80
70
30
30
30
30
30
30
30
30
30
30
70
ENDCHAR
STARTCHAR 00CF
ENCODING 207
SWIDTH 360 0
DWIDTH 6 0
BBX 4 15 1 0
BITMAP
90
90
00
70
60
60
60
60
60
60
60
60
60
60
70
ENDCHAR
STARTCHAR 00D0
ENCODING 208
SWIDTH 720 0
DWIDTH 12 0
BBX 12 12 0 0
BITMAP
7F00
30C0
3060
3020
3020
FE30
3030
3020
3020
3060
30C0
7F00
ENDCHAR
STARTCHAR 00D1
ENCODING 209
SWIDTH 720 0
DWIDTH 12 0
BBX 10 15 1 0
BITMAP
1800
0600
0000
E1C0
6080
7080
7880
6880
6C80
6480
6280
6280
6180
6180
E080
ENDCHAR
STARTCHAR 00D2
ENCODING 210
SWIDTH 720 0
DWIDTH 12 0
BBX 11 16 1 0
BITMAP
1800
0C00
0400
0000
1E00
2180
40C0
C040
C040
C040
C060
C040
C040
40C0
2080
1F00
ENDCHAR
STARTCHAR 00D3
ENCODING 211
SWIDTH 720 0
DWIDTH 12 0
BBX 11 16 1 0
BITMAP
0600
0400
0800
0800
1E00
2180
40C0
C040
C040
C040
C060
C040
C040
40C0
2080
1F00
ENDCHAR
STARTCHAR 00D4
ENCODING 212
SWIDTH 720 0
DWIDTH 12 0
BBX 11 16 1 0
BITMAP
0C00
0E00
1200
0100
1E00
2180
40C0
C040
C040
C040
C060
C040
C040
40C0
2080
1F00
ENDCHAR
STARTCHAR 00D5
ENCODING 213
SWIDTH 720 0
DWIDTH 12 0
BBX 11 15 1 0
BITMAP
1800
0700
0000
1E00
2180
40C0
C040
C040
C040
C060
C040
C040
40C0
2080
1F00
ENDCHAR
STARTCHAR 00D6
ENCODING 214
SWIDTH 720 0
DWIDTH 12 0
BBX 11 15 1 0
BITMAP
1200
1200
0000
1E00
2180
40C0
C040
C040
C040
C060
C040
C040
40C0
2080
1F00
ENDCHAR
STARTCHAR 00D7
ENCODING 215
SWIDTH 540 0
DWIDTH 9 0
BBX 6 7 2 3
BITMAP
84
48
50
20
50
88
04
ENDCHAR
STARTCHAR 00D8
ENCODING 216
SWIDTH 720 0
DWIDTH 12 0
BBX 11 12 1 0
BITMAP
1F40
2080
40C0
C140
C240
C440
C860
C840
D040
60C0
6080
1F00
ENDCHAR
STARTCHAR 00D9
ENCODING 217
SWIDTH 780 0
DWIDTH 13 0
BBX 11 16 1 0
BITMAP
0C00
0400
0400
0000
E0E0
60C0
60C0
60C0
60C0
60C0
60C0
60C0
60C0
60C0
2180
1F00
ENDCHAR
STARTCHAR 00DA
ENCODING 218
SWIDTH 780 0
DWIDTH 13 0
BBX 11 16 1 0
BITMAP
0600
0400
0800
0800
E0E0
60C0
60C0
60C0
60C0
60C0
60C0
60C0
60C0
60C0
2180
1F00
ENDCHAR
STARTCHAR 00DB
ENCODING 219
SWIDTH 780 0
DWIDTH 13 0
BBX 11 16 1 0
BITMAP
0400
0E00
1200
1100
E0E0
60C0
60C0
60C0
60C0
60C0
60C0
60C0
60C0
60C0
2180
1F00
ENDCHAR
STARTCHAR 00DC
ENCODING 220
SWIDTH 780 0
DWIDTH 13 0
BBX 11 15 1 0
BITMAP
0900
0900
0000
E0E0
60C0
60C0
60C0
60C0
60C0
60C0
60C0
60C0
60C0
2180
1F00
ENDCHAR
STARTCHAR 00DD
ENCODING 221
SWIDTH 720 0
DWIDTH 12 0
BBX 10 16 1 0
BITMAP
0600
0400
0800
0800
E0C0
6080
6100
3100
3200
1C00
0C00
0C00
0C00
0C00
0C00
1C00
ENDCHAR
STARTCHAR 00DE
ENCODING 222
SWIDTH 540 0
DWIDTH 9 0
BBX 8 12 1 0
BITMAP
E0
60
60
7C
66
62
63
62
66
78
60
E0
ENDCHAR
STARTCHAR 00DF
ENCODING 223
SWIDTH 480 0
DWIDTH 8 0
BBX 8 12 0 0
BITMAP
3C
66
66
66
66
6C
66
62
63
62
72
EC
ENDCHAR
STARTCHAR 00E0
ENCODING 224
SWIDTH 480 0
DWIDTH 8 0
BBX 6 12 1 0
BITMAP
20
10
10
00
78
C8
8C
3C
4C
CC
CC
7C
ENDCHAR
STARTCHAR 00E1
ENCODING 225
SWIDTH 480 0
DWIDTH 8 0
BBX 6 12 1 0
BITMAP
18
10
20
00
78
C8
8C
3C
4C
CC
CC
7C
ENDCHAR
STARTCHAR 00E2
ENCODING 226
SWIDTH 480 0
DWIDTH 8 0
BBX 6 12 1 0
BITMAP
30
58
40
00
78
C8
8C
3C
4C
CC
CC
7C
ENDCHAR
STARTCHAR 00E3
ENCODING 227
SWIDTH 480 0
DWIDTH 8 0
BBX 6 12 1 0
BITMAP
60
B8
00
00
78
C8
8C
3C
4C
CC
CC
7C
ENDCHAR
STARTCHAR 00E4
ENCODING 228
SWIDTH 480 0
DWIDTH 8 0
BBX 6 12 1 0
BITMAP
48
48
00
00
78
C8
8C
3C
4C
CC
CC
7C
ENDCHAR
STARTCHAR 00E5
ENCODING 229
SWIDTH 420 0
DWIDTH 7 0
BBX 6 12 1 0
BITMAP
38
58
30
00
70
D8
98
38
58
D8
D8
EC
ENDCHAR
STARTCHAR 00E6
ENCODING 230
SWIDTH 720 0
DWIDTH 12 0
BBX 10 8 1 0
BITMAP
7B80
CCC0
0FC0
3C00
4C00
CC40
CE80
7780
ENDCHAR
STARTCHAR 00E7
ENCODING 231
SWIDTH 480 0
DWIDTH 8 0
BBX 6 12 1 -4
BITMAP
38
4C
C0
C0
C0
C4
64
38
00
30
10
30
ENDCHAR
STARTCHAR 00E8
ENCODING 232
SWIDTH 480 0
DWIDTH 8 0
BBX 6 12 1 0
BITMAP
30
10
00
00
38
44
FC
C0
C0
C0
7C
38
ENDCHAR
STARTCHAR 00E9
ENCODING 233
SWIDTH 480 0
DWIDTH 8 0
BBX 6 12 1 0
BITMAP
18
10
00
00
38
44
FC
C0
C0
C0
7C
38
ENDCHAR
STARTCHAR 00EA
ENCODING 234
SWIDTH 480 0
DWIDTH 8 0
BBX 6 12 1 0
BITMAP
18
28
04
00
38
44
FC
C0
C0
C0
7C
38
ENDCHAR
STARTCHAR 00EB
ENCODING 235
SWIDTH 480 0
DWIDTH 8 0
BBX 6 12 1 0
BITMAP
48
48
00
00
38
4C
FC
C0
C0
C0
7C
38
ENDCHAR
STARTCHAR 00EC
ENCODING 236
SWIDTH 300 0
DWIDTH 5 0
BBX 3 12 1 0
BITMAP
C0
40
20
00
60
60
60
60
60
60
60
60
ENDCHAR
STARTCHAR 00ED
ENCODING 237
SWIDTH 300 0
DWIDTH 5 0
BBX 2 12 2 0
BITMAP
C0
80
00
00
C0
C0
C0
C0
C0
C0
C0
C0
ENDCHAR
STARTCHAR 00EE
ENCODING 238
SWIDTH 300 0
DWIDTH 5 0
BBX 4 12 1 0
BITMAP
60
A0
10
00
60
60
60
60
60
60
60
60
ENDCHAR
STARTCHAR 00EF
ENCODING 239
SWIDTH 360 0
DWIDTH 6 0
BBX 4 12 1 0
BITMAP
90
90
00
00
20
60
60
60
60
60
60
60
ENDCHAR
STARTCHAR 00F0
ENCODING 240
SWIDTH 540 0
DWIDTH 9 0
BBX 7 12 1 1
BITMAP
24
18
68
0C
3C
46
C6
C6
C6
C6
44
38
ENDCHAR
STARTCHAR 00F1
ENCODING 241
SWIDTH 480 0
DWIDTH 8 0
BBX 7 12 0 0
BITMAP
32
5C
4C
00
6C
76
66
66
66
66
66
E6
ENDCHAR
STARTCHAR 00F2
ENCODING 242
SWIDTH 540 0
DWIDTH 9 0
BBX 7 12 1 0
BITMAP
30
10
00
00
38
44
C6
C6
C6
C6
44
38
ENDCHAR
STARTCHAR 00F3
ENCODING 243
SWIDTH 540 0
DWIDTH 9 0
BBX 7 12 1 0
BITMAP
18
10
00
00
38
44
C6
C6
C6
C6
44
38
ENDCHAR
STARTCHAR 00F4
ENCODING 244
SWIDTH 540 0
DWIDTH 9 0
BBX 7 12 1 0
BITMAP
18
28
04
00
38
44
C6
C6
C6
C6
44
38
ENDCHAR
STARTCHAR 00F5
ENCODING 245
SWIDTH 540 0
DWIDTH 9 0
BBX 7 12 1 0
BITMAP
70
1C
00
00
38
44
C6
C6
C6
C6
44
38
ENDCHAR
STARTCHAR 00F6
ENCODING 246
SWIDTH 540 0
DWIDTH 9 0
BBX 7 12 1 0
BITMAP
24
24
00
00
38
44
C6
C6
C6
C6
44
38
ENDCHAR
STARTCHAR 00F7
ENCODING 247
SWIDTH 540 0
DWIDTH 9 0
BBX 9 6 0 3
BITMAP
0800
0000
FF80
0000
0000
0800
ENDCHAR
STARTCHAR 00F8
ENCODING 248
SWIDTH 540 0
DWIDTH 9 0
BBX 7 8 1 0
BITMAP
3A
44
CE
D6
E6
E6
44
B8
ENDCHAR
STARTCHAR 00F9
ENCODING 249
SWIDTH 480 0
DWIDTH 8 0
BBX 6 12 1 0
BITMAP
20
10
10
00
CC
CC
CC
CC
CC
CC
CC
7C
ENDCHAR
STARTCHAR 00FA
ENCODING 250
SWIDTH 480 0
DWIDTH 8 0
BBX 6 12 1 0
BITMAP
10
20
00
00
CC
CC
CC
CC
CC
CC
CC
7C
ENDCHAR
STARTCHAR 00FB
ENCODING 251
SWIDTH 480 0
DWIDTH 8 0
BBX 6 12 1 0
BITMAP
30
58
00
00
CC
CC
CC
CC
CC
CC
CC
7C
ENDCHAR
STARTCHAR 00FC
ENCODING 252
SWIDTH 480 0
DWIDTH 8 0
BBX 6 12 1 0
BITMAP
48
48
00
00
CC
CC
CC
CC
CC
CC
CC
7C
ENDCHAR
STARTCHAR 00FD
ENCODING 253
SWIDTH 540 0
DWIDTH 9 0
BBX 7 16 1 -4
BITMAP
18
10
00
00
C2
42
64
24
28
38
18
10
10
10
E0
C0
ENDCHAR
STARTCHAR 00FE
ENCODING 254
SWIDTH 480 0
DWIDTH 8 0
BBX 7 16 1 -4
BITMAP
C0
C0
C0
C0
D8
EC
C4
C6
C4
C4
C4
F8
C0
C0
C0
C0
ENDCHAR
STARTCHAR 00FF
ENCODING 255
SWIDTH 480 0
DWIDTH 8 0
BBX 7 16 1 -4
BITMAP
48
48
00
00
C6
C4
44
48
68
28
30
10
20
20
E0
C0
ENDCHAR
STARTCHAR 0100
ENCODING 256
SWIDTH 720 0
DWIDTH 12 0
BBX 11 14 0 0
BITMAP
1F00
0000
0400
0400
0E00
0E00
1300
1300
1100
3F80
2180
40C0
40C0
E0E0
ENDCHAR
STARTCHAR 0101
ENCODING 257
SWIDTH 480 0
DWIDTH 8 0
BBX 6 11 1 0
BITMAP
FC
00
00
78
C8
8C
3C
4C
CC
CC
7C
ENDCHAR
STARTCHAR 0102
ENCODING 258
SWIDTH 720 0
DWIDTH 12 0
BBX 11 15 0 0
BITMAP
1000
0F00
0000
0400
0400
0600
0A00
0B00
1100
1100
1F80
2080
40C0
40C0
E0E0
ENDCHAR
STARTCHAR 0103
ENCODING 259
SWIDTH 480 0
DWIDTH 8 0
BBX 7 11 1 1
BITMAP
78
00
00
78
C8
0C
3C
CC
CC
DE
6C
ENDCHAR
STARTCHAR 0104
ENCODING 260
SWIDTH 720 0
DWIDTH 12 0
BBX 12 15 0 -3
BITMAP
0400
0400
0E00
0A00
1300
1300
1180
3F80
2080
40C0
40C0
E0F0
00C0
00C0
0070
ENDCHAR
STARTCHAR 0105
ENCODING 261
SWIDTH 480 0
DWIDTH 8 0
BBX 7 11 1 -3
BITMAP
78
C8
8C
3C
4C
CC
CC
7C
0C
0C
06
ENDCHAR
STARTCHAR 0106
ENCODING 262
SWIDTH 660 0
DWIDTH 11 0
BBX 10 16 1 0
BITMAP
0600
0400
0400
0800
1F40
20C0
4040
C040
C000
C000
C000
C000
C000
4040
2080
1F00
ENDCHAR
STARTCHAR 0107
ENCODING 263
SWIDTH 480 0
DWIDTH 8 0
BBX 6 12 1 0
BITMAP
18
10
00
00
38
4C
C0
C0
C0
C4
64
38
ENDCHAR
STARTCHAR 0108
ENCODING 264
SWIDTH 660 0
DWIDTH 11 0
BBX 10 16 1 0
BITMAP
0C00
0C00
1200
0000
1F40
20C0
4040
C040
C000
C000
C000
C000
C000
4040
2080
1F00
ENDCHAR
STARTCHAR 0109
ENCODING 265
SWIDTH 480 0
DWIDTH 8 0
BBX 6 12 1 0
BITMAP
30
28
40
00
38
4C
C0
C0
C0
C4
64
38
ENDCHAR
STARTCHAR 010A
ENCODING 266
SWIDTH 660 0
DWIDTH 11 0
BBX 10 15 1 0
BITMAP
0400
0400
0000
1F40
20C0
4040
C040
C000
C000
C000
C000
C000
4040
2080
1F00
ENDCHAR
STARTCHAR 010B
ENCODING 267
SWIDTH 480 0
DWIDTH 8 0
BBX 6 12 1 0
BITMAP
10
10
00
00
38
4C
C0
C0
C0
C4
64
38
ENDCHAR
STARTCHAR 010C
ENCODING 268
SWIDTH 660 0
DWIDTH 11 0
BBX 10 16 1 0
BITMAP
0100
1200
0E00
0400
1F40
20C0
4040
C040
C000
C000
C000
C000
C000
4040
2080
1F00
ENDCHAR
STARTCHAR 010D
ENCODING 269
SWIDTH 480 0
DWIDTH 8 0
BBX 6 11 1 1
BITMAP
28
10
00
38
4C
C0
C0
C0
C4
64
38
ENDCHAR
STARTCHAR 010E
ENCODING 270
SWIDTH 720 0
DWIDTH 12 0
BBX 11 15 1 0
BITMAP
0200
1C00
0C00
FE00
6180
60C0
6040
6040
6060
6060
6040
6040
60C0
6180
FE00
ENDCHAR
STARTCHAR 010F
ENCODING 271
SWIDTH 720 0
DWIDTH 12 0
BBX 10 12 1 0
BITMAP
06C0
06C0
0640
0600
3E00
4600
C600
C600
C600
C600
4600
7E00
ENDCHAR
STARTCHAR 0110
ENCODING 272
SWIDTH 720 0
DWIDTH 12 0
BBX 12 12 0 0
BITMAP
7F00
30C0
3060
3020
3020
FE30
3030
3020
3020
3060
30C0
7F00
ENDCHAR
STARTCHAR 0111
ENCODING 273
SWIDTH 540 0
DWIDTH 9 0
BBX 8 12 1 0
BITMAP
06
06
1F
06
3E
46
C6
C6
C6
C6
46
7E
ENDCHAR
STARTCHAR 0112
ENCODING 274
SWIDTH 600 0
DWIDTH 10 0
BBX 9 14 1 0
BITMAP
3E00
0000
FF00
6100
6000
6000
6600
7E00
6600
6200
6000
6080
6100
FF00
ENDCHAR
STARTCHAR 0113
ENCODING 275
SWIDTH 480 0
DWIDTH 8 0
BBX 6 11 1 0
BITMAP
7C
00
00
38
44
FC
C0
C0
C0
74
38
ENDCHAR
STARTCHAR 0114
ENCODING 276
SWIDTH 600 0
DWIDTH 10 0
BBX 9 14 1 1
BITMAP
3800
0000
FF00
6100
6000
6000
6600
7E00
6600
6200
6000
6080
6100
FF00
ENDCHAR
STARTCHAR 0115
ENCODING 277
SWIDTH 480 0
DWIDTH 8 0
BBX 6 12 1 0
BITMAP
44
38
00
00
38
44
FC
C0
C0
C0
7C
38
ENDCHAR
STARTCHAR 0116
ENCODING 278
SWIDTH 600 0
DWIDTH 10 0
BBX 9 15 1 0
BITMAP
0800
0800
0000
FF00
6100
6000
6000
6600
7E00
6600
6200
6000
6080
6100
FF00
ENDCHAR
STARTCHAR 0117
ENCODING 279
SWIDTH 480 0
DWIDTH 8 0
BBX 6 12 1 0
BITMAP
10
10
00
00
38
44
FC
C0
C0
C0
7C
38
ENDCHAR
STARTCHAR 0118
ENCODING 280
SWIDTH 600 0
DWIDTH 10 0
BBX 9 15 1 -3
BITMAP
FF00
6100
6000
6000
6200
7E00
6200
6200
6000
6080
6100
FF00
0400
0C00
0700
ENDCHAR
STARTCHAR 0119
ENCODING 281
SWIDTH 480 0
DWIDTH 8 0
BBX 7 11 1 -3
BITMAP
38
44
FC
C0
C0
C0
7C
38
18
18
0E
ENDCHAR
STARTCHAR 011A
ENCODING 282
SWIDTH 600 0
DWIDTH 10 0
BBX 9 15 1 0
BITMAP
2000
1800
1000
FF00
6100
6000
6000
6600
7E00
6600
6200
6000
6080
6100
FF00
ENDCHAR
STARTCHAR 011B
ENCODING 283
SWIDTH 480 0
DWIDTH 8 0
BBX 6 12 1 0
BITMAP
04
28
18
00
38
44
FC
C0
C0
C0
7C
38
ENDCHAR
STARTCHAR 011C
ENCODING 284
SWIDTH 720 0
DWIDTH 12 0
BBX 11 16 1 0
BITMAP
0400
0A00
1100
0000
1F40
20C0
4040
4000
C000
C1E0
C0C0
C0C0
C0C0
60C0
20C0
1F80
ENDCHAR
STARTCHAR 011D
ENCODING 285
SWIDTH 540 0
DWIDTH 9 0
BBX 7 16 1 -4
BITMAP
30
38
40
00
7E
CC
CC
CC
C8
70
80
FE
82
82
86
78
ENDCHAR
STARTCHAR 011E
ENCODING 286
SWIDTH 720 0
DWIDTH 12 0
BBX 11 14 1 1
BITMAP
0F00
0000
1F40
20C0
4040
4000
C000
C1E0
C0C0
C0C0
C0C0
60C0
20C0
1F80
ENDCHAR
STARTCHAR 011F
ENCODING 287
SWIDTH 540 0
DWIDTH 9 0
BBX 7 16 1 -4
BITMAP
04
48
38
00
7E
CC
CC
CC
C8
70
80
FE
82
82
86
78
ENDCHAR
STARTCHAR 0120
ENCODING 288
SWIDTH 720 0
DWIDTH 12 0
BBX 11 15 1 0
BITMAP
0400
0400
0000
1F40
20C0
4040
4000
C000
C1E0
C0C0
C0C0
C0C0
60C0
20C0
1F80
ENDCHAR
STARTCHAR 0121
ENCODING 289
SWIDTH 540 0
DWIDTH 9 0
BBX 8 16 1 -4
BITMAP
10
10
00
00
7E
CC
CC
CC
C8
70
C0
FE
83
82
86
78
ENDCHAR
STARTCHAR 0122
ENCODING 290
SWIDTH 720 0
DWIDTH 12 0
BBX 11 16 1 -4
BITMAP
1F40
20C0
4040
4040
C000
C000
C1E0
C0C0
C0C0
60C0
20C0
1F80
0400
0600
0600
0400
ENDCHAR
STARTCHAR 0123
ENCODING 291
SWIDTH 540 0
DWIDTH 9 0
BBX 7 17 1 -4
BITMAP
10
20
30
10
00
7E
CC
CC
CC
C8
70
80
FE
82
82
86
78
ENDCHAR
STARTCHAR 0124
ENCODING 292
SWIDTH 720 0
DWIDTH 12 0
BBX 10 16 1 0
BITMAP
0C00
0C00
1200
0000
E1C0
6180
6180
6180
6180
6180
7F80
6180
6180
6180
6180
E1C0
ENDCHAR
STARTCHAR 0125
ENCODING 293
SWIDTH 480 0
DWIDTH 8 0
BBX 6 16 1 0
BITMAP
30
30
48
00
C0
C0
C0
C0
D8
EC
CC
CC
CC
CC
CC
CC
ENDCHAR
STARTCHAR 0126
ENCODING 294
SWIDTH 720 0
DWIDTH 12 0
BBX 12 12 0 0
BITMAP
70E0
30C0
FFF0
30C0
30C0
30C0
3FC0
30C0
30C0
30C0
30C0
30C0
ENDCHAR
STARTCHAR 0127
ENCODING 295
SWIDTH 480 0
DWIDTH 8 0
BBX 7 12 0 0
BITMAP
60
60
F8
60
6C
76
66
66
66
66
66
E6
ENDCHAR
STARTCHAR 0128
ENCODING 296
SWIDTH 420 0
DWIDTH 7 0
BBX 4 15 2 0
BITMAP
C0
70
00
E0
60
60
60
60
60
60
60
60
60
60
E0
ENDCHAR
STARTCHAR 0129
ENCODING 297
SWIDTH 300 0
DWIDTH 5 0
BBX 5 12 0 0
BITMAP
40
A8
30
00
30
30
30
30
30
30
30
30
ENDCHAR
STARTCHAR 012A
ENCODING 298
SWIDTH 420 0
DWIDTH 7 0
BBX 5 14 1 0
BITMAP
F8
00
70
30
30
30
30
30
30
30
30
30
30
70
ENDCHAR
STARTCHAR 012B
ENCODING 299
SWIDTH 300 0
DWIDTH 5 0
BBX 5 11 0 0
BITMAP
F8
00
00
30
30
30
30
30
30
30
30
ENDCHAR
STARTCHAR 012C
ENCODING 300
SWIDTH 360 0
DWIDTH 6 0
BBX 4 15 1 0
BITMAP
10
E0
00
E0
60
60
60
60
60
60
60
60
60
60
E0
ENDCHAR
STARTCHAR 012D
ENCODING 301
SWIDTH 300 0
DWIDTH 5 0
BBX 5 12 0 0
BITMAP
80
88
70
00
30
30
30
30
30
30
30
30
ENDCHAR
STARTCHAR 012E
ENCODING 302
SWIDTH 360 0
DWIDTH 6 0
BBX 4 15 1 -3
BITMAP
E0
60
60
60
60
60
60
60
60
60
60
E0
60
60
30
ENDCHAR
STARTCHAR 012F
ENCODING 303
SWIDTH 300 0
DWIDTH 5 0
BBX 3 15 2 -3
BITMAP
80
80
00
00
C0
C0
C0
C0
C0
C0
C0
C0
C0
C0
60
ENDCHAR
STARTCHAR 0130
ENCODING 304
SWIDTH 360 0
DWIDTH 6 0
BBX 3 15 1 0
BITMAP
40
40
00
E0
60
60
60
60
60
60
60
60
60
60
E0
ENDCHAR
STARTCHAR 0131
ENCODING 305
SWIDTH 300 0
DWIDTH 5 0
BBX 2 8 2 0
BITMAP
C0
C0
C0
C0
C0
C0
C0
C0
ENDCHAR
STARTCHAR 0132
ENCODING 306
SWIDTH 720 0
DWIDTH 12 0
BBX 10 12 1 0
BITMAP
E1C0
6180
6180
6180
6180
6180
6180
6180
6180
6180
6500
E700
ENDCHAR
STARTCHAR 0133
ENCODING 307
SWIDTH 540 0
DWIDTH 9 0
BBX 6 16 2 -4
BITMAP
84
84
00
00
CC
CC
CC
CC
CC
CC
CC
CC
0C
0C
2C
38
ENDCHAR
STARTCHAR 0134
ENCODING 308
SWIDTH 420 0
DWIDTH 7 0
BBX 6 16 1 0
BITMAP
10
28
04
00
38
18
18
18
18
18
18
18
10
10
D0
E0
ENDCHAR
STARTCHAR 0135
ENCODING 309
SWIDTH 300 0
DWIDTH 5 0
BBX 6 16 -1 -4
BITMAP
18
28
04
00
18
18
18
18
18
18
18
18
18
10
90
E0
ENDCHAR
STARTCHAR 0136
ENCODING 310
SWIDTH 720 0
DWIDTH 12 0
BBX 11 16 1 -4
BITMAP
E180
6300
6200
6400
6800
7000
7800
6C00
6600
6300
6180
E1E0
0000
0C00
0400
0C00
ENDCHAR
STARTCHAR 0137
ENCODING 311
SWIDTH 480 0
DWIDTH 8 0
BBX 6 16 1 -4
BITMAP
C0
C0
C0
C0
CC
D0
E0
E0
E0
D0
D8
CC
00
30
30
20
ENDCHAR
STARTCHAR 0138
ENCODING 312
SWIDTH 480 0
DWIDTH 8 0
BBX 7 8 0 0
BITMAP
E6
68
70
70
78
6C
64
E6
ENDCHAR
STARTCHAR 0139
ENCODING 313
SWIDTH 600 0
DWIDTH 10 0
BBX 9 16 1 0
BITMAP
1800
1000
1000
0000
E000
6000
6000
6000
6000
6000
6000
6000
6000
6080
6100
FF00
ENDCHAR
STARTCHAR 013A
ENCODING 314
SWIDTH 300 0
DWIDTH 5 0
BBX 3 16 2 0
BITMAP
60
C0
80
00
C0
C0
C0
C0
C0
C0
C0
C0
C0
C0
C0
C0
ENDCHAR
STARTCHAR 013B
ENCODING 315
SWIDTH 600 0
DWIDTH 10 0
BBX 9 16 1 -4
BITMAP
E000
6000
6000
6000
6000
6000
6000
6000
6000
6080
6080
FF00
0000
1800
0800
1800
ENDCHAR
STARTCHAR 013C
ENCODING 316
SWIDTH 300 0
DWIDTH 5 0
BBX 2 16 2 -4
BITMAP
C0
C0
C0
C0
C0
C0
C0
C0
C0
C0
C0
C0
00
C0
C0
80
ENDCHAR
STARTCHAR 013D
ENCODING 317
SWIDTH 600 0
DWIDTH 10 0
BBX 8 12 1 0
BITMAP
E6
67
63
62
64
60
60
60
60
60
61
FF
ENDCHAR
STARTCHAR 013E
ENCODING 318
SWIDTH 480 0
DWIDTH 8 0
BBX 5 12 2 0
BITMAP
D8
D8
C8
C0
C0
C0
C0
C0
C0
C0
C0
C0
ENDCHAR
STARTCHAR 013F
ENCODING 319
SWIDTH 600 0
DWIDTH 10 0
BBX 9 12 1 0
BITMAP
E000
6000
6000
6000
6000
6400
6400
6000
6000
6080
6100
FF00
ENDCHAR
STARTCHAR 0140
ENCODING 320
SWIDTH 360 0
DWIDTH 6 0
BBX 4 12 2 0
BITMAP
C0
C0
C0
C0
C0
D0
D0
C0
C0
C0
C0
C0
ENDCHAR
STARTCHAR 0141
ENCODING 321
SWIDTH 600 0
DWIDTH 10 0
BBX 10 12 0 0
BITMAP
3000
3000
3000
3400
3800
3000
3000
7000
B000
3040
3040
7F80
ENDCHAR
STARTCHAR 0142
ENCODING 322
SWIDTH 300 0
DWIDTH 5 0
BBX 4 12 1 0
BITMAP
60
60
60
60
70
60
60
E0
60
60
60
60
ENDCHAR
STARTCHAR 0143
ENCODING 323
SWIDTH 720 0
DWIDTH 12 0
BBX 10 16 1 0
BITMAP
0400
0400
0800
0000
E1C0
6180
7180
7180
6980
6D80
6580
6380
6380
6180
6180
E080
ENDCHAR
STARTCHAR 0144
ENCODING 324
SWIDTH 480 0
DWIDTH 8 0
BBX 7 12 0 0
BITMAP
08
10
10
00
6C
76
66
66
66
66
66
E6
ENDCHAR
STARTCHAR 0145
ENCODING 325
SWIDTH 720 0
DWIDTH 12 0
BBX 10 16 1 -4
BITMAP
E1C0
6180
7180
7180
6980
6D80
6580
6380
6380
6180
6180
E080
0800
0C00
0400
0C00
ENDCHAR
STARTCHAR 0146
ENCODING 326
SWIDTH 480 0
DWIDTH 8 0
BBX 7 12 0 -4
BITMAP
6C
76
66
62
62
62
66
E6
00
18
08
18
ENDCHAR
STARTCHAR 0147
ENCODING 327
SWIDTH 720 0
DWIDTH 12 0
BBX 10 16 1 0
BITMAP
1200
1400
0C00
0C00
E1C0
6180
7180
7180
6980
6D80
6580
6380
6380
6180
6180
E080
ENDCHAR
STARTCHAR 0148
ENCODING 328
SWIDTH 480 0
DWIDTH 8 0
BBX 7 12 0 0
BITMAP
04
28
18
00
6C
76
66
66
66
66
66
E6
ENDCHAR
STARTCHAR 0149
ENCODING 329
SWIDTH 600 0
DWIDTH 10 0
BBX 9 12 0 0
BITMAP
C000
C000
4000
4000
9B00
1D80
1980
1980
1980
1980
1980
1980
ENDCHAR
STARTCHAR 014A
ENCODING 330
SWIDTH 720 0
DWIDTH 12 0
BBX 10 12 1 0
BITMAP
EF00
7180
6080
60C0
60C0
60C0
60C0
60C0
60C0
6480
6480
E700
ENDCHAR
STARTCHAR 014B
ENCODING 331
SWIDTH 480 0
DWIDTH 8 0
BBX 7 12 0 -4
BITMAP
6C
76
66
66
66
66
66
E6
06
06
06
1C
ENDCHAR
STARTCHAR 014C
ENCODING 332
SWIDTH 720 0
DWIDTH 12 0
BBX 11 14 1 0
BITMAP
1F00
0000
1E00
2180
40C0
C040
C040
C040
C060
C040
C040
40C0
2080
1F00
ENDCHAR
STARTCHAR 014D
ENCODING 333
SWIDTH 540 0
DWIDTH 9 0
BBX 7 11 1 0
BITMAP
7C
00
00
38
44
C6
C6
C6
C6
44
38
ENDCHAR
STARTCHAR 014E
ENCODING 334
SWIDTH 720 0
DWIDTH 12 0
BBX 11 16 1 0
BITMAP
0100
1100
0E00
0000
1E00
2180
40C0
C040
C040
C040
C060
C040
C040
40C0
2080
1F00
ENDCHAR
STARTCHAR 014F
ENCODING 335
SWIDTH 540 0
DWIDTH 9 0
BBX 7 12 1 0
BITMAP
44
38
00
00
38
44
C6
C6
C6
C6
44
38
ENDCHAR
STARTCHAR 0150
ENCODING 336
SWIDTH 720 0
DWIDTH 12 0
BBX 11 16 1 0
BITMAP
0D00
0B00
1200
1000
1E00
2180
40C0
C040
C040
C040
C060
C040
C040
40C0
2080
1F00
ENDCHAR
STARTCHAR 0151
ENCODING 337
SWIDTH 540 0
DWIDTH 9 0
BBX 7 12 1 0
BITMAP
24
28
08
00
38
44
C6
C6
C6
C6
44
38
ENDCHAR
STARTCHAR 0152
ENCODING 338
SWIDTH 900 0
DWIDTH 15 0
BBX 14 12 1 0
BITMAP
1FF8
2188
4180
C180
C1B0
C1F0
C1B0
C1B0
C180
4184
2184
1FF8
ENDCHAR
STARTCHAR 0153
ENCODING 339
SWIDTH 780 0
DWIDTH 13 0
BBX 11 8 1 0
BITMAP
39C0
4E60
C7E0
C600
C600
C620
4740
39C0
ENDCHAR
STARTCHAR 0154
ENCODING 340
SWIDTH 660 0
DWIDTH 11 0
BBX 10 16 1 0
BITMAP
0C00
0800
1000
0000
FC00
6200
6300
6300
6300
6200
7C00
6C00
6600
6300
6300
E1C0
ENDCHAR
STARTCHAR 0155
ENCODING 341
SWIDTH 360 0
DWIDTH 6 0
BBX 4 12 1 0
BITMAP
60
40
40
00
F0
D0
C0
C0
C0
C0
C0
C0
ENDCHAR
STARTCHAR 0156
ENCODING 342
SWIDTH 660 0
DWIDTH 11 0
BBX 10 16 1 -4
BITMAP
FC00
6200
6300
6300
6300
6300
6600
7800
6C00
6600
6300
E1C0
0000
0C00
0C00
0800
ENDCHAR
STARTCHAR 0157
ENCODING 343
SWIDTH 360 0
DWIDTH 6 0
BBX 4 12 1 -4
BITMAP
F0
D0
C0
C0
C0
C0
C0
C0
00
C0
40
C0
ENDCHAR
STARTCHAR 0158
ENCODING 344
SWIDTH 660 0
DWIDTH 11 0
BBX 10 15 1 0
BITMAP
2000
1C00
1800
FC00
6200
6300
6300
6300
6200
7C00
6C00
6600
6300
6300
E1C0
ENDCHAR
STARTCHAR 0159
ENCODING 345
SWIDTH 360 0
DWIDTH 6 0
BBX 5 12 0 0
BITMAP
88
50
30
00
78
60
60
60
60
60
60
60
ENDCHAR
STARTCHAR 015A
ENCODING 346
SWIDTH 540 0
DWIDTH 9 0
BBX 7 16 1 0
BITMAP
08
18
10
00
7E
C6
C2
C2
E0
78
1C
06
02
82
82
FC
ENDCHAR
STARTCHAR 015B
ENCODING 347
SWIDTH 420 0
DWIDTH 7 0
BBX 5 12 1 0
BITMAP
30
20
20
00
70
D0
C0
E0
38
18
98
F0
ENDCHAR
STARTCHAR 015C
ENCODING 348
SWIDTH 540 0
DWIDTH 9 0
BBX 7 16 1 0
BITMAP
18
28
04
00
7E
C6
C2
C2
E0
78
1C
06
02
82
82
FC
ENDCHAR
STARTCHAR 015D
ENCODING 349
SWIDTH 420 0
DWIDTH 7 0
BBX 5 12 1 0
BITMAP
20
50
80
00
70
D0
C0
E0
38
18
98
F0
ENDCHAR
STARTCHAR 015E
ENCODING 350
SWIDTH 540 0
DWIDTH 9 0
BBX 7 16 1 -4
BITMAP
7E
C6
C2
C2
E0
78
1C
06
02
82
82
FC
10
10
10
30
ENDCHAR
STARTCHAR 015F
ENCODING 351
SWIDTH 420 0
DWIDTH 7 0
BBX 5 12 1 -4
BITMAP
70
D0
C0
E0
38
18
98
F0
20
20
20
20
ENDCHAR
STARTCHAR 0160
ENCODING 352
SWIDTH 540 0
DWIDTH 9 0
BBX 7 16 1 0
BITMAP
40
28
38
10
7E
C6
C2
C2
E0
78
1C
06
02
82
82
FC
ENDCHAR
STARTCHAR 0161
ENCODING 353
SWIDTH 420 0
DWIDTH 7 0
BBX 5 12 1 0
BITMAP
80
50
20
00
70
D0
C0
E0
38
18
98
F0
ENDCHAR
STARTCHAR 0162
ENCODING 354
SWIDTH 660 0
DWIDTH 11 0
BBX 10 16 1 -4
BITMAP
FFC0
8C40
0C40
0C00
0C00
0C00
0C00
0C00
0C00
0C00
0C00
1C00
0000
0800
0C00
0800
ENDCHAR
STARTCHAR 0163
ENCODING 355
SWIDTH 240 0
DWIDTH 4 0
BBX 4 14 0 -4
BITMAP
20
60
F0
60
60
60
60
60
60
70
00
60
20
20
ENDCHAR
STARTCHAR 0164
ENCODING 356
SWIDTH 660 0
DWIDTH 11 0
BBX 10 15 1 0
BITMAP
0200
1C00
0C00
FFC0
8C40
0C40
0C00
0C00
0C00
0C00
0C00
0C00
0C00
0C00
1C00
ENDCHAR
STARTCHAR 0165
ENCODING 357
SWIDTH 420 0
DWIDTH 7 0
BBX 6 12 0 0
BITMAP
0C
0C
24
64
F0
60
60
60
60
60
60
70
ENDCHAR
STARTCHAR 0166
ENCODING 358
SWIDTH 600 0
DWIDTH 10 0
BBX 10 12 0 0
BITMAP
FFC0
8C40
8C40
0C00
0C00
7F80
0C00
0C00
0C00
0C00
0C00
1C00
ENDCHAR
STARTCHAR 0167
ENCODING 359
SWIDTH 240 0
DWIDTH 4 0
BBX 4 11 0 0
BITMAP
20
20
60
F0
60
60
F0
60
60
60
70
ENDCHAR
STARTCHAR 0168
ENCODING 360
SWIDTH 780 0
DWIDTH 13 0
BBX 11 15 1 0
BITMAP
1C00
0700
0000
E0E0
60C0
60C0
60C0
60C0
60C0
60C0
60C0
60C0
60C0
2180
1F00
ENDCHAR
STARTCHAR 0169
ENCODING 361
SWIDTH 480 0
DWIDTH 8 0
BBX 6 12 1 0
BITMAP
64
B8
00
00
CC
CC
CC
CC
CC
CC
CC
7C
ENDCHAR
STARTCHAR 016A
ENCODING 362
SWIDTH 780 0
DWIDTH 13 0
BBX 11 14 1 0
BITMAP
1F00
0000
E0E0
60C0
60C0
60C0
60C0
60C0
60C0
60C0
60C0
60C0
2180
1F00
ENDCHAR
STARTCHAR 016B
ENCODING 363
SWIDTH 480 0
DWIDTH 8 0
BBX 6 11 1 0
BITMAP
F8
00
00
CC
CC
CC
CC
CC
CC
CC
7C
ENDCHAR
STARTCHAR 016C
ENCODING 364
SWIDTH 780 0
DWIDTH 13 0
BBX 11 15 1 1
BITMAP
1200
0E00
0000
E0E0
60C0
60C0
60C0
60C0
60C0
60C0
60C0
60C0
60C0
2180
1F00
ENDCHAR
STARTCHAR 016D
ENCODING 365
SWIDTH 480 0
DWIDTH 8 0
BBX 6 11 1 1
BITMAP
78
00
00
CC
CC
CC
CC
CC
CC
CC
7C
ENDCHAR
STARTCHAR 016E
ENCODING 366
SWIDTH 780 0
DWIDTH 13 0
BBX 11 16 1 0
BITMAP
0C00
0E00
0E00
0C00
E0E0
60C0
60C0
60C0
60C0
60C0
60C0
60C0
60C0
60C0
2180
1F00
ENDCHAR
STARTCHAR 016F
ENCODING 367
SWIDTH 480 0
DWIDTH 8 0
BBX 6 12 1 0
BITMAP
70
F0
60
00
DC
CC
CC
CC
CC
CC
CC
7C
ENDCHAR
STARTCHAR 0170
ENCODING 368
SWIDTH 780 0
DWIDTH 13 0
BBX 11 16 1 0
BITMAP
0D00
0A00
1200
0000
E0E0
60C0
60C0
60C0
60C0
60C0
60C0
60C0
60C0
60C0
2180
1F00
ENDCHAR
STARTCHAR 0171
ENCODING 369
SWIDTH 480 0
DWIDTH 8 0
BBX 6 12 1 0
BITMAP
68
48
10
00
CC
CC
CC
CC
CC
CC
CC
7C
ENDCHAR
STARTCHAR 0172
ENCODING 370
SWIDTH 720 0
DWIDTH 12 0
BBX 10 15 1 -3
BITMAP
E0C0
60C0
6080
6080
6080
6080
6080
6080
6080
6080
2180
1F00
0400
0C00
0600
ENDCHAR
STARTCHAR 0173
ENCODING 371
SWIDTH 480 0
DWIDTH 8 0
BBX 7 11 1 -3
BITMAP
CC
CC
CC
CC
CC
CC
CC
7C
08
08
0E
ENDCHAR
STARTCHAR 0174
ENCODING 372
SWIDTH 960 0
DWIDTH 16 0
BBX 14 16 1 0
BITMAP
0300
0500
0080
0000
C70C
C308
4308
6308
6310
2390
3490
34A0
14E0
1860
1840
0040
ENDCHAR
STARTCHAR 0175
ENCODING 373
SWIDTH 720 0
DWIDTH 12 0
BBX 12 12 0 0
BITMAP
0600
0B00
0000
0000
E630
6220
2240
2740
3540
1980
1980
1080
ENDCHAR
STARTCHAR 0176
ENCODING 374
SWIDTH 720 0
DWIDTH 12 0
BBX 10 16 1 0
BITMAP
0C00
0C00
1200
0000
E0C0
6080
6100
3100
3200
1C00
0C00
0C00
0C00
0C00
0C00
1C00
ENDCHAR
STARTCHAR 0177
ENCODING 375
SWIDTH 540 0
DWIDTH 9 0
BBX 7 16 1 -4
BITMAP
18
28
04
00
C2
42
64
24
28
38
18
10
10
10
E0
C0
ENDCHAR
STARTCHAR 0178
ENCODING 376
SWIDTH 720 0
DWIDTH 12 0
BBX 10 15 1 0
BITMAP
1200
1200
0000
E0C0
6080
3100
3100
1A00
0A00
0C00
0C00
0C00
0C00
0C00
0E00
ENDCHAR
STARTCHAR 0179
ENCODING 377
SWIDTH 600 0
DWIDTH 10 0
BBX 9 16 0 0
BITMAP
0600
0400
0800
0000
7F80
4100
0300
0600
0600
0C00
1800
1800
3000
6000
6080
FF80
ENDCHAR
STARTCHAR 017A
ENCODING 378
SWIDTH 540 0
DWIDTH 9 0
BBX 7 12 1 0
BITMAP
18
10
00
00
7E
04
08
18
30
20
60
FE
ENDCHAR
STARTCHAR 017B
ENCODING 379
SWIDTH 660 0
DWIDTH 11 0
BBX 9 15 1 0
BITMAP
0800
0800
0000
7F80
4300
0200
0600
0C00
0C00
1800
1000
3000
6000
6080
FF80
ENDCHAR
STARTCHAR 017C
ENCODING 380
SWIDTH 540 0
DWIDTH 9 0
BBX 7 12 1 0
BITMAP
10
10
00
00
7E
0C
08
18
30
20
60
FE
ENDCHAR
STARTCHAR 017D
ENCODING 381
SWIDTH 600 0
DWIDTH 10 0
BBX 9 15 0 0
BITMAP
1200
0C00
0C00
7F80
4100
0300
0600
0600
0C00
1800
1800
3000
6000
6080
FF80
ENDCHAR
STARTCHAR 017E
ENCODING 382
SWIDTH 540 0
DWIDTH 9 0
BBX 7 12 1 0
BITMAP
04
38
18
00
7E
04
08
18
30
20
60
FE
ENDCHAR
STARTCHAR 017F
ENCODING 383
SWIDTH 300 0
DWIDTH 5 0
BBX 6 12 1 0
BITMAP
38
64
60
60
60
60
60
60
60
60
60
E0
ENDCHAR
STARTCHAR 018F
ENCODING 399
SWIDTH 780 0
DWIDTH 13 0
BBX 11 12 1 0
BITMAP
3F00
2080
2040
0040
0060
FFE0
C060
C060
4060
6040
3080
1F00
ENDCHAR
STARTCHAR 0192
ENCODING 402
SWIDTH 600 0
DWIDTH 10 0
BBX 8 16 1 -4
BITMAP
03
05
04
0C
1E
08
08
18
18
10
10
10
30
20
A0
C0
ENDCHAR
STARTCHAR 01A0
ENCODING 416
SWIDTH 720 0
DWIDTH 12 0
BBX 11 13 1 1
BITMAP
0040
1F80
2080
40C0
C040
C040
C060
C040
C040
C040
4080
2080
1F00
ENDCHAR
STARTCHAR 01A1
ENCODING 417
SWIDTH 540 0
DWIDTH 9 0
BBX 8 8 1 1
BITMAP
39
45
C6
C6
C6
C6
44
38
ENDCHAR
STARTCHAR 01AF
ENCODING 431
SWIDTH 840 0
DWIDTH 14 0
BBX 13 13 1 1
BITMAP
0008
E0F0
60C0
60C0
60C0
60C0
60C0
60C0
60C0
60C0
60C0
2180
1F00
ENDCHAR
STARTCHAR 01B0
ENCODING 432
SWIDTH 540 0
DWIDTH 9 0
BBX 8 8 1 1
BITMAP
CF
CE
CC
CC
CC
CC
CC
7C
ENDCHAR
STARTCHAR 01CD
ENCODING 461
SWIDTH 720 0
DWIDTH 12 0
BBX 11 15 0 0
BITMAP
0100
0E00
0600
0400
0400
0600
0A00
0B00
1100
1100
1F80
2080
40C0
40C0
E0E0
ENDCHAR
STARTCHAR 01CE
ENCODING 462
SWIDTH 480 0
DWIDTH 8 0
BBX 6 12 1 0
BITMAP
40
68
30
00
78
C8
0C
3C
4C
CC
CC
7C
ENDCHAR
STARTCHAR 01CF
ENCODING 463
SWIDTH 360 0
DWIDTH 6 0
BBX 4 15 1 0
BITMAP
10
E0
40
E0
60
60
60
60
60
60
60
60
60
60
E0
ENDCHAR
STARTCHAR 01D0
ENCODING 464
SWIDTH 300 0
DWIDTH 5 0
BBX 4 12 1 0
BITMAP
10
A0
60
00
60
60
60
60
60
60
60
60
ENDCHAR
STARTCHAR 01D1
ENCODING 465
SWIDTH 720 0
DWIDTH 12 0
BBX 11 15 1 1
BITMAP
1200
0E00
0400
1E00
2180
40C0
C040
C040
C040
C060
C040
C040
40C0
2080
1F00
ENDCHAR
STARTCHAR 01D2
ENCODING 466
SWIDTH 540 0
DWIDTH 9 0
BBX 7 11 1 1
BITMAP
28
10
00
38
44
C6
C6
C6
C6
44
38
ENDCHAR
STARTCHAR 01D3
ENCODING 467
SWIDTH 780 0
DWIDTH 13 0
BBX 11 15 1 1
BITMAP
1200
0C00
0C00
E0E0
60C0
60C0
60C0
60C0
60C0
60C0
60C0
60C0
60C0
2180
1F00
ENDCHAR
STARTCHAR 01D4
ENCODING 468
SWIDTH 480 0
DWIDTH 8 0
BBX 6 12 1 0
BITMAP
48
30
30
00
CC
CC
CC
CC
CC
CC
CC
7C
ENDCHAR
STARTCHAR 01D5
ENCODING 469
SWIDTH 780 0
DWIDTH 13 0
BBX 11 16 1 0
BITMAP
1F00
0000
1200
0000
E0E0
60C0
60C0
60C0
60C0
60C0
60C0
60C0
60C0
60C0
2180
1F00
ENDCHAR
STARTCHAR 01D6
ENCODING 470
SWIDTH 480 0
DWIDTH 8 0
BBX 6 13 1 0
BITMAP
F8
00
48
48
00
CC
CC
CC
CC
CC
CC
CC
7C
ENDCHAR
STARTCHAR 01D7
ENCODING 471
SWIDTH 780 0
DWIDTH 13 0
BBX 11 16 1 0
BITMAP
0400
0000
1200
0000
E0E0
60C0
60C0
60C0
60C0
60C0
60C0
60C0
60C0
60C0
2180
1F00
ENDCHAR
STARTCHAR 01D8
ENCODING 472
SWIDTH 480 0
DWIDTH 8 0
BBX 6 15 1 0
BITMAP
18
30
20
00
48
48
00
CC
CC
CC
CC
CC
CC
CC
7C
ENDCHAR
STARTCHAR 01D9
ENCODING 473
SWIDTH 780 0
DWIDTH 13 0
BBX 11 16 1 0
BITMAP
0A00
0C00
1200
0000
E0E0
60C0
60C0
60C0
60C0
60C0
60C0
60C0
60C0
60C0
2180
1F00
ENDCHAR
STARTCHAR 01DA
ENCODING 474
SWIDTH 480 0
DWIDTH 8 0
BBX 6 14 1 1
BITMAP
48
70
30
48
48
00
CC
CC
CC
CC
CC
CC
CC
7C
ENDCHAR
STARTCHAR 01DB
ENCODING 475
SWIDTH 780 0
DWIDTH 13 0
BBX 11 16 1 0
BITMAP
0C00
0000
1200
0000
E0E0
60C0
60C0
60C0
60C0
60C0
60C0
60C0
60C0
60C0
2180
1F00
ENDCHAR
STARTCHAR 01DC
ENCODING 476
SWIDTH 480 0
DWIDTH 8 0
BBX 6 15 1 0
BITMAP
60
20
20
00
48
48
00
CC
CC
CC
CC
CC
CC
CC
7C
ENDCHAR
STARTCHAR 01FA
ENCODING 506
SWIDTH 720 0
DWIDTH 12 0
BBX 11 18 0 0
BITMAP
0380
0300
0200
0700
0D80
0D80
0200
0200
0600
0B00
0900
1080
1080
1F80
2040
4040
4040
E060
ENDCHAR
STARTCHAR 01FB
ENCODING 507
SWIDTH 420 0
DWIDTH 7 0
BBX 6 16 1 0
BITMAP
18
10
20
00
38
58
30
00
70
D8
98
38
58
D8
D8
EC
ENDCHAR
STARTCHAR 01FC
ENCODING 508
SWIDTH 900 0
DWIDTH 15 0
BBX 14 16 0 0
BITMAP
0080
0180
0100
0000
07FC
0384
0584
0580
0988
09F8
1188
1F88
2180
2180
4184
C3FC
ENDCHAR
STARTCHAR 01FD
ENCODING 509
SWIDTH 720 0
DWIDTH 12 0
BBX 10 12 1 0
BITMAP
0400
0400
0800
0000
7B80
CCC0
0FC0
3C00
4C00
CC40
CE80
7780
ENDCHAR
STARTCHAR 01FE
ENCODING 510
SWIDTH 720 0
DWIDTH 12 0
BBX 11 16 1 -1
BITMAP
0600
0400
0000
0000
1F40
2080
40C0
C140
C240
C440
C860
C840
D040
60C0
6080
1F00
ENDCHAR
STARTCHAR 01FF
ENCODING 511
SWIDTH 540 0
DWIDTH 9 0
BBX 7 12 1 -1
BITMAP
18
10
00
00
3A
44
CE
D6
E6
E6
44
B8
ENDCHAR
STARTCHAR 0259
ENCODING 601
SWIDTH 480 0
DWIDTH 8 0
BBX 6 8 1 0
BITMAP
38
5C
8C
04
04
FC
C4
78
ENDCHAR
STARTCHAR 02C6
ENCODING 710
SWIDTH 360 0
DWIDTH 6 0
BBX 4 3 1 9
BITMAP
60
A0
10
ENDCHAR
STARTCHAR 02C7
ENCODING 711
SWIDTH 360 0
DWIDTH 6 0
BBX 4 3 1 9
BITMAP
10
A0
60
ENDCHAR
STARTCHAR 02C9
ENCODING 713
SWIDTH 420 0
DWIDTH 7 0
BBX 5 1 1 10
BITMAP
F8
ENDCHAR
STARTCHAR 02D8
ENCODING 728
SWIDTH 360 0
DWIDTH 6 0
BBX 4 2 1 9
BITMAP
10
E0
ENDCHAR
STARTCHAR 02D9
ENCODING 729
SWIDTH 300 0
DWIDTH 5 0
BBX 1 2 2 10
BITMAP
80
80
ENDCHAR
STARTCHAR 02DA
ENCODING 730
SWIDTH 300 0
DWIDTH 5 0
BBX 3 3 1 9
BITMAP
E0
E0
40
ENDCHAR
STARTCHAR 02DB
ENCODING 731
SWIDTH 360 0
DWIDTH 6 0
BBX 4 3 1 -2
BITMAP
C0
C0
70
ENDCHAR
STARTCHAR 02DC
ENCODING 732
SWIDTH 420 0
DWIDTH 7 0
BBX 5 2 1 9
BITMAP
E0
38
ENDCHAR
STARTCHAR 02DD
ENCODING 733
SWIDTH 360 0
DWIDTH 6 0
BBX 4 3 1 9
BITMAP
90
A0
20
ENDCHAR
STARTCHAR 0300
ENCODING 768
SWIDTH 0 0
DWIDTH 0 0
BBX 3 3 -4 13
BITMAP
C0
40
20
ENDCHAR
STARTCHAR 0301
ENCODING 769
SWIDTH 0 0
DWIDTH 0 0
BBX 2 2 -3 13
BITMAP
C0
80
ENDCHAR
STARTCHAR 0303
ENCODING 771
SWIDTH 0 0
DWIDTH 0 0
BBX 5 2 -6 12
BITMAP
E0
38
ENDCHAR
STARTCHAR 0309
ENCODING 777
SWIDTH 0 0
DWIDTH 0 0
BBX 2 3 -3 12
BITMAP
C0
40
80
ENDCHAR
STARTCHAR 0323
ENCODING 803
SWIDTH 0 0
DWIDTH 0 0
BBX 1 2 -7 -3
BITMAP
80
80
ENDCHAR
STARTCHAR 037E
ENCODING 894
SWIDTH 240 0
DWIDTH 4 0
BBX 3 10 0 -3
BITMAP
40
40
00
00
00
00
C0
E0
60
40
ENDCHAR
STARTCHAR 0384
ENCODING 900
SWIDTH 360 0
DWIDTH 6 0
BBX 2 3 2 9
BITMAP
40
80
80
ENDCHAR
STARTCHAR 0385
ENCODING 901
SWIDTH 360 0
DWIDTH 6 0
BBX 6 3 0 9
BITMAP
10
B4
A4
ENDCHAR
STARTCHAR 0386
ENCODING 902
SWIDTH 720 0
DWIDTH 12 0
BBX 11 12 0 0
BITMAP
2400
4600
4600
0A00
1300
1100
1100
1F80
2080
40C0
40C0
E0E0
ENDCHAR
STARTCHAR 0387
ENCODING 903
SWIDTH 240 0
DWIDTH 4 0
BBX 1 2 1 6
BITMAP
80
80
ENDCHAR
STARTCHAR 0388
ENCODING 904
SWIDTH 660 0
DWIDTH 11 0
BBX 13 12 -2 0
BITMAP
6FF0
4610
8600
0600
0660
07E0
0660
0620
0600
0608
0610
0FF0
ENDCHAR
STARTCHAR 0389
ENCODING 905
SWIDTH 780 0
DWIDTH 13 0
BBX 14 12 -2 0
BITMAP
6E1C
4618
8618
0618
0618
0618
07F8
0618
0618
0618
0618
0E1C
ENDCHAR
STARTCHAR 038A
ENCODING 906
SWIDTH 420 0
DWIDTH 7 0
BBX 7 12 -2 0
BITMAP
6E
46
86
06
06
06
06
06
06
06
06
0E
ENDCHAR
STARTCHAR 038C
ENCODING 908
SWIDTH 720 0
DWIDTH 12 0
BBX 12 12 0 0
BITMAP
CF00
90C0
2060
6020
6020
6020
6030
6020
6020
2060
1040
0F80
ENDCHAR
STARTCHAR 038E
ENCODING 910
SWIDTH 840 0
DWIDTH 14 0
BBX 14 12 -1 0
BITMAP
4E0C
8608
0610
0310
0320
01C0
00C0
00C0
00C0
00C0
00C0
01C0
ENDCHAR
STARTCHAR 038F
ENCODING 911
SWIDTH 780 0
DWIDTH 13 0
BBX 12 12 0 0
BITMAP
CF80
B040
2060
6020
6020
6030
6020
6020
2040
9880
F8F0
F8F0
ENDCHAR
STARTCHAR 0390
ENCODING 912
SWIDTH 240 0
DWIDTH 4 0
BBX 6 12 -1 0
BITMAP
10
A4
84
00
30
30
30
30
30
30
30
38
ENDCHAR
STARTCHAR 0391
ENCODING 913
SWIDTH 720 0
DWIDTH 12 0
BBX 11 12 0 0
BITMAP
0400
0600
0600
0A00
0B00
1100
1100
1F80
2080
40C0
40C0
E0E0
ENDCHAR
STARTCHAR 0392
ENCODING 914
SWIDTH 660 0
DWIDTH 11 0
BBX 9 12 1 0
BITMAP
FE00
6300
6100
6180
6100
6300
7E00
6100
6180
6180
6180
FE00
ENDCHAR
STARTCHAR 0393
ENCODING 915
SWIDTH 660 0
DWIDTH 11 0
BBX 10 12 1 0
BITMAP
FFC0
60C0
60C0
6000
6000
6000
6000
6000
6000
6000
6000
E000
ENDCHAR
STARTCHAR 0394
ENCODING 916
SWIDTH 660 0
DWIDTH 11 0
BBX 9 12 1 0
BITMAP
0800
0800
1C00
1C00
2400
2600
4200
4300
4300
8100
8180
FF80
ENDCHAR
STARTCHAR 0395
ENCODING 917
SWIDTH 600 0
DWIDTH 10 0
BBX 9 12 1 0
BITMAP
FF00
6100
6000
6000
6600
7E00
6600
6200
6000
6080
6100
FF00
ENDCHAR
STARTCHAR 0396
ENCODING 918
SWIDTH 600 0
DWIDTH 10 0
BBX 9 12 0 0
BITMAP
7F80
4100
0300
0600
0400
0C00
1800
1800
3000
6000
6080
FF80
ENDCHAR
STARTCHAR 0397
ENCODING 919
SWIDTH 720 0
DWIDTH 12 0
BBX 10 12 1 0
BITMAP
E1C0
6180
6180
6180
6180
6180
7F80
6180
6180
6180
6180
E1C0
ENDCHAR
STARTCHAR 0398
ENCODING 920
SWIDTH 720 0
DWIDTH 12 0
BBX 11 12 1 0
BITMAP
1E00
2180
40C0
C040
D1C0
DFC0
DBE0
D1C0
C040
40C0
2080
1F00
ENDCHAR
STARTCHAR 0399
ENCODING 921
SWIDTH 360 0
DWIDTH 6 0
BBX 3 12 1 0
BITMAP
E0
60
60
60
60
60
60
60
60
60
60
E0
ENDCHAR
STARTCHAR 039A
ENCODING 922
SWIDTH 720 0
DWIDTH 12 0
BBX 11 12 1 0
BITMAP
E180
6100
6200
6400
6800
7000
7800
6C00
6600
6300
6180
E1E0
ENDCHAR
STARTCHAR 039B
ENCODING 923
SWIDTH 660 0
DWIDTH 11 0
BBX 11 12 0 0
BITMAP
0400
0400
0C00
0E00
1200
1300
2300
2100
2180
4080
40C0
C1E0
ENDCHAR
STARTCHAR 039C
ENCODING 924
SWIDTH 900 0
DWIDTH 15 0
BBX 13 12 1 0
BITMAP
E038
7030
7030
7870
6870
68B0
6CB0
6530
6730
6730
6230
E238
ENDCHAR
STARTCHAR 039D
ENCODING 925
SWIDTH 720 0
DWIDTH 12 0
BBX 10 12 1 0
BITMAP
E1C0
6180
7180
7180
6980
6D80
6580
6380
6380
6180
6180
E080
ENDCHAR
STARTCHAR 039E
ENCODING 926
SWIDTH 720 0
DWIDTH 12 0
BBX 10 12 1 0
BITMAP
3FC0
20C0
4040
0000
2180
2180
3F80
2180
C000
C040
FFC0
FFC0
ENDCHAR
STARTCHAR 039F
ENCODING 927
SWIDTH 720 0
DWIDTH 12 0
BBX 11 12 1 0
BITMAP
1E00
2180
40C0
C040
C040
C040
C060
C040
C040
40C0
2080
1F00
ENDCHAR
STARTCHAR 03A0
ENCODING 928
SWIDTH 720 0
DWIDTH 12 0
BBX 10 12 1 0
BITMAP
FFC0
6180
6180
6180
6180
6180
6180
6180
6180
6180
6180
E1C0
ENDCHAR
STARTCHAR 03A1
ENCODING 929
SWIDTH 540 0
DWIDTH 9 0
BBX 8 12 1 0
BITMAP
FC
66
62
63
62
66
7C
60
60
60
60
E0
ENDCHAR
STARTCHAR 03A3
ENCODING 931
SWIDTH 600 0
DWIDTH 10 0
BBX 9 12 1 0
BITMAP
FF00
6100
3000
3000
1800
0C00
0800
1000
2080
2080
7F80
FF00
ENDCHAR
STARTCHAR 03A4
ENCODING 932
SWIDTH 660 0
DWIDTH 11 0
BBX 10 12 1 0
BITMAP
FFC0
8C40
0C40
0C00
0C00
0C00
0C00
0C00
0C00
0C00
0C00
1C00
ENDCHAR
STARTCHAR 03A5
ENCODING 933
SWIDTH 720 0
DWIDTH 12 0
BBX 10 12 1 0
BITMAP
E0C0
6080
6100
3100
3200
1C00
0C00
0C00
0C00
0C00
0C00
1C00
ENDCHAR
STARTCHAR 03A6
ENCODING 934
SWIDTH 780 0
DWIDTH 13 0
BBX 11 12 1 0
BITMAP
0E00
0600
1F00
66C0
C660
C660
C660
C660
4660
6640
1F80
0E00
ENDCHAR
STARTCHAR 03A7
ENCODING 935
SWIDTH 720 0
DWIDTH 12 0
BBX 11 12 0 0
BITMAP
70C0
3080
1880
0900
0E00
0600
0600
0B00
1100
1180
20C0
E0E0
ENDCHAR
STARTCHAR 03A8
ENCODING 936
SWIDTH 720 0
DWIDTH 12 0
BBX 11 12 1 0
BITMAP
8E60
8C40
8CC0
CCC0
CCC0
4C80
3F00
0C00
0C00
0C00
0C00
0E00
ENDCHAR
STARTCHAR 03A9
ENCODING 937
SWIDTH 780 0
DWIDTH 13 0
BBX 12 12 0 0
BITMAP
0F80
3040
2060
6020
6020
6030
6020
6020
2040
9880
F8F0
F8F0
ENDCHAR
STARTCHAR 03AA
ENCODING 938
SWIDTH 360 0
DWIDTH 6 0
BBX 4 15 1 0
BITMAP
90
90
00
70
60
60
60
60
60
60
60
60
60
60
70
ENDCHAR
STARTCHAR 03AB
ENCODING 939
SWIDTH 720 0
DWIDTH 12 0
BBX 10 15 1 0
BITMAP
1200
1200
0000
E0C0
6080
3100
3100
1A00
0A00
0C00
0C00
0C00
0C00
0C00
0E00
ENDCHAR
STARTCHAR 03AC
ENCODING 940
SWIDTH 600 0
DWIDTH 10 0
BBX 8 12 1 0
BITMAP
10
10
00
00
74
D4
CC
C8
C8
C8
CB
76
ENDCHAR
STARTCHAR 03AD
ENCODING 941
SWIDTH 480 0
DWIDTH 8 0
BBX 6 12 1 0
BITMAP
18
10
00
00
7C
44
40
38
C0
C4
C4
78
ENDCHAR
STARTCHAR 03AE
ENCODING 942
SWIDTH 540 0
DWIDTH 9 0
BBX 8 16 0 -4
BITMAP
04
08
08
00
66
BB
33
33
33
33
33
33
03
03
01
01
ENDCHAR
STARTCHAR 03AF
ENCODING 943
SWIDTH 300 0
DWIDTH 5 0
BBX 3 12 2 0
BITMAP
40
C0
80
00
C0
C0
C0
C0
C0
C0
C0
E0
ENDCHAR
STARTCHAR 03B0
ENCODING 944
SWIDTH 480 0
DWIDTH 8 0
BBX 8 12 0 0
BITMAP
08
6A
72
00
E4
62
62
63
62
22
22
1C
ENDCHAR
STARTCHAR 03B1
ENCODING 945
SWIDTH 600 0
DWIDTH 10 0
BBX 8 8 1 0
BITMAP
74
D4
CC
C8
C8
C8
CB
76
ENDCHAR
STARTCHAR 03B2
ENCODING 946
SWIDTH 480 0
DWIDTH 8 0
BBX 7 16 1 -4
BITMAP
78
CC
CC
CC
CC
F0
CC
C4
C6
C4
C4
F8
C0
C0
80
80
ENDCHAR
STARTCHAR 03B3
ENCODING 947
SWIDTH 420 0
DWIDTH 7 0
BBX 7 12 0 -4
BITMAP
66
E4
E4
24
18
18
10
10
10
10
30
10
ENDCHAR
STARTCHAR 03B4
ENCODING 948
SWIDTH 480 0
DWIDTH 8 0
BBX 6 12 1 0
BITMAP
38
64
60
30
08
3C
64
E4
E4
E4
E4
78
ENDCHAR
STARTCHAR 03B5
ENCODING 949
SWIDTH 480 0
DWIDTH 8 0
BBX 6 8 1 0
BITMAP
7C
44
40
38
C0
C4
C4
78
ENDCHAR
STARTCHAR 03B6
ENCODING 950
SWIDTH 480 0
DWIDTH 8 0
BBX 6 16 1 -3
BITMAP
04
48
30
20
40
40
C0
C0
C0
C0
F8
7C
0C
0C
0C
18
ENDCHAR
STARTCHAR 03B7
ENCODING 951
SWIDTH 540 0
DWIDTH 9 0
BBX 8 12 0 -4
BITMAP
66
BB
33
33
33
33
33
33
03
03
01
01
ENDCHAR
STARTCHAR 03B8
ENCODING 952
SWIDTH 480 0
DWIDTH 8 0
BBX 7 12 1 0
BITMAP
38
48
44
C4
C4
FE
C6
C4
C4
44
48
38
ENDCHAR
STARTCHAR 03B9
ENCODING 953
SWIDTH 300 0
DWIDTH 5 0
BBX 3 8 2 0
BITMAP
C0
C0
C0
C0
C0
C0
C0
E0
ENDCHAR
STARTCHAR 03BA
ENCODING 954
SWIDTH 540 0
DWIDTH 9 0
BBX 7 8 1 0
BITMAP
C6
D8
E0
E0
F0
D0
D8
CC
ENDCHAR
STARTCHAR 03BB
ENCODING 955
SWIDTH 540 0
DWIDTH 9 0
BBX 8 12 1 0
BITMAP
60
E0
D0
10
10
10
10
30
28
69
66
C6
ENDCHAR
STARTCHAR 03BC
ENCODING 956
SWIDTH 540 0
DWIDTH 9 0
BBX 8 12 1 -4
BITMAP
C6
C6
C6
C6
C6
C6
CE
F7
C0
C0
C0
80
ENDCHAR
STARTCHAR 03BD
ENCODING 957
SWIDTH 480 0
DWIDTH 8 0
BBX 6 8 1 0
BITMAP
84
C4
44
48
68
30
30
20
ENDCHAR
STARTCHAR 03BE
ENCODING 958
SWIDTH 540 0
DWIDTH 9 0
BBX 7 16 1 -4
BITMAP
0C
30
20
20
3C
20
40
C0
C0
C0
F8
7E
06
06
06
18
ENDCHAR
STARTCHAR 03BF
ENCODING 959
SWIDTH 540 0
DWIDTH 9 0
BBX 7 8 1 0
BITMAP
38
44
C6
C6
C6
C6
44
38
ENDCHAR
STARTCHAR 03C0
ENCODING 960
SWIDTH 540 0
DWIDTH 9 0
BBX 8 8 1 0
BITMAP
FF
AC
2C
2C
4C
4C
CC
CE
ENDCHAR
STARTCHAR 03C1
ENCODING 961
SWIDTH 540 0
DWIDTH 9 0
BBX 7 12 1 -4
BITMAP
38
4C
C6
C6
C6
C6
C4
F8
C0
C0
80
80
ENDCHAR
STARTCHAR 03C2
ENCODING 962
SWIDTH 480 0
DWIDTH 8 0
BBX 6 12 1 -4
BITMAP
3C
64
40
C0
C0
C0
F8
7C
0C
0C
0C
18
ENDCHAR
STARTCHAR 03C3
ENCODING 963
SWIDTH 600 0
DWIDTH 10 0
BBX 8 8 1 0
BITMAP
3F
68
C6
C2
C2
C2
42
3C
ENDCHAR
STARTCHAR 03C4
ENCODING 964
SWIDTH 420 0
DWIDTH 7 0
BBX 6 8 0 0
BITMAP
7C
90
30
30
30
30
30
38
ENDCHAR
STARTCHAR 03C5
ENCODING 965
SWIDTH 540 0
DWIDTH 9 0
BBX 8 8 0 0
BITMAP
66
A2
33
33
33
33
32
1C
ENDCHAR
STARTCHAR 03C6
ENCODING 966
SWIDTH 600 0
DWIDTH 10 0
BBX 9 12 1 -4
BITMAP
2E00
4B00
D900
D900
D980
D900
5900
7A00
1C00
1800
1800
1800
ENDCHAR
STARTCHAR 03C7
ENCODING 967
SWIDTH 540 0
DWIDTH 9 0
BBX 10 12 0 -4
BITMAP
6200
9200
9600
1400
0C00
0800
1800
1800
3800
28C0
6580
4380
ENDCHAR
STARTCHAR 03C8
ENCODING 968
SWIDTH 660 0
DWIDTH 11 0
BBX 9 12 1 -4
BITMAP
8980
C980
4900
4900
4900
4900
2B00
2A00
1C00
0800
0800
0800
ENDCHAR
STARTCHAR 03C9
ENCODING 969
SWIDTH 660 0
DWIDTH 11 0
BBX 10 8 1 0
BITMAP
2300
4180
C880
CC80
C8C0
C880
C880
7700
ENDCHAR
STARTCHAR 03CA
ENCODING 970
SWIDTH 300 0
DWIDTH 5 0
BBX 4 11 0 0
BITMAP
90
90
00
60
60
60
60
60
60
60
30
ENDCHAR
STARTCHAR 03CB
ENCODING 971
SWIDTH 540 0
DWIDTH 9 0
BBX 8 11 0 0
BITMAP
24
24
00
66
A2
33
33
33
33
32
1C
ENDCHAR
STARTCHAR 03CC
ENCODING 972
SWIDTH 540 0
DWIDTH 9 0
BBX 7 12 1 0
BITMAP
18
10
00
00
38
44
C6
C6
C6
C6
44
38
ENDCHAR
STARTCHAR 03CD
ENCODING 973
SWIDTH 540 0
DWIDTH 9 0
BBX 8 12 0 0
BITMAP
0C
08
00
00
66
A2
33
33
33
33
32
1C
ENDCHAR
STARTCHAR 03CE
ENCODING 974
SWIDTH 660 0
DWIDTH 11 0
BBX 10 12 1 0
BITMAP
0400
0800
0800
0000
2300
4180
C880
CC80
C8C0
C880
C880
7700
ENDCHAR
STARTCHAR 0401
ENCODING 1025
SWIDTH 600 0
DWIDTH 10 0
BBX 9 15 1 0
BITMAP
2400
2400
0000
FF00
6100
6000
6000
6200
7E00
6200
6200
6000
6080
6100
FF00
ENDCHAR
STARTCHAR 0402
ENCODING 1026
SWIDTH 780 0
DWIDTH 13 0
BBX 12 12 0 0
BITMAP
FF80
8C80
8C00
0C00
0DC0
0E60
0C30
0C30
0C30
0C30
0C20
1C20
ENDCHAR
STARTCHAR 0403
ENCODING 1027
SWIDTH 660 0
DWIDTH 11 0
BBX 10 16 1 0
BITMAP
0C00
0800
1000
0000
FFC0
60C0
60C0
6000
6000
6000
6000
6000
6000
6000
6000
E000
ENDCHAR
STARTCHAR 0404
ENCODING 1028
SWIDTH 720 0
DWIDTH 12 0
BBX 10 12 1 0
BITMAP
1FC0
20C0
4040
4040
C000
FC00
C000
C000
C000
4040
2080
1F00
ENDCHAR
STARTCHAR 0405
ENCODING 1029
SWIDTH 540 0
DWIDTH 9 0
BBX 7 12 1 0
BITMAP
7E
C6
C2
C2
E0
78
1C
06
02
82
82
FC
ENDCHAR
STARTCHAR 0406
ENCODING 1030
SWIDTH 360 0
DWIDTH 6 0
BBX 3 12 1 0
BITMAP
E0
60
60
60
60
60
60
60
60
60
60
E0
ENDCHAR
STARTCHAR 0407
ENCODING 1031
SWIDTH 360 0
DWIDTH 6 0
BBX 4 15 1 0
BITMAP
90
90
00
70
60
60
60
60
60
60
60
60
60
60
70
ENDCHAR
STARTCHAR 0408
ENCODING 1032
SWIDTH 420 0
DWIDTH 7 0
BBX 5 12 1 0
BITMAP
38
18
18
18
18
18
18
18
10
10
D0
E0
ENDCHAR
STARTCHAR 0409
ENCODING 1033
SWIDTH 900 0
DWIDTH 15 0
BBX 13 12 1 0
BITMAP
3F80
1980
1980
1980
1980
11E0
1190
1198
1198
1198
A190
C1E0
ENDCHAR
STARTCHAR 040A
ENCODING 1034
SWIDTH 900 0
DWIDTH 15 0
BBX 13 12 1 0
BITMAP
E380
6300
6300
6300
6300
6300
7FE0
6318
6318
6318
6318
63E0
ENDCHAR
STARTCHAR 040B
ENCODING 1035
SWIDTH 780 0
DWIDTH 13 0
BBX 11 12 0 0
BITMAP
FF80
8C80
8C00
0C00
0DC0
0E60
0C60
0C60
0C60
0C60
0C60
1C60
ENDCHAR
STARTCHAR 040C
ENCODING 1036
SWIDTH 660 0
DWIDTH 11 0
BBX 10 16 1 0
BITMAP
0400
0C00
0800
0000
F1C0
6280
6200
6400
6400
6800
7800
6C00
6600
6600
6300
E180
ENDCHAR
STARTCHAR 040E
ENCODING 1038
SWIDTH 720 0
DWIDTH 12 0
BBX 10 16 1 0
BITMAP
0100
3300
0C00
0000
E1C0
6080
6100
3100
3100
1A00
1A00
0C00
0400
0400
2800
3000
ENDCHAR
STARTCHAR 040F
ENCODING 1039
SWIDTH 720 0
DWIDTH 12 0
BBX 10 16 1 -4
BITMAP
F1C0
6180
6180
6180
6180
6180
6180
6180
6180
6180
6180
FFC0
0E00
0600
0600
0600
ENDCHAR
STARTCHAR 0410
ENCODING 1040
SWIDTH 720 0
DWIDTH 12 0
BBX 11 12 0 0
BITMAP
0400
0600
0600
0A00
0B00
1100
1100
1F80
2080
40C0
40C0
E0E0
ENDCHAR
STARTCHAR 0411
ENCODING 1041
SWIDTH 600 0
DWIDTH 10 0
BBX 8 12 1 0
BITMAP
FE
62
60
60
60
7C
62
63
63
63
62
FC
ENDCHAR
STARTCHAR 0412
ENCODING 1042
SWIDTH 660 0
DWIDTH 11 0
BBX 9 12 1 0
BITMAP
FE00
6300
6100
6180
6100
6300
7E00
6100
6180
6180
6180
FE00
ENDCHAR
STARTCHAR 0413
ENCODING 1043
SWIDTH 660 0
DWIDTH 11 0
BBX 10 12 1 0
BITMAP
FFC0
60C0
60C0
6000
6000
6000
6000
6000
6000
6000
6000
E000
ENDCHAR
STARTCHAR 0414
ENCODING 1044
SWIDTH 780 0
DWIDTH 13 0
BBX 11 15 1 -4
BITMAP
3FC0
3180
3180
3180
3180
3180
3180
2180
2180
2180
4180
7F80
C060
8020
8020
ENDCHAR
STARTCHAR 0415
ENCODING 1045
SWIDTH 600 0
DWIDTH 10 0
BBX 9 12 1 0
BITMAP
FF00
6100
6000
6000
6600
7E00
6600
6200
6000
6080
6100
FF00
ENDCHAR
STARTCHAR 0416
ENCODING 1046
SWIDTH 900 0
DWIDTH 15 0
BBX 14 12 1 0
BITMAP
C79C
A32C
2320
1320
1340
1340
0F80
1B40
1360
3320
6330
E718
ENDCHAR
STARTCHAR 0417
ENCODING 1047
SWIDTH 480 0
DWIDTH 8 0
BBX 7 12 1 0
BITMAP
F8
84
84
04
0C
30
0C
04
06
04
8C
78
ENDCHAR
STARTCHAR 0418
ENCODING 1048
SWIDTH 720 0
DWIDTH 12 0
BBX 10 12 1 0
BITMAP
E1C0
6180
6180
6380
6580
6580
6980
7180
7180
6180
6180
E1C0
ENDCHAR
STARTCHAR 0419
ENCODING 1049
SWIDTH 720 0
DWIDTH 12 0
BBX 10 15 1 1
BITMAP
2100
3300
0C00
E1C0
6180
6180
6380
6580
6580
6980
7180
7180
6180
6180
E1C0
ENDCHAR
STARTCHAR 041A
ENCODING 1050
SWIDTH 660 0
DWIDTH 11 0
BBX 10 12 1 0
BITMAP
F1C0
6280
6200
6400
6400
6800
7800
6C00
6600
6600
6300
E180
ENDCHAR
STARTCHAR 041B
ENCODING 1051
SWIDTH 660 0
DWIDTH 11 0
BBX 9 12 1 0
BITMAP
3F80
1980
1980
1980
1980
1180
1180
1180
1180
1180
A180
C380
ENDCHAR
STARTCHAR 041C
ENCODING 1052
SWIDTH 900 0
DWIDTH 15 0
BBX 13 12 1 0
BITMAP
E038
7030
7030
7870
6870
68B0
6CB0
6530
6730
6730
6230
E238
ENDCHAR
STARTCHAR 041D
ENCODING 1053
SWIDTH 720 0
DWIDTH 12 0
BBX 10 12 1 0
BITMAP
E1C0
6180
6180
6180
6180
6180
7F80
6180
6180
6180
6180
E1C0
ENDCHAR
STARTCHAR 041E
ENCODING 1054
SWIDTH 720 0
DWIDTH 12 0
BBX 11 12 1 0
BITMAP
1E00
2180
40C0
C040
C040
C040
C060
C040
C040
40C0
2080
1F00
ENDCHAR
STARTCHAR 041F
ENCODING 1055
SWIDTH 720 0
DWIDTH 12 0
BBX 10 12 1 0
BITMAP
FFC0
6180
6180
6180
6180
6180
6180
6180
6180
6180
6180
E1C0
ENDCHAR
STARTCHAR 0420
ENCODING 1056
SWIDTH 540 0
DWIDTH 9 0
BBX 8 12 1 0
BITMAP
FC
66
62
63
62
66
7C
60
60
60
60
E0
ENDCHAR
STARTCHAR 0421
ENCODING 1057
SWIDTH 660 0
DWIDTH 11 0
BBX 10 12 1 0
BITMAP
1F40
20C0
4040
C040
C000
C000
C000
C000
C000
4040
2080
1F00
ENDCHAR
STARTCHAR 0422
ENCODING 1058
SWIDTH 660 0
DWIDTH 11 0
BBX 10 12 1 0
BITMAP
FFC0
8C40
0C40
0C00
0C00
0C00
0C00
0C00
0C00
0C00
0C00
1C00
ENDCHAR
STARTCHAR 0423
ENCODING 1059
SWIDTH 720 0
DWIDTH 12 0
BBX 10 12 1 0
BITMAP
E0C0
6080
3080
3080
1900
1900
0E00
0E00
0600
0400
2400
3800
ENDCHAR
STARTCHAR 0424
ENCODING 1060
SWIDTH 780 0
DWIDTH 13 0
BBX 12 12 1 0
BITMAP
0F00
0600
1F80
6640
C620
C620
C630
C620
C620
6640
1F80
0600
ENDCHAR
STARTCHAR 0425
ENCODING 1061
SWIDTH 720 0
DWIDTH 12 0
BBX 11 12 0 0
BITMAP
70C0
3080
1880
0900
0E00
0600
0600
0B00
1100
1180
20C0
E0E0
ENDCHAR
STARTCHAR 0426
ENCODING 1062
SWIDTH 780 0
DWIDTH 13 0
BBX 11 15 1 -4
BITMAP
E1C0
6180
6180
6180
6180
6180
6180
6180
6180
6180
6180
7F80
8060
0020
0020
ENDCHAR
STARTCHAR 0427
ENCODING 1063
SWIDTH 660 0
DWIDTH 11 0
BBX 9 12 1 0
BITMAP
E380
6180
6180
6180
6180
6180
6380
3D80
0180
0180
0180
0380
ENDCHAR
STARTCHAR 0428
ENCODING 1064
SWIDTH 1020 0
DWIDTH 17 0
BBX 15 12 1 0
BITMAP
E38E
6186
6186
6186
6186
6186
6186
6186
6186
6186
6186
FFFE
ENDCHAR
STARTCHAR 0429
ENCODING 1065
SWIDTH 1020 0
DWIDTH 17 0
BBX 16 16 1 -4
BITMAP
E38E
618C
618C
618C
618C
618C
618C
618C
618C
618C
618C
7FFC
0007
0003
0001
0001
ENDCHAR
STARTCHAR 042A
ENCODING 1066
SWIDTH 720 0
DWIDTH 12 0
BBX 11 12 0 0
BITMAP
FE00
8C00
8C00
0C00
0C00
0F80
0C40
0C60
0C60
0C60
0C40
1F80
ENDCHAR
STARTCHAR 042B
ENCODING 1067
SWIDTH 840 0
DWIDTH 14 0
BBX 12 12 1 0
BITMAP
F070
6030
6030
6030
6030
7C30
6230
6330
6330
6330
6230
FC30
ENDCHAR
STARTCHAR 042C
ENCODING 1068
SWIDTH 600 0
DWIDTH 10 0
BBX 8 12 1 0
BITMAP
F0
60
60
60
60
7C
62
63
63
63
62
FC
ENDCHAR
STARTCHAR 042D
ENCODING 1069
SWIDTH 660 0
DWIDTH 11 0
BBX 10 12 1 0
BITMAP
FC00
C300
8100
8080
0080
0FC0
0080
0080
0080
8180
8300
7C00
ENDCHAR
STARTCHAR 042E
ENCODING 1070
SWIDTH 1020 0
DWIDTH 17 0
BBX 17 12 0 0
BITMAP
F87800
308600
310300
330100
330100
3F0100
330180
330100
330100
310300
308200
704C00
ENDCHAR
STARTCHAR 042F
ENCODING 1071
SWIDTH 660 0
DWIDTH 11 0
BBX 10 12 0 0
BITMAP
0FC0
1180
3180
3180
3180
1180
0F80
0D80
1980
3180
3180
E1C0
ENDCHAR
STARTCHAR 0430
ENCODING 1072
SWIDTH 480 0
DWIDTH 8 0
BBX 6 8 1 0
BITMAP
78
C8
8C
3C
4C
CC
CC
7C
ENDCHAR
STARTCHAR 0431
ENCODING 1073
SWIDTH 540 0
DWIDTH 9 0
BBX 7 12 1 0
BITMAP
3E
70
40
C0
DC
E6
E2
E2
E2
E2
62
3C
ENDCHAR
STARTCHAR 0432
ENCODING 1074
SWIDTH 480 0
DWIDTH 8 0
BBX 7 8 0 0
BITMAP
7C
64
64
78
66
66
66
FC
ENDCHAR
STARTCHAR 0433
ENCODING 1075
SWIDTH 420 0
DWIDTH 7 0
BBX 6 8 0 0
BITMAP
7C
60
60
60
60
60
60
E0
ENDCHAR
STARTCHAR 0434
ENCODING 1076
SWIDTH 600 0
DWIDTH 10 0
BBX 10 10 0 -2
BITMAP
3F80
1B00
1300
1300
1300
3300
2300
7F80
81C0
80C0
ENDCHAR
STARTCHAR 0435
ENCODING 1077
SWIDTH 480 0
DWIDTH 8 0
BBX 6 8 1 0
BITMAP
38
44
FC
C0
C0
C0
7C
38
ENDCHAR
STARTCHAR 0436
ENCODING 1078
SWIDTH 780 0
DWIDTH 13 0
BBX 11 8 1 0
BITMAP
CE60
2C80
2D00
1F00
2D80
6C80
6CC0
CE60
ENDCHAR
STARTCHAR 0437
ENCODING 1079
SWIDTH 420 0
DWIDTH 7 0
BBX 5 8 1 0
BITMAP
F8
88
08
30
08
08
08
78
ENDCHAR
STARTCHAR 0438
ENCODING 1080
SWIDTH 540 0
DWIDTH 9 0
BBX 7 8 0 0
BITMAP
66
66
66
6E
76
66
66
E6
ENDCHAR
STARTCHAR 0439
ENCODING 1081
SWIDTH 540 0
DWIDTH 9 0
BBX 7 12 0 0
BITMAP
44
6C
38
00
66
66
66
6E
76
66
66
E6
ENDCHAR
STARTCHAR 043A
ENCODING 1082
SWIDTH 480 0
DWIDTH 8 0
BBX 7 8 0 0
BITMAP
66
68
68
70
68
6C
64
E6
ENDCHAR
STARTCHAR 043B
ENCODING 1083
SWIDTH 480 0
DWIDTH 8 0
BBX 7 8 0 0
BITMAP
7E
36
36
36
36
26
A6
C6
ENDCHAR
STARTCHAR 043C
ENCODING 1084
SWIDTH 600 0
DWIDTH 10 0
BBX 9 8 0 0
BITMAP
6180
7380
7380
7580
6D80
6D80
6980
E980
ENDCHAR
STARTCHAR 043D
ENCODING 1085
SWIDTH 540 0
DWIDTH 9 0
BBX 7 8 0 0
BITMAP
66
66
66
7E
66
66
66
E6
ENDCHAR
STARTCHAR 043E
ENCODING 1086
SWIDTH 540 0
DWIDTH 9 0
BBX 7 8 1 0
BITMAP
38
44
C6
C6
C6
C6
44
38
ENDCHAR
STARTCHAR 043F
ENCODING 1087
SWIDTH 540 0
DWIDTH 9 0
BBX 7 8 0 0
BITMAP
7E
66
66
66
66
66
66
E6
ENDCHAR
STARTCHAR 0440
ENCODING 1088
SWIDTH 480 0
DWIDTH 8 0
BBX 7 12 1 -4
BITMAP
D8
EC
C4
C6
C4
C4
C4
F8
C0
C0
C0
C0
ENDCHAR
STARTCHAR 0441
ENCODING 1089
SWIDTH 480 0
DWIDTH 8 0
BBX 6 8 1 0
BITMAP
38
4C
C0
C0
C0
C4
64
38
ENDCHAR
STARTCHAR 0442
ENCODING 1090
SWIDTH 420 0
DWIDTH 7 0
BBX 7 8 0 0
BITMAP
FE
98
18
18
18
18
18
38
ENDCHAR
STARTCHAR 0443
ENCODING 1091
SWIDTH 540 0
DWIDTH 9 0
BBX 7 12 1 -4
BITMAP
C2
42
64
24
28
38
18
10
10
10
E0
C0
ENDCHAR
STARTCHAR 0444
ENCODING 1092
SWIDTH 660 0
DWIDTH 11 0
BBX 10 16 1 -4
BITMAP
0C00
0C00
0C00
0C00
7F00
4C80
CC80
CC80
CCC0
CC80
4C80
7F00
0C00
0C00
0C00
1C00
ENDCHAR
STARTCHAR 0445
ENCODING 1093
SWIDTH 480 0
DWIDTH 8 0
BBX 6 8 1 0
BITMAP
CC
48
70
30
30
58
8C
8C
ENDCHAR
STARTCHAR 0446
ENCODING 1094
SWIDTH 540 0
DWIDTH 9 0
BBX 8 10 0 -2
BITMAP
66
66
66
66
66
66
66
FF
03
01
ENDCHAR
STARTCHAR 0447
ENCODING 1095
SWIDTH 480 0
DWIDTH 8 0
BBX 6 8 1 0
BITMAP
CC
CC
CC
CC
FC
0C
0C
0C
ENDCHAR
STARTCHAR 0448
ENCODING 1096
SWIDTH 720 0
DWIDTH 12 0
BBX 11 8 0 0
BITMAP
6660
6660
6660
6660
6660
6660
6660
FFE0
ENDCHAR
STARTCHAR 0449
ENCODING 1097
SWIDTH 780 0
DWIDTH 13 0
BBX 12 10 0 -2
BITMAP
6660
6660
6660
6660
6660
6660
6660
FFF0
0030
0010
ENDCHAR
STARTCHAR 044A
ENCODING 1098
SWIDTH 480 0
DWIDTH 8 0
BBX 8 8 0 0
BITMAP
F0
30
30
3C
32
33
32
7C
ENDCHAR
STARTCHAR 044B
ENCODING 1099
SWIDTH 660 0
DWIDTH 11 0
BBX 10 8 0 0
BITMAP
61C0
60C0
60C0
78C0
64C0
66C0
64C0
F8C0
ENDCHAR
STARTCHAR 044C
ENCODING 1100
SWIDTH 420 0
DWIDTH 7 0
BBX 7 8 0 0
BITMAP
60
60
60
78
64
66
64
F8
ENDCHAR
STARTCHAR 044D
ENCODING 1101
SWIDTH 420 0
DWIDTH 7 0
BBX 6 8 0 0
BITMAP
F8
8C
04
3C
04
04
8C
78
ENDCHAR
STARTCHAR 044E
ENCODING 1102
SWIDTH 720 0
DWIDTH 12 0
BBX 11 8 0 0
BITMAP
E3C0
6460
6C20
7C20
6C20
6C20
6420
6240
ENDCHAR
STARTCHAR 044F
ENCODING 1103
SWIDTH 480 0
DWIDTH 8 0
BBX 5 8 1 0
BITMAP
78
D8
D8
D8
38
78
D8
98
ENDCHAR
STARTCHAR 0451
ENCODING 1105
SWIDTH 480 0
DWIDTH 8 0
BBX 6 12 1 0
BITMAP
48
48
00
00
38
4C
FC
C0
C0
C0
7C
38
ENDCHAR
STARTCHAR 0452
ENCODING 1106
SWIDTH 420 0
DWIDTH 7 0
BBX 7 16 0 -4
BITMAP
60
60
F8
60
7C
64
64
64
66
66
64
E4
04
04
08
10
ENDCHAR
STARTCHAR 0453
ENCODING 1107
SWIDTH 420 0
DWIDTH 7 0
BBX 6 12 0 0
BITMAP
18
10
20
00
7C
60
60
60
60
60
60
E0
ENDCHAR
STARTCHAR 0454
ENCODING 1108
SWIDTH 480 0
DWIDTH 8 0
BBX 6 8 1 0
BITMAP
3C
44
C0
F0
C0
C0
40
3C
ENDCHAR
STARTCHAR 0455
ENCODING 1109
SWIDTH 420 0
DWIDTH 7 0
BBX 5 8 1 0
BITMAP
70
D0
C0
E0
38
18
98
F0
ENDCHAR
STARTCHAR 0456
ENCODING 1110
SWIDTH 300 0
DWIDTH 5 0
BBX 2 12 2 0
BITMAP
80
80
00
00
C0
C0
C0
C0
C0
C0
C0
C0
ENDCHAR
STARTCHAR 0457
ENCODING 1111
SWIDTH 360 0
DWIDTH 6 0
BBX 4 12 1 0
BITMAP
90
90
00
00
20
60
60
60
60
60
60
60
ENDCHAR
STARTCHAR 0458
ENCODING 1112
SWIDTH 300 0
DWIDTH 5 0
BBX 5 16 -1 -4
BITMAP
10
10
00
00
18
18
18
18
18
18
18
18
18
10
90
E0
ENDCHAR
STARTCHAR 0459
ENCODING 1113
SWIDTH 720 0
DWIDTH 12 0
BBX 12 8 0 0
BITMAP
3F00
1B00
1B00
1BC0
1B20
1330
9320
E3C0
ENDCHAR
STARTCHAR 045A
ENCODING 1114
SWIDTH 720 0
DWIDTH 12 0
BBX 11 8 0 0
BITMAP
6600
6600
6600
7F80
6660
6660
6660
E7C0
ENDCHAR
STARTCHAR 045B
ENCODING 1115
SWIDTH 480 0
DWIDTH 8 0
BBX 7 12 0 0
BITMAP
60
60
FC
60
6C
76
66
66
66
66
66
E6
ENDCHAR
STARTCHAR 045C
ENCODING 1116
SWIDTH 480 0
DWIDTH 8 0
BBX 7 12 0 0
BITMAP
08
10
10
00
66
68
68
70
68
6C
64
E6
ENDCHAR
STARTCHAR 045E
ENCODING 1118
SWIDTH 480 0
DWIDTH 8 0
BBX 7 16 1 -4
BITMAP
44
6C
38
00
C6
44
44
24
28
38
10
10
10
20
E0
C0
ENDCHAR
STARTCHAR 045F
ENCODING 1119
SWIDTH 540 0
DWIDTH 9 0
BBX 7 9 0 -2
BITMAP
66
66
66
66
66
66
66
FE
18
ENDCHAR
STARTCHAR 0490
ENCODING 1168
SWIDTH 540 0
DWIDTH 9 0
BBX 8 14 1 0
BITMAP
03
03
FF
60
60
60
60
60
60
60
60
60
60
E0
ENDCHAR
STARTCHAR 0491
ENCODING 1169
SWIDTH 360 0
DWIDTH 6 0
BBX 5 9 1 0
BITMAP
08
F8
C0
C0
C0
C0
C0
C0
C0
ENDCHAR
STARTCHAR 0492
ENCODING 1170
SWIDTH 660 0
DWIDTH 11 0
BBX 11 12 0 0
BITMAP
7FE0
3060
3060
3000
3000
FE00
3000
3000
3000
3000
3000
7800
ENDCHAR
STARTCHAR 0493
ENCODING 1171
SWIDTH 420 0
DWIDTH 7 0
BBX 6 8 0 0
BITMAP
7C
60
60
F0
60
60
60
E0
ENDCHAR
STARTCHAR 0496
ENCODING 1174
SWIDTH 960 0
DWIDTH 16 0
BBX 14 16 1 -4
BITMAP
C718
A328
2320
1340
1340
1340
0F80
1BC0
1360
3360
6330
E738
001C
000C
000C
000C
ENDCHAR
STARTCHAR 0497
ENCODING 1175
SWIDTH 720 0
DWIDTH 12 0
BBX 10 10 1 -2
BITMAP
DCC0
4D00
2E00
3E00
6F00
4D00
4D80
DD80
00C0
00C0
ENDCHAR
STARTCHAR 049A
ENCODING 1178
SWIDTH 780 0
DWIDTH 13 0
BBX 12 16 1 -4
BITMAP
F1C0
6280
6200
6400
6400
6800
7800
6C00
6600
6300
6380
E1E0
0070
0070
0030
0030
ENDCHAR
STARTCHAR 049B
ENCODING 1179
SWIDTH 540 0
DWIDTH 9 0
BBX 8 10 0 -3
BITMAP
66
68
70
70
78
6C
6C
E6
03
01
ENDCHAR
STARTCHAR 049C
ENCODING 1180
SWIDTH 660 0
DWIDTH 11 0
BBX 9 12 1 0
BITMAP
E180
6280
6400
7400
7400
7800
7000
7800
7C00
7600
6300
E180
ENDCHAR
STARTCHAR 049D
ENCODING 1181
SWIDTH 480 0
DWIDTH 8 0
BBX 7 8 0 0
BITMAP
66
6C
78
70
78
78
7C
E6
ENDCHAR
STARTCHAR 04A2
ENCODING 1186
SWIDTH 780 0
DWIDTH 13 0
BBX 11 15 1 -4
BITMAP
E1C0
6180
6180
6180
6180
6180
7F80
6180
6180
6180
6180
E1C0
0060
0020
0020
ENDCHAR
STARTCHAR 04A3
ENCODING 1187
SWIDTH 540 0
DWIDTH 9 0
BBX 8 10 0 -3
BITMAP
67
66
66
7E
66
66
66
E6
03
01
ENDCHAR
STARTCHAR 04AE
ENCODING 1198
SWIDTH 720 0
DWIDTH 12 0
BBX 10 12 1 0
BITMAP
E0C0
6080
6100
3100
3200
1C00
0C00
0C00
0C00
0C00
0C00
1C00
ENDCHAR
STARTCHAR 04AF
ENCODING 1199
SWIDTH 480 0
DWIDTH 8 0
BBX 7 12 0 -4
BITMAP
C2
42
64
24
24
38
18
18
18
18
18
18
ENDCHAR
STARTCHAR 04B0
ENCODING 1200
SWIDTH 720 0
DWIDTH 12 0
BBX 10 12 1 0
BITMAP
E0C0
6080
6100
3100
3200
1C00
0C00
7F80
0C00
0C00
0C00
1C00
ENDCHAR
STARTCHAR 04B1
ENCODING 1201
SWIDTH 480 0
DWIDTH 8 0
BBX 8 12 0 -4
BITMAP
E2
42
64
24
24
38
18
FF
18
18
18
38
ENDCHAR
STARTCHAR 04B2
ENCODING 1202
SWIDTH 780 0
DWIDTH 13 0
BBX 11 15 1 -4
BITMAP
F0C0
3080
3100
1A00
0A00
0C00
0E00
1600
1300
2100
4180
C1C0
0060
0020
0020
ENDCHAR
STARTCHAR 04B3
ENCODING 1203
SWIDTH 540 0
DWIDTH 9 0
BBX 8 10 1 -3
BITMAP
EC
48
30
30
30
58
8C
8E
03
01
ENDCHAR
STARTCHAR 04B8
ENCODING 1208
SWIDTH 660 0
DWIDTH 11 0
BBX 9 12 1 0
BITMAP
E380
6180
6180
6980
6980
6980
6B80
3D80
0980
0980
0180
0380
ENDCHAR
STARTCHAR 04B9
ENCODING 1209
SWIDTH 480 0
DWIDTH 8 0
BBX 6 8 1 0
BITMAP
CC
CC
EC
EC
FC
2C
0C
0C
ENDCHAR
STARTCHAR 04BA
ENCODING 1210
SWIDTH 660 0
DWIDTH 11 0
BBX 9 12 1 0
BITMAP
E000
6000
6000
6000
6000
6F00
7100
6180
6180
6180
6180
E380
ENDCHAR
STARTCHAR 04BB
ENCODING 1211
SWIDTH 540 0
DWIDTH 9 0
BBX 7 8 1 0
BITMAP
60
60
60
7C
66
66
66
EE
ENDCHAR
STARTCHAR 04D8
ENCODING 1240
SWIDTH 780 0
DWIDTH 13 0
BBX 11 12 1 0
BITMAP
3F00
2080
2040
0040
0060
FFE0
C060
C060
4060
6040
3080
1F00
ENDCHAR
STARTCHAR 04D9
ENCODING 1241
SWIDTH 480 0
DWIDTH 8 0
BBX 6 8 1 0
BITMAP
38
5C
8C
04
04
FC
C4
78
ENDCHAR
STARTCHAR 04E8
ENCODING 1256
SWIDTH 720 0
DWIDTH 12 0
BBX 11 12 1 0
BITMAP
1E00
2180
40C0
C040
C040
FFC0
C060
C040
C040
40C0
2180
1E00
ENDCHAR
STARTCHAR 04E9
ENCODING 1257
SWIDTH 540 0
DWIDTH 9 0
BBX 7 8 1 0
BITMAP
38
44
C6
FE
C6
C6
44
38
ENDCHAR
STARTCHAR 05B0
ENCODING 1456
SWIDTH 360 0
DWIDTH 6 0
BBX 1 2 2 -3
BITMAP
80
80
ENDCHAR
STARTCHAR 05B1
ENCODING 1457
SWIDTH 360 0
DWIDTH 6 0
BBX 5 2 0 -3
BITMAP
A8
48
ENDCHAR
STARTCHAR 05B2
ENCODING 1458
SWIDTH 360 0
DWIDTH 6 0
BBX 5 3 0 -4
BITMAP
E8
00
08
ENDCHAR
STARTCHAR 05B3
ENCODING 1459
SWIDTH 360 0
DWIDTH 6 0
BBX 5 3 0 -4
BITMAP
E8
40
48
ENDCHAR
STARTCHAR 05B4
ENCODING 1460
SWIDTH 360 0
DWIDTH 6 0
BBX 1 1 2 -3
BITMAP
80
ENDCHAR
STARTCHAR 05B5
ENCODING 1461
SWIDTH 360 0
DWIDTH 6 0
BBX 3 1 1 -3
BITMAP
A0
ENDCHAR
STARTCHAR 05B6
ENCODING 1462
SWIDTH 360 0
DWIDTH 6 0
BBX 3 2 1 -3
BITMAP
A0
40
ENDCHAR
STARTCHAR 05B7
ENCODING 1463
SWIDTH 360 0
DWIDTH 6 0
BBX 3 1 1 -2
BITMAP
E0
ENDCHAR
STARTCHAR 05B8
ENCODING 1464
SWIDTH 360 0
DWIDTH 6 0
BBX 3 3 1 -4
BITMAP
E0
40
40
ENDCHAR
STARTCHAR 05B9
ENCODING 1465
SWIDTH 360 0
DWIDTH 6 0
BBX 1 1 2 10
BITMAP
80
ENDCHAR
STARTCHAR 05BB
ENCODING 1467
SWIDTH 360 0
DWIDTH 6 0
BBX 5 2 0 -3
BITMAP
A0
08
ENDCHAR
STARTCHAR 05BC
ENCODING 1468
SWIDTH 360 0
DWIDTH 6 0
BBX 1 1 2 3
BITMAP
80
ENDCHAR
STARTCHAR 05BD
ENCODING 1469
SWIDTH 360 0
DWIDTH 6 0
BBX 1 3 2 -4
BITMAP
80
80
80
ENDCHAR
STARTCHAR 05BE
ENCODING 1470
SWIDTH 360 0
DWIDTH 6 0
BBX 5 2 0 7
BITMAP
F8
F8
ENDCHAR
STARTCHAR 05BF
ENCODING 1471
SWIDTH 360 0
DWIDTH 6 0
BBX 3 1 1 10
BITMAP
E0
ENDCHAR
STARTCHAR 05C0
ENCODING 1472
SWIDTH 300 0
DWIDTH 5 0
BBX 1 10 2 0
BITMAP
80
80
80
80
80
80
80
80
80
80
ENDCHAR
STARTCHAR 05C1
ENCODING 1473
SWIDTH 360 0
DWIDTH 6 0
BBX 1 1 6 10
BITMAP
80
ENDCHAR
STARTCHAR 05C2
ENCODING 1474
SWIDTH 360 0
DWIDTH 6 0
BBX 1 1 -1 10
BITMAP
80
ENDCHAR
STARTCHAR 05C3
ENCODING 1475
SWIDTH 300 0
DWIDTH 5 0
BBX 2 9 1 0
BITMAP
C0
C0
00
00
00
00
00
C0
C0
ENDCHAR
STARTCHAR 05D0
ENCODING 1488
SWIDTH 480 0
DWIDTH 8 0
BBX 7 9 1 0
BITMAP
8C
CE
64
78
B8
98
8C
C6
C2
ENDCHAR
STARTCHAR 05D1
ENCODING 1489
SWIDTH 480 0
DWIDTH 8 0
BBX 6 9 1 1
BITMAP
F8
FC
04
04
04
04
08
FC
FC
ENDCHAR
STARTCHAR 05D2
ENCODING 1490
SWIDTH 360 0
DWIDTH 6 0
BBX 5 9 0 0
BITMAP
60
70
10
10
10
10
28
68
E0
ENDCHAR
STARTCHAR 05D3
ENCODING 1491
SWIDTH 420 0
DWIDTH 7 0
BBX 6 9 0 0
BITMAP
FC
FC
08
08
08
08
08
08
08
ENDCHAR
STARTCHAR 05D4
ENCODING 1492
SWIDTH 480 0
DWIDTH 8 0
BBX 6 9 1 0
BITMAP
FC
FC
04
04
04
84
84
84
84
ENDCHAR
STARTCHAR 05D5
ENCODING 1493
SWIDTH 300 0
DWIDTH 5 0
BBX 3 9 1 0
BITMAP
C0
E0
20
20
20
20
20
20
20
ENDCHAR
STARTCHAR 05D6
ENCODING 1494
SWIDTH 300 0
DWIDTH 5 0
BBX 4 9 0 1
BITMAP
F0
70
40
40
40
40
60
60
40
ENDCHAR
STARTCHAR 05D7
ENCODING 1495
SWIDTH 480 0
DWIDTH 8 0
BBX 6 9 1 0
BITMAP
FC
FC
84
84
84
84
84
84
84
ENDCHAR
STARTCHAR 05D8
ENCODING 1496
SWIDTH 480 0
DWIDTH 8 0
BBX 6 9 1 1
BITMAP
C8
DC
84
84
84
84
84
78
78
ENDCHAR
STARTCHAR 05D9
ENCODING 1497
SWIDTH 240 0
DWIDTH 4 0
BBX 4 5 0 5
BITMAP
E0
70
10
10
20
ENDCHAR
STARTCHAR 05DA
ENCODING 1498
SWIDTH 480 0
DWIDTH 8 0
BBX 6 11 1 -2
BITMAP
FC
FC
04
04
04
04
04
04
04
04
04
ENDCHAR
STARTCHAR 05DB
ENCODING 1499
SWIDTH 420 0
DWIDTH 7 0
BBX 6 9 1 1
BITMAP
F0
F8
08
04
04
04
04
F8
F0
ENDCHAR
STARTCHAR 05DC
ENCODING 1500
SWIDTH 420 0
DWIDTH 7 0
BBX 7 13 0 0
BITMAP
80
C0
40
80
7C
7E
02
02
02
04
08
10
10
ENDCHAR
STARTCHAR 05DD
ENCODING 1501
SWIDTH 480 0
DWIDTH 8 0
BBX 7 9 1 1
BITMAP
FC
FE
42
82
82
82
82
FE
FE
ENDCHAR
STARTCHAR 05DE
ENCODING 1502
SWIDTH 480 0
DWIDTH 8 0
BBX 8 9 0 1
BITMAP
60
6E
32
21
41
81
81
9E
9E
ENDCHAR
STARTCHAR 05DF
ENCODING 1503
SWIDTH 300 0
DWIDTH 5 0
BBX 3 12 0 -2
BITMAP
E0
E0
20
20
20
20
20
20
20
20
20
20
ENDCHAR
STARTCHAR 05E0
ENCODING 1504
SWIDTH 300 0
DWIDTH 5 0
BBX 4 9 0 1
BITMAP
60
70
10
10
10
10
10
70
F0
ENDCHAR
STARTCHAR 05E1
ENCODING 1505
SWIDTH 480 0
DWIDTH 8 0
BBX 7 9 1 1
BITMAP
F8
FC
86
82
82
82
84
FC
78
ENDCHAR
STARTCHAR 05E2
ENCODING 1506
SWIDTH 480 0
DWIDTH 8 0
BBX 7 9 0 0
BITMAP
CC
E6
42
44
24
14
14
7C
F8
ENDCHAR
STARTCHAR 05E3
ENCODING 1507
SWIDTH 480 0
DWIDTH 8 0
BBX 6 12 0 -2
BITMAP
F8
FC
84
84
C4
84
04
04
04
04
04
04
ENDCHAR
STARTCHAR 05E4
ENCODING 1508
SWIDTH 420 0
DWIDTH 7 0
BBX 6 9 1 1
BITMAP
F8
F8
84
C4
C4
04
04
F8
F8
ENDCHAR
STARTCHAR 05E5
ENCODING 1509
SWIDTH 480 0
DWIDTH 8 0
BBX 7 12 1 -2
BITMAP
CC
EE
24
48
50
60
40
40
40
40
60
40
ENDCHAR
STARTCHAR 05E6
ENCODING 1510
SWIDTH 480 0
DWIDTH 8 0
BBX 7 9 0 1
BITMAP
EE
66
24
28
38
18
04
7E
7E
ENDCHAR
STARTCHAR 05E7
ENCODING 1511
SWIDTH 480 0
DWIDTH 8 0
BBX 6 11 1 -2
BITMAP
F8
FC
04
04
84
88
90
A0
A0
80
80
ENDCHAR
STARTCHAR 05E8
ENCODING 1512
SWIDTH 480 0
DWIDTH 8 0
BBX 6 9 1 1
BITMAP
F8
FC
04
04
04
04
04
04
04
ENDCHAR
STARTCHAR 05E9
ENCODING 1513
SWIDTH 600 0
DWIDTH 10 0
BBX 8 9 1 1
BITMAP
DB
DB
91
92
92
A2
A4
7C
7C
ENDCHAR
STARTCHAR 05EA
ENCODING 1514
SWIDTH 480 0
DWIDTH 8 0
BBX 7 9 0 0
BITMAP
7C
7E
22
42
42
42
42
C2
C2
ENDCHAR
STARTCHAR 05F0
ENCODING 1520
SWIDTH 540 0
DWIDTH 9 0
BBX 8 9 1 0
BITMAP
C6
E7
21
21
21
21
21
21
21
ENDCHAR
STARTCHAR 05F1
ENCODING 1521
SWIDTH 540 0
DWIDTH 9 0
BBX 8 9 0 1
BITMAP
E6
77
11
11
21
01
01
01
01
ENDCHAR
STARTCHAR 05F2
ENCODING 1522
SWIDTH 540 0
DWIDTH 9 0
BBX 8 5 0 5
BITMAP
E6
77
11
11
20
ENDCHAR
STARTCHAR 05F3
ENCODING 1523
SWIDTH 180 0
DWIDTH 3 0
BBX 2 4 1 5
BITMAP
C0
C0
80
80
ENDCHAR
STARTCHAR 05F4
ENCODING 1524
SWIDTH 360 0
DWIDTH 6 0
BBX 5 4 1 5
BITMAP
D8
D8
90
90
ENDCHAR
STARTCHAR 060C
ENCODING 1548
SWIDTH 300 0
DWIDTH 5 0
BBX 3 5 1 3
BITMAP
40
80
C0
E0
40
ENDCHAR
STARTCHAR 061B
ENCODING 1563
SWIDTH 300 0
DWIDTH 5 0
BBX 3 8 1 2
BITMAP
40
80
80
E0
60
00
60
60
ENDCHAR
STARTCHAR 061F
ENCODING 1567
SWIDTH 360 0
DWIDTH 6 0
BBX 5 10 0 2
BITMAP
70
48
D8
60
60
20
00
00
30
30
ENDCHAR
STARTCHAR 0621
ENCODING 1569
SWIDTH 420 0
DWIDTH 7 0
BBX 5 5 1 1
BITMAP
70
90
C8
F8
40
ENDCHAR
STARTCHAR 0622
ENCODING 1570
SWIDTH 180 0
DWIDTH 3 0
BBX 3 11 0 2
BITMAP
E0
00
00
40
40
20
20
20
20
20
20
ENDCHAR
STARTCHAR 0623
ENCODING 1571
SWIDTH 180 0
DWIDTH 3 0
BBX 2 12 1 2
BITMAP
40
80
80
00
80
80
40
40
40
40
40
40
ENDCHAR
STARTCHAR 0624
ENCODING 1572
SWIDTH 420 0
DWIDTH 7 0
BBX 6 10 2 -1
BITMAP
30
30
00
0C
14
1C
04
04
18
F0
ENDCHAR
STARTCHAR 0625
ENCODING 1573
SWIDTH 180 0
DWIDTH 3 0
BBX 3 12 0 0
BITMAP
40
40
20
20
20
20
20
20
00
00
40
C0
ENDCHAR
STARTCHAR 0626
ENCODING 1574
SWIDTH 660 0
DWIDTH 11 0
BBX 10 10 0 -1
BITMAP
6000
60C0
0140
0200
8400
83C0
8040
8080
EF80
7E00
ENDCHAR
STARTCHAR 0627
ENCODING 1575
SWIDTH 180 0
DWIDTH 3 0
BBX 2 8 1 4
BITMAP
80
80
40
40
40
40
40
40
ENDCHAR
STARTCHAR 0628
ENCODING 1576
SWIDTH 720 0
DWIDTH 12 0
BBX 12 8 1 0
BITMAP
0020
8030
8010
C010
7FF0
0000
0000
0600
ENDCHAR
STARTCHAR 0629
ENCODING 1577
SWIDTH 300 0
DWIDTH 5 0
BBX 5 8 0 3
BITMAP
30
C0
00
20
30
58
48
70
ENDCHAR
STARTCHAR 062A
ENCODING 1578
SWIDTH 720 0
DWIDTH 12 0
BBX 12 8 1 2
BITMAP
0200
0B00
0C00
0020
8030
8010
C010
7FF0
ENDCHAR
STARTCHAR 062B
ENCODING 1579
SWIDTH 720 0
DWIDTH 12 0
BBX 12 9 1 3
BITMAP
0C00
0600
0B00
0C00
0020
8030
8010
C010
7FF0
ENDCHAR
STARTCHAR 062C
ENCODING 1580
SWIDTH 540 0
DWIDTH 9 0
BBX 8 10 0 -3
BITMAP
7F
7E
30
40
80
84
80
C0
60
3F
ENDCHAR
STARTCHAR 062D
ENCODING 1581
SWIDTH 540 0
DWIDTH 9 0
BBX 8 10 0 -3
BITMAP
7F
7E
30
40
80
80
80
C0
60
3F
ENDCHAR
STARTCHAR 062E
ENCODING 1582
SWIDTH 540 0
DWIDTH 9 0
BBX 8 13 0 -3
BITMAP
08
00
00
7F
7E
30
40
80
80
80
C0
60
3F
ENDCHAR
STARTCHAR 062F
ENCODING 1583
SWIDTH 360 0
DWIDTH 6 0
BBX 5 6 1 3
BITMAP
30
10
08
08
08
F8
ENDCHAR
STARTCHAR 0630
ENCODING 1584
SWIDTH 360 0
DWIDTH 6 0
BBX 5 10 1 2
BITMAP
40
40
00
00
30
10
08
08
08
F8
ENDCHAR
STARTCHAR 0631
ENCODING 1585
SWIDTH 480 0
DWIDTH 8 0
BBX 7 9 2 -2
BITMAP
04
04
02
02
02
02
04
18
F0
ENDCHAR
STARTCHAR 0632
ENCODING 1586
SWIDTH 480 0
DWIDTH 8 0
BBX 7 12 2 -1
BITMAP
08
08
00
04
04
02
02
02
02
04
18
F0
ENDCHAR
STARTCHAR 0633
ENCODING 1587
SWIDTH 840 0
DWIDTH 14 0
BBX 14 8 1 -1
BITMAP
0100
4184
8094
80FC
8080
8100
C300
7E00
ENDCHAR
STARTCHAR 0634
ENCODING 1588
SWIDTH 840 0
DWIDTH 14 0
BBX 14 13 1 -1
BITMAP
0020
0030
0058
0020
0000
0100
4184
8094
80FC
8080
8100
C300
7E00
ENDCHAR
STARTCHAR 0635
ENCODING 1589
SWIDTH 1080 0
DWIDTH 18 0
BBX 18 8 1 -1
BITMAP
010380
410FC0
809040
80FFC0
810000
810000
C30000
7E0000
ENDCHAR
STARTCHAR 0636
ENCODING 1590
SWIDTH 1080 0
DWIDTH 18 0
BBX 18 11 1 -1
BITMAP
001800
000000
000000
010380
410FC0
809040
80FFC0
810000
810000
C30000
7E0000
ENDCHAR
STARTCHAR 0637
ENCODING 1591
SWIDTH 600 0
DWIDTH 10 0
BBX 10 10 0 3
BITMAP
1800
1800
1000
1000
0800
0800
0B80
16C0
1840
FFC0
ENDCHAR
STARTCHAR 0638
ENCODING 1592
SWIDTH 600 0
DWIDTH 10 0
BBX 10 10 0 3
BITMAP
1800
1800
1100
1100
0800
0800
0B80
16C0
1840
FFC0
ENDCHAR
STARTCHAR 0639
ENCODING 1593
SWIDTH 540 0
DWIDTH 9 0
BBX 8 12 0 -3
BITMAP
78
40
80
EE
78
60
40
80
80
80
60
3F
ENDCHAR
STARTCHAR 063A
ENCODING 1594
SWIDTH 540 0
DWIDTH 9 0
BBX 8 15 0 -3
BITMAP
30
00
00
78
40
80
EE
78
60
40
80
80
80
60
3F
ENDCHAR
STARTCHAR 0640
ENCODING 1600
SWIDTH 180 0
DWIDTH 3 0
BBX 4 1 0 2
BITMAP
F0
ENDCHAR
STARTCHAR 0641
ENCODING 1601
SWIDTH 780 0
DWIDTH 13 0
BBX 13 8 1 3
BITMAP
0020
0000
0000
0010
8038
8028
C018
7FF8
ENDCHAR
STARTCHAR 0642
ENCODING 1602
SWIDTH 600 0
DWIDTH 10 0
BBX 9 12 1 -1
BITMAP
0300
0C00
0000
0000
0300
0580
0780
8380
8080
8080
E380
7E00
ENDCHAR
STARTCHAR 0643
ENCODING 1603
SWIDTH 600 0
DWIDTH 10 0
BBX 10 9 1 3
BITMAP
0080
0080
0480
0880
0E80
0280
9C40
8040
FFC0
ENDCHAR
STARTCHAR 0644
ENCODING 1604
SWIDTH 480 0
DWIDTH 8 0
BBX 8 13 1 0
BITMAP
02
03
03
02
02
01
01
81
81
81
81
EF
7C
ENDCHAR
STARTCHAR 0645
ENCODING 1605
SWIDTH 360 0
DWIDTH 6 0
BBX 5 9 1 -4
BITMAP
30
58
38
F8
80
80
80
80
40
ENDCHAR
STARTCHAR 0646
ENCODING 1606
SWIDTH 540 0
DWIDTH 9 0
BBX 9 10 1 -1
BITMAP
0800
0000
0000
0180
8080
8080
8080
8080
C300
7E00
ENDCHAR
STARTCHAR 0647
ENCODING 1607
SWIDTH 300 0
DWIDTH 5 0
BBX 4 5 1 2
BITMAP
40
60
B0
90
E0
ENDCHAR
STARTCHAR 0648
ENCODING 1608
SWIDTH 420 0
DWIDTH 7 0
BBX 6 7 2 0
BITMAP
1C
14
1C
04
0C
18
F0
ENDCHAR
STARTCHAR 0649
ENCODING 1609
SWIDTH 660 0
DWIDTH 11 0
BBX 10 9 0 -1
BITMAP
00C0
0100
4200
8400
83C0
8040
8080
EF80
7E00
ENDCHAR
STARTCHAR 064A
ENCODING 1610
SWIDTH 660 0
DWIDTH 11 0
BBX 10 12 0 -4
BITMAP
00C0
0100
4200
8400
83C0
8040
8080
EF80
7E00
0200
0A00
0800
ENDCHAR
STARTCHAR 064B
ENCODING 1611
SWIDTH 180 0
DWIDTH 3 0
BBX 3 3 0 10
BITMAP
20
E0
C0
ENDCHAR
STARTCHAR 064C
ENCODING 1612
SWIDTH 240 0
DWIDTH 4 0
BBX 3 3 1 9
BITMAP
20
E0
E0
ENDCHAR
STARTCHAR 064D
ENCODING 1613
SWIDTH 180 0
DWIDTH 3 0
BBX 3 3 0 -3
BITMAP
20
C0
C0
ENDCHAR
STARTCHAR 064E
ENCODING 1614
SWIDTH 180 0
DWIDTH 3 0
BBX 1 1 2 11
BITMAP
80
ENDCHAR
STARTCHAR 064F
ENCODING 1615
SWIDTH 240 0
DWIDTH 4 0
BBX 3 4 1 10
BITMAP
20
60
20
C0
ENDCHAR
STARTCHAR 0650
ENCODING 1616
SWIDTH 180 0
DWIDTH 3 0
BBX 2 1 1 0
BITMAP
C0
ENDCHAR
STARTCHAR 0651
ENCODING 1617
SWIDTH 240 0
DWIDTH 4 0
BBX 3 3 1 11
BITMAP
20
40
80
ENDCHAR
STARTCHAR 0652
ENCODING 1618
SWIDTH 180 0
DWIDTH 3 0
BBX 3 3 0 10
BITMAP
40
A0
40
ENDCHAR
STARTCHAR 0660
ENCODING 1632
SWIDTH 540 0
DWIDTH 9 0
BBX 3 3 3 4
BITMAP
C0
E0
40
ENDCHAR
STARTCHAR 0661
ENCODING 1633
SWIDTH 540 0
DWIDTH 9 0
BBX 3 9 3 2
BITMAP
80
80
C0
40
60
20
20
20
40
ENDCHAR
STARTCHAR 0662
ENCODING 1634
SWIDTH 540 0
DWIDTH 9 0
BBX 5 8 2 3
BITMAP
88
F0
60
60
20
20
20
20
ENDCHAR
STARTCHAR 0663
ENCODING 1635
SWIDTH 540 0
DWIDTH 9 0
BBX 7 8 1 2
BITMAP
0A
FE
FC
40
20
20
20
20
ENDCHAR
STARTCHAR 0664
ENCODING 1636
SWIDTH 540 0
DWIDTH 9 0
BBX 4 10 3 2
BITMAP
20
60
80
C0
E0
40
80
80
F0
20
ENDCHAR
STARTCHAR 0665
ENCODING 1637
SWIDTH 540 0
DWIDTH 9 0
BBX 6 6 1 5
BITMAP
78
9C
84
84
F8
70
ENDCHAR
STARTCHAR 0666
ENCODING 1638
SWIDTH 540 0
DWIDTH 9 0
BBX 5 8 2 3
BITMAP
F0
F0
10
10
10
10
18
08
ENDCHAR
STARTCHAR 0667
ENCODING 1639
SWIDTH 540 0
DWIDTH 9 0
BBX 7 10 1 2
BITMAP
82
82
C6
44
28
28
10
10
10
10
ENDCHAR
STARTCHAR 0668
ENCODING 1640
SWIDTH 540 0
DWIDTH 9 0
BBX 7 8 1 3
BITMAP
10
10
30
28
4C
44
C6
82
ENDCHAR
STARTCHAR 0669
ENCODING 1641
SWIDTH 540 0
DWIDTH 9 0
BBX 5 9 2 2
BITMAP
60
F0
90
F0
F0
10
10
10
18
ENDCHAR
STARTCHAR 066A
ENCODING 1642
SWIDTH 540 0
DWIDTH 9 0
BBX 6 12 1 1
BITMAP
C4
C4
08
08
10
10
20
20
40
40
8C
8C
ENDCHAR
STARTCHAR 066B
ENCODING 1643
SWIDTH 300 0
DWIDTH 5 0
BBX 2 3 2 1
BITMAP
C0
C0
80
ENDCHAR
STARTCHAR 066D
ENCODING 1645
SWIDTH 540 0
DWIDTH 9 0
BBX 5 7 2 6
BITMAP
20
B0
70
D8
70
20
20
ENDCHAR
STARTCHAR 0671
ENCODING 1649
SWIDTH 780 0
DWIDTH 13 0
BBX 9 11 2 0
BITMAP
FF80
8080
8080
8080
8080
8080
8080
8080
8080
8080
FF80
ENDCHAR
STARTCHAR 067E
ENCODING 1662
SWIDTH 720 0
DWIDTH 12 0
BBX 12 10 1 -2
BITMAP
0020
8030
8010
C010
7FF0
0000
0000
0300
0C00
0300
ENDCHAR
STARTCHAR 0686
ENCODING 1670
SWIDTH 540 0
DWIDTH 9 0
BBX 8 10 0 -3
BITMAP
7F
7E
30
40
86
88
86
C0
60
3F
ENDCHAR
STARTCHAR 0698
ENCODING 1688
SWIDTH 480 0
DWIDTH 8 0
BBX 7 14 2 -2
BITMAP
10
18
04
14
00
04
04
02
02
02
02
04
18
F0
ENDCHAR
STARTCHAR 06A4
ENCODING 1700
SWIDTH 780 0
DWIDTH 13 0
BBX 9 11 2 0
BITMAP
FF80
8080
8080
8080
8080
8080
8080
8080
8080
8080
FF80
ENDCHAR
STARTCHAR 06A9
ENCODING 1705
SWIDTH 840 0
DWIDTH 14 0
BBX 13 9 1 3
BITMAP
0038
00E0
0100
0180
01C0
8060
8010
8008
FFF8
ENDCHAR
STARTCHAR 06AF
ENCODING 1711
SWIDTH 840 0
DWIDTH 14 0
BBX 13 11 1 3
BITMAP
0030
00C0
0130
00E0
0100
0180
01C0
8060
8010
8008
FFF8
ENDCHAR
STARTCHAR 06CC
ENCODING 1740
SWIDTH 660 0
DWIDTH 11 0
BBX 10 9 0 -1
BITMAP
00C0
0100
4200
8400
83C0
8040
8080
EF80
7E00
ENDCHAR
STARTCHAR 06D5
ENCODING 1749
SWIDTH 300 0
DWIDTH 5 0
BBX 4 5 1 2
BITMAP
40
60
B0
90
E0
ENDCHAR
STARTCHAR 06F0
ENCODING 1776
SWIDTH 540 0
DWIDTH 9 0
BBX 3 3 3 4
BITMAP
C0
E0
40
ENDCHAR
STARTCHAR 06F1
ENCODING 1777
SWIDTH 540 0
DWIDTH 9 0
BBX 3 9 3 2
BITMAP
80
80
C0
40
60
20
20
20
40
ENDCHAR
STARTCHAR 06F2
ENCODING 1778
SWIDTH 540 0
DWIDTH 9 0
BBX 5 8 2 3
BITMAP
88
F0
60
60
20
20
20
20
ENDCHAR
STARTCHAR 06F3
ENCODING 1779
SWIDTH 540 0
DWIDTH 9 0
BBX 7 8 1 2
BITMAP
0A
FE
FC
40
20
20
20
20
ENDCHAR
STARTCHAR 06F4
ENCODING 1780
SWIDTH 540 0
DWIDTH 9 0
BBX 6 9 1 2
BITMAP
1C
D0
60
7C
20
20
20
20
20
ENDCHAR
STARTCHAR 06F5
ENCODING 1781
SWIDTH 540 0
DWIDTH 9 0
BBX 6 9 1 3
BITMAP
30
18
68
4C
84
84
9C
F8
40
ENDCHAR
STARTCHAR 06F6
ENCODING 1782
SWIDTH 540 0
DWIDTH 9 0
BBX 5 8 2 2
BITMAP
30
C0
80
F8
30
60
40
40
ENDCHAR
STARTCHAR 06F7
ENCODING 1783
SWIDTH 540 0
DWIDTH 9 0
BBX 7 10 1 2
BITMAP
82
82
C6
44
28
28
10
10
10
10
ENDCHAR
STARTCHAR 06F8
ENCODING 1784
SWIDTH 540 0
DWIDTH 9 0
BBX 7 8 1 3
BITMAP
10
10
30
28
4C
44
C6
82
ENDCHAR
STARTCHAR 06F9
ENCODING 1785
SWIDTH 540 0
DWIDTH 9 0
BBX 5 9 2 2
BITMAP
60
F0
90
F0
F0
10
10
10
18
ENDCHAR
STARTCHAR 1E80
ENCODING 7808
SWIDTH 960 0
DWIDTH 16 0
BBX 14 16 1 0
BITMAP
0600
0200
0000
0000
C70C
C308
4308
6308
6310
2390
3490
34A0
14E0
1860
1840
0040
ENDCHAR
STARTCHAR 1E81
ENCODING 7809
SWIDTH 720 0
DWIDTH 12 0
BBX 12 12 0 0
BITMAP
0400
0400
0200
0000
E630
6220
2240
2740
3540
1980
1980
1080
ENDCHAR
STARTCHAR 1E82
ENCODING 7810
SWIDTH 960 0
DWIDTH 16 0
BBX 14 16 1 0
BITMAP
0100
0200
0200
0000
C70C
C308
4308
6308
6310
2390
3490
34A0
14E0
1860
1840
0040
ENDCHAR
STARTCHAR 1E83
ENCODING 7811
SWIDTH 720 0
DWIDTH 12 0
BBX 12 12 0 0
BITMAP
0200
0200
0400
0000
E630
6220
2240
2740
3540
1980
1980
1080
ENDCHAR
STARTCHAR 1E84
ENCODING 7812
SWIDTH 960 0
DWIDTH 16 0
BBX 14 15 1 0
BITMAP
0480
0480
0000
E304
6304
6108
2188
3188
3290
12D0
1CD0
1C60
0C60
0860
0800
ENDCHAR
STARTCHAR 1E85
ENCODING 7813
SWIDTH 720 0
DWIDTH 12 0
BBX 11 12 1 0
BITMAP
1200
1200
0000
0000
CC60
4440
4640
6A80
2A80
3300
3100
0100
ENDCHAR
STARTCHAR 1EA0
ENCODING 7840
SWIDTH 720 0
DWIDTH 12 0
BBX 11 14 1 -2
BITMAP
0C00
0C00
1600
1600
1200
2300
3F00
4180
4080
40C0
C0E0
0000
0800
0800
ENDCHAR
STARTCHAR 1EA1
ENCODING 7841
SWIDTH 480 0
DWIDTH 8 0
BBX 6 11 1 -3
BITMAP
78
C8
8C
3C
4C
CC
CC
7C
00
20
20
ENDCHAR
STARTCHAR 1EA2
ENCODING 7842
SWIDTH 660 0
DWIDTH 11 0
BBX 11 16 0 0
BITMAP
0400
0200
0400
0000
0400
0400
0E00
0A00
1200
1100
1100
3F00
2080
4080
40C0
E0E0
ENDCHAR
STARTCHAR 1EA3
ENCODING 7843
SWIDTH 480 0
DWIDTH 8 0
BBX 6 12 1 0
BITMAP
38
08
10
00
78
C8
8C
3C
4C
CC
CC
7C
ENDCHAR
STARTCHAR 1EA4
ENCODING 7844
SWIDTH 720 0
DWIDTH 12 0
BBX 11 16 0 0
BITMAP
0300
0400
0E00
0000
0400
0400
0600
0A00
0B00
1100
1100
1F80
2080
40C0
40C0
E0E0
ENDCHAR
STARTCHAR 1EA5
ENCODING 7845
SWIDTH 480 0
DWIDTH 8 0
BBX 6 16 1 0
BITMAP
18
10
20
00
30
58
40
00
78
C8
8C
3C
4C
CC
CC
7C
ENDCHAR
STARTCHAR 1EA6
ENCODING 7846
SWIDTH 720 0
DWIDTH 12 0
BBX 11 16 0 0
BITMAP
0C00
0400
0E00
0000
0400
0400
0600
0A00
0B00
1100
1100
1F80
2080
40C0
40C0
E0E0
ENDCHAR
STARTCHAR 1EA7
ENCODING 7847
SWIDTH 480 0
DWIDTH 8 0
BBX 6 16 1 0
BITMAP
60
20
10
00
30
58
40
00
78
C8
8C
3C
4C
CC
CC
7C
ENDCHAR
STARTCHAR 1EA8
ENCODING 7848
SWIDTH 720 0
DWIDTH 12 0
BBX 11 16 0 0
BITMAP
0400
0200
0E00
0000
0400
0400
0600
0A00
0B00
1100
1100
1F80
2080
40C0
40C0
E0E0
ENDCHAR
STARTCHAR 1EA9
ENCODING 7849
SWIDTH 480 0
DWIDTH 8 0
BBX 6 16 1 0
BITMAP
10
38
10
00
30
58
40
00
78
C8
8C
3C
4C
CC
CC
7C
ENDCHAR
STARTCHAR 1EAA
ENCODING 7850
SWIDTH 660 0
DWIDTH 11 0
BBX 11 16 0 0
BITMAP
0800
0600
0E00
0000
0400
0400
0E00
0A00
1200
1300
2100
3F80
2080
4080
40C0
C0E0
ENDCHAR
STARTCHAR 1EAB
ENCODING 7851
SWIDTH 480 0
DWIDTH 8 0
BBX 6 15 1 0
BITMAP
60
B8
00
30
58
40
00
78
C8
8C
3C
4C
CC
CC
7C
ENDCHAR
STARTCHAR 1EAC
ENCODING 7852
SWIDTH 720 0
DWIDTH 12 0
BBX 11 17 1 -3
BITMAP
0C00
0000
0000
0C00
0C00
1600
1600
1200
2300
3F00
4180
4080
40C0
C0E0
0000
0800
0800
ENDCHAR
STARTCHAR 1EAD
ENCODING 7853
SWIDTH 480 0
DWIDTH 8 0
BBX 6 15 1 -3
BITMAP
30
28
40
00
78
C8
8C
3C
4C
CC
CC
7C
00
20
20
ENDCHAR
STARTCHAR 1EAE
ENCODING 7854
SWIDTH 720 0
DWIDTH 12 0
BBX 11 16 0 0
BITMAP
0300
0400
0E00
0000
0400
0400
0600
0A00
0B00
1100
1100
1F80
2080
40C0
40C0
E0E0
ENDCHAR
STARTCHAR 1EAF
ENCODING 7855
SWIDTH 480 0
DWIDTH 8 0
BBX 7 16 1 0
BITMAP
18
10
20
00
00
78
00
00
78
C8
0C
3C
CC
CC
DE
6C
ENDCHAR
STARTCHAR 1EB0
ENCODING 7856
SWIDTH 720 0
DWIDTH 12 0
BBX 11 16 0 0
BITMAP
0C00
0400
0E00
0000
0400
0400
0600
0A00
0B00
1100
1100
1F80
2080
40C0
40C0
E0E0
ENDCHAR
STARTCHAR 1EB1
ENCODING 7857
SWIDTH 480 0
DWIDTH 8 0
BBX 7 16 1 0
BITMAP
60
20
10
00
00
78
00
00
78
C8
0C
3C
CC
CC
DE
6C
ENDCHAR
STARTCHAR 1EB2
ENCODING 7858
SWIDTH 720 0
DWIDTH 12 0
BBX 11 16 0 0
BITMAP
0400
0200
0E00
0000
0400
0400
0600
0A00
0B00
1100
1100
1F80
2080
40C0
40C0
E0E0
ENDCHAR
STARTCHAR 1EB3
ENCODING 7859
SWIDTH 480 0
DWIDTH 8 0
BBX 7 16 1 0
BITMAP
10
28
10
00
00
78
00
00
78
C8
0C
3C
CC
CC
DE
6C
ENDCHAR
STARTCHAR 1EB4
ENCODING 7860
SWIDTH 660 0
DWIDTH 11 0
BBX 11 16 0 0
BITMAP
0800
0600
0E00
0000
0400
0400
0E00
0A00
1200
1300
2100
3F80
2080
4080
40C0
C0E0
ENDCHAR
STARTCHAR 1EB5
ENCODING 7861
SWIDTH 480 0
DWIDTH 8 0
BBX 7 15 1 0
BITMAP
60
B8
00
00
78
00
00
78
C8
0C
3C
CC
CC
DE
6C
ENDCHAR
STARTCHAR 1EB6
ENCODING 7862
SWIDTH 720 0
DWIDTH 12 0
BBX 11 17 1 -3
BITMAP
1E00
0000
0000
0C00
0C00
1600
1600
1200
2300
3F00
4180
4080
40C0
C0E0
0000
0800
0800
ENDCHAR
STARTCHAR 1EB7
ENCODING 7863
SWIDTH 480 0
DWIDTH 8 0
BBX 7 14 1 -2
BITMAP
78
00
00
78
C8
0C
3C
CC
CC
DE
6C
00
20
20
ENDCHAR
STARTCHAR 1EB8
ENCODING 7864
SWIDTH 600 0
DWIDTH 10 0
BBX 9 15 1 -3
BITMAP
FF00
6100
6000
6000
6600
7E00
6600
6200
6000
6080
6100
FF00
0000
0800
0800
ENDCHAR
STARTCHAR 1EB9
ENCODING 7865
SWIDTH 480 0
DWIDTH 8 0
BBX 6 11 1 -3
BITMAP
38
4C
FC
C0
C0
C0
7C
38
00
10
10
ENDCHAR
STARTCHAR 1EBA
ENCODING 7866
SWIDTH 600 0
DWIDTH 10 0
BBX 9 16 1 0
BITMAP
0800
1C00
0000
0000
FF00
6100
6000
6000
6200
7E00
6200
6200
6000
6080
6100
FF00
ENDCHAR
STARTCHAR 1EBB
ENCODING 7867
SWIDTH 480 0
DWIDTH 8 0
BBX 6 12 1 0
BITMAP
30
20
00
00
38
4C
FC
C0
C0
C0
7C
38
ENDCHAR
STARTCHAR 1EBC
ENCODING 7868
SWIDTH 600 0
DWIDTH 10 0
BBX 9 15 1 0
BITMAP
3200
0E00
0000
FF00
6100
6000
6000
6600
7E00
6600
6200
6000
6080
6100
FF00
ENDCHAR
STARTCHAR 1EBD
ENCODING 7869
SWIDTH 480 0
DWIDTH 8 0
BBX 6 12 1 0
BITMAP
70
1C
00
00
38
44
FC
C0
C0
C0
7C
38
ENDCHAR
STARTCHAR 1EBE
ENCODING 7870
SWIDTH 600 0
DWIDTH 10 0
BBX 9 16 1 0
BITMAP
0800
0000
1800
0400
FF00
6100
6000
6000
6600
7E00
6600
6200
6000
6080
6100
FF00
ENDCHAR
STARTCHAR 1EBF
ENCODING 7871
SWIDTH 480 0
DWIDTH 8 0
BBX 6 16 1 0
BITMAP
0C
18
10
00
18
28
04
00
38
44
FC
C0
C0
C0
7C
38
ENDCHAR
STARTCHAR 1EC0
ENCODING 7872
SWIDTH 600 0
DWIDTH 10 0
BBX 9 16 1 0
BITMAP
1000
0000
1800
0400
FF00
6100
6000
6000
6600
7E00
6600
6200
6000
6080
6100
FF00
ENDCHAR
STARTCHAR 1EC1
ENCODING 7873
SWIDTH 480 0
DWIDTH 8 0
BBX 6 16 1 0
BITMAP
30
10
00
00
18
28
04
00
38
44
FC
C0
C0
C0
7C
38
ENDCHAR
STARTCHAR 1EC2
ENCODING 7874
SWIDTH 600 0
DWIDTH 10 0
BBX 9 16 1 0
BITMAP
1800
0000
1800
0000
FF00
6100
6000
6000
6600
7E00
6600
6200
6000
6080
6100
FF00
ENDCHAR
STARTCHAR 1EC3
ENCODING 7875
SWIDTH 480 0
DWIDTH 8 0
BBX 6 16 1 0
BITMAP
10
18
10
00
30
28
04
00
38
44
FC
C0
C0
C0
7C
38
ENDCHAR
STARTCHAR 1EC4
ENCODING 7876
SWIDTH 600 0
DWIDTH 10 0
BBX 9 16 1 0
BITMAP
3200
2C00
1800
0000
FF00
6100
6000
6000
6600
7E00
6600
6200
6000
6080
6100
FF00
ENDCHAR
STARTCHAR 1EC5
ENCODING 7877
SWIDTH 480 0
DWIDTH 8 0
BBX 6 15 1 0
BITMAP
70
5C
00
18
28
04
00
38
44
FC
C0
C0
C0
7C
38
ENDCHAR
STARTCHAR 1EC6
ENCODING 7878
SWIDTH 600 0
DWIDTH 10 0
BBX 9 17 1 -3
BITMAP
0800
0400
FF00
6100
6000
6000
6600
7E00
6600
6200
6000
6080
6100
FF00
0000
0800
0800
ENDCHAR
STARTCHAR 1EC7
ENCODING 7879
SWIDTH 480 0
DWIDTH 8 0
BBX 6 15 1 -3
BITMAP
10
28
04
00
38
4C
FC
C0
C0
C0
7C
38
00
10
10
ENDCHAR
STARTCHAR 1EC8
ENCODING 7880
SWIDTH 360 0
DWIDTH 6 0
BBX 4 16 1 0
BITMAP
20
20
00
00
F0
60
60
60
60
60
60
60
60
60
60
E0
ENDCHAR
STARTCHAR 1EC9
ENCODING 7881
SWIDTH 300 0
DWIDTH 5 0
BBX 2 12 2 0
BITMAP
C0
40
00
00
C0
C0
C0
C0
C0
C0
C0
C0
ENDCHAR
STARTCHAR 1ECA
ENCODING 7882
SWIDTH 360 0
DWIDTH 6 0
BBX 3 15 1 -3
BITMAP
E0
60
60
60
60
60
60
60
60
60
60
E0
00
40
40
ENDCHAR
STARTCHAR 1ECB
ENCODING 7883
SWIDTH 300 0
DWIDTH 5 0
BBX 2 15 2 -3
BITMAP
80
80
00
00
C0
C0
C0
C0
C0
C0
C0
C0
00
80
80
ENDCHAR
STARTCHAR 1ECC
ENCODING 7884
SWIDTH 720 0
DWIDTH 12 0
BBX 10 15 1 -3
BITMAP
1E00
2180
40C0
C040
C040
C040
C040
C040
C040
40C0
2080
1F00
0000
0400
0400
ENDCHAR
STARTCHAR 1ECD
ENCODING 7885
SWIDTH 540 0
DWIDTH 9 0
BBX 7 11 1 -3
BITMAP
38
44
C6
C6
C6
C6
44
38
00
10
10
ENDCHAR
STARTCHAR 1ECE
ENCODING 7886
SWIDTH 720 0
DWIDTH 12 0
BBX 11 16 1 0
BITMAP
0400
0E00
0400
0000
1E00
2180
40C0
C040
C040
C040
C060
C040
C040
40C0
2080
1F00
ENDCHAR
STARTCHAR 1ECF
ENCODING 7887
SWIDTH 540 0
DWIDTH 9 0
BBX 7 12 1 0
BITMAP
18
08
10
00
38
44
C6
C6
C6
C6
44
38
ENDCHAR
STARTCHAR 1ED0
ENCODING 7888
SWIDTH 720 0
DWIDTH 12 0
BBX 11 16 1 0
BITMAP
0600
0000
0E00
0000
1E00
2180
40C0
C040
C040
C040
C060
C040
C040
40C0
2080
1F00
ENDCHAR
STARTCHAR 1ED1
ENCODING 7889
SWIDTH 540 0
DWIDTH 9 0
BBX 7 16 1 0
BITMAP
08
18
10
00
18
28
04
00
38
44
C6
C6
C6
C6
44
38
ENDCHAR
STARTCHAR 1ED2
ENCODING 7890
SWIDTH 720 0
DWIDTH 12 0
BBX 11 16 1 0
BITMAP
0C00
0000
0E00
0000
1E00
2180
40C0
C040
C040
C040
C060
C040
C040
40C0
2080
1F00
ENDCHAR
STARTCHAR 1ED3
ENCODING 7891
SWIDTH 540 0
DWIDTH 9 0
BBX 7 16 1 0
BITMAP
20
10
00
00
18
28
04
00
38
44
C6
C6
C6
C6
44
38
ENDCHAR
STARTCHAR 1ED4
ENCODING 7892
SWIDTH 720 0
DWIDTH 12 0
BBX 11 16 1 0
BITMAP
0400
0400
0E00
0000
1E00
2180
40C0
C040
C040
C040
C060
C040
C040
40C0
2080
1F00
ENDCHAR
STARTCHAR 1ED5
ENCODING 7893
SWIDTH 540 0
DWIDTH 9 0
BBX 7 16 1 0
BITMAP
18
08
00
00
10
28
04
00
38
44
C6
C6
C6
C6
44
38
ENDCHAR
STARTCHAR 1ED6
ENCODING 7894
SWIDTH 720 0
DWIDTH 12 0
BBX 11 16 1 0
BITMAP
0800
0600
0E00
0000
1E00
2180
40C0
C040
C040
C040
C060
C040
C040
40C0
2080
1F00
ENDCHAR
STARTCHAR 1ED7
ENCODING 7895
SWIDTH 540 0
DWIDTH 9 0
BBX 7 15 1 0
BITMAP
70
5C
00
18
28
04
00
38
44
C6
C6
C6
C6
44
38
ENDCHAR
STARTCHAR 1ED8
ENCODING 7896
SWIDTH 720 0
DWIDTH 12 0
BBX 10 17 1 -3
BITMAP
0E00
0000
1E00
2180
40C0
C040
C040
C040
C040
C040
C040
40C0
2080
1F00
0000
0400
0400
ENDCHAR
STARTCHAR 1ED9
ENCODING 7897
SWIDTH 540 0
DWIDTH 9 0
BBX 7 15 1 -3
BITMAP
18
28
04
00
38
44
C6
C6
C6
C6
44
38
00
10
10
ENDCHAR
STARTCHAR 1EDA
ENCODING 7898
SWIDTH 720 0
DWIDTH 12 0
BBX 11 16 1 0
BITMAP
0300
0600
0400
0040
1F80
2080
40C0
C040
C040
C060
C040
C040
C040
4080
2080
1F00
ENDCHAR
STARTCHAR 1EDB
ENCODING 7899
SWIDTH 540 0
DWIDTH 9 0
BBX 8 12 1 0
BITMAP
08
10
10
00
39
45
C6
C6
C6
C6
44
38
ENDCHAR
STARTCHAR 1EDC
ENCODING 7900
SWIDTH 720 0
DWIDTH 12 0
BBX 11 16 1 0
BITMAP
1800
0800
0800
0440
1F80
2080
40C0
C040
C040
C060
C040
C040
C040
4080
2080
1F00
ENDCHAR
STARTCHAR 1EDD
ENCODING 7901
SWIDTH 540 0
DWIDTH 9 0
BBX 8 12 1 0
BITMAP
30
10
00
00
39
45
C6
C6
C6
C6
44
38
ENDCHAR
STARTCHAR 1EDE
ENCODING 7902
SWIDTH 720 0
DWIDTH 12 0
BBX 11 16 1 0
BITMAP
0400
0E00
0400
0040
1F80
2080
40C0
C040
C040
C060
C040
C040
C040
4080
2080
1F00
ENDCHAR
STARTCHAR 1EDF
ENCODING 7903
SWIDTH 540 0
DWIDTH 9 0
BBX 8 12 1 0
BITMAP
18
08
10
00
39
45
C6
C6
C6
C6
44
38
ENDCHAR
STARTCHAR 1EE0
ENCODING 7904
SWIDTH 720 0
DWIDTH 12 0
BBX 11 15 1 0
BITMAP
1800
0F00
0040
1F80
2080
40C0
C040
C040
C060
C040
C040
C040
4080
2080
1F00
ENDCHAR
STARTCHAR 1EE1
ENCODING 7905
SWIDTH 540 0
DWIDTH 9 0
BBX 8 12 1 0
BITMAP
70
1C
00
00
39
45
C6
C6
C6
C6
44
38
ENDCHAR
STARTCHAR 1EE2
ENCODING 7906
SWIDTH 720 0
DWIDTH 12 0
BBX 11 16 1 -2
BITMAP
0040
1F80
2080
40C0
C040
C040
C060
C040
C040
C040
4080
2080
1F00
0000
0400
0400
ENDCHAR
STARTCHAR 1EE3
ENCODING 7907
SWIDTH 540 0
DWIDTH 9 0
BBX 8 11 1 -2
BITMAP
39
45
C6
C6
C6
C6
44
38
00
10
10
ENDCHAR
STARTCHAR 1EE4
ENCODING 7908
SWIDTH 780 0
DWIDTH 13 0
BBX 11 15 1 -3
BITMAP
E0E0
60C0
60C0
60C0
60C0
60C0
60C0
60C0
60C0
60C0
2180
1F00
0000
0400
0400
ENDCHAR
STARTCHAR 1EE5
ENCODING 7909
SWIDTH 480 0
DWIDTH 8 0
BBX 6 11 1 -3
BITMAP
CC
CC
CC
CC
CC
CC
CC
7C
00
20
20
ENDCHAR
STARTCHAR 1EE6
ENCODING 7910
SWIDTH 780 0
DWIDTH 13 0
BBX 11 16 1 0
BITMAP
0400
0200
0400
0000
E0E0
60C0
60C0
60C0
60C0
60C0
60C0
60C0
60C0
60C0
2180
1F00
ENDCHAR
STARTCHAR 1EE7
ENCODING 7911
SWIDTH 480 0
DWIDTH 8 0
BBX 6 12 1 0
BITMAP
10
10
00
00
CC
C4
C4
C4
C4
C4
DC
64
ENDCHAR
STARTCHAR 1EE8
ENCODING 7912
SWIDTH 840 0
DWIDTH 14 0
BBX 13 16 1 0
BITMAP
0600
0400
0800
0808
E0F0
60C0
60C0
60C0
60C0
60C0
60C0
60C0
60C0
60C0
2180
1F00
ENDCHAR
STARTCHAR 1EE9
ENCODING 7913
SWIDTH 540 0
DWIDTH 9 0
BBX 8 12 1 0
BITMAP
10
20
20
00
CF
CE
CC
CC
CC
CC
CC
7C
ENDCHAR
STARTCHAR 1EEA
ENCODING 7914
SWIDTH 840 0
DWIDTH 14 0
BBX 13 16 1 0
BITMAP
0800
0C00
0400
0008
E0F0
60C0
60C0
60C0
60C0
60C0
60C0
60C0
60C0
60C0
2180
1F00
ENDCHAR
STARTCHAR 1EEB
ENCODING 7915
SWIDTH 540 0
DWIDTH 9 0
BBX 8 12 1 0
BITMAP
20
20
10
00
CF
CE
CC
CC
CC
CC
CC
7C
ENDCHAR
STARTCHAR 1EEC
ENCODING 7916
SWIDTH 840 0
DWIDTH 14 0
BBX 13 16 1 0
BITMAP
0400
0200
0408
0008
E0F0
60C0
60C0
60C0
60C0
60C0
60C0
60C0
60C0
60C0
2180
1F00
ENDCHAR
STARTCHAR 1EED
ENCODING 7917
SWIDTH 540 0
DWIDTH 9 0
BBX 8 12 1 0
BITMAP
10
10
00
00
CF
C6
C4
C4
C4
C4
DC
64
ENDCHAR
STARTCHAR 1EEE
ENCODING 7918
SWIDTH 840 0
DWIDTH 14 0
BBX 13 15 1 0
BITMAP
1900
0608
0008
E0F0
60C0
60C0
60C0
60C0
60C0
60C0
60C0
60C0
60C0
2180
1F00
ENDCHAR
STARTCHAR 1EEF
ENCODING 7919
SWIDTH 540 0
DWIDTH 9 0
BBX 8 12 1 0
BITMAP
64
9C
00
00
CF
CE
CC
CC
CC
CC
CC
7C
ENDCHAR
STARTCHAR 1EF0
ENCODING 7920
SWIDTH 840 0
DWIDTH 14 0
BBX 13 16 1 -2
BITMAP
0008
E0F0
60C0
60C0
60C0
60C0
60C0
60C0
60C0
60C0
60C0
2180
1F00
0000
0400
0400
ENDCHAR
STARTCHAR 1EF1
ENCODING 7921
SWIDTH 540 0
DWIDTH 9 0
BBX 8 11 1 -2
BITMAP
CF
CE
CC
CC
CC
CC
CC
7C
00
20
20
ENDCHAR
STARTCHAR 1EF2
ENCODING 7922
SWIDTH 720 0
DWIDTH 12 0
BBX 10 16 1 0
BITMAP
1800
0800
0800
0400
E0C0
6080
6100
3100
3200
1C00
0C00
0C00
0C00
0C00
0C00
1C00
ENDCHAR
STARTCHAR 1EF3
ENCODING 7923
SWIDTH 540 0
DWIDTH 9 0
BBX 7 16 1 -4
BITMAP
30
10
00
00
C2
42
64
24
28
38
18
10
10
10
E0
C0
ENDCHAR
STARTCHAR 1EF4
ENCODING 7924
SWIDTH 720 0
DWIDTH 12 0
BBX 10 15 1 -3
BITMAP
E0C0
6080
6100
3100
3200
1C00
0C00
0C00
0C00
0C00
0C00
1C00
0000
0800
0800
ENDCHAR
STARTCHAR 1EF5
ENCODING 7925
SWIDTH 480 0
DWIDTH 8 0
BBX 6 12 1 -4
BITMAP
C4
C4
48
68
28
30
10
10
20
28
E8
C0
ENDCHAR
STARTCHAR 1EF6
ENCODING 7926
SWIDTH 720 0
DWIDTH 12 0
BBX 10 16 1 0
BITMAP
0C00
0400
0000
0000
E0C0
6080
6100
3100
3200
1C00
0C00
0C00
0C00
0C00
0C00
1C00
ENDCHAR
STARTCHAR 1EF7
ENCODING 7927
SWIDTH 540 0
DWIDTH 9 0
BBX 8 16 1 -4
BITMAP
38
08
10
00
C3
C2
42
64
24
38
18
10
10
10
A0
C0
ENDCHAR
STARTCHAR 1EF8
ENCODING 7928
SWIDTH 720 0
DWIDTH 12 0
BBX 11 15 0 0
BITMAP
0C00
0700
0000
F060
6040
3080
1880
1900
0E00
0600
0600
0600
0600
0600
0E00
ENDCHAR
STARTCHAR 1EF9
ENCODING 7929
SWIDTH 540 0
DWIDTH 9 0
BBX 7 16 1 -4
BITMAP
30
5C
0C
00
C2
42
64
24
34
18
18
18
10
10
E0
C0
ENDCHAR
STARTCHAR 200C
ENCODING 8204
SWIDTH 0 0
DWIDTH 0 0
BBX 1 13 0 -1
BITMAP
80
80
80
80
80
80
80
80
80
80
80
80
80
ENDCHAR
STARTCHAR 200D
ENCODING 8205
SWIDTH 0 0
DWIDTH 0 0
BBX 3 14 -1 -1
BITMAP
A0
40
E0
40
40
40
40
40
40
40
40
40
40
40
ENDCHAR
STARTCHAR 200E
ENCODING 8206
SWIDTH 0 0
DWIDTH 0 0
BBX 4 14 0 -1
BITMAP
20
F0
A0
80
80
80
80
80
80
80
80
80
80
80
ENDCHAR
STARTCHAR 200F
ENCODING 8207
SWIDTH 0 0
DWIDTH 0 0
BBX 4 14 -3 -1
BITMAP
40
F0
50
10
10
10
10
10
10
10
10
10
10
10
ENDCHAR
STARTCHAR 2013
ENCODING 8211
SWIDTH 480 0
DWIDTH 8 0
BBX 8 1 0 4
BITMAP
FF
ENDCHAR
STARTCHAR 2014
ENCODING 8212
SWIDTH 1020 0
DWIDTH 17 0
BBX 17 1 0 4
BITMAP
FFFF80
ENDCHAR
STARTCHAR 2015
ENCODING 8213
SWIDTH 1080 0
DWIDTH 18 0
BBX 16 1 1 4
BITMAP
FFFF
ENDCHAR
STARTCHAR 2017
ENCODING 8215
SWIDTH 480 0
DWIDTH 8 0
BBX 8 2 0 -4
BITMAP
FF
FF
ENDCHAR
STARTCHAR 2018
ENCODING 8216
SWIDTH 360 0
DWIDTH 6 0
BBX 2 4 2 8
BITMAP
80
80
C0
C0
ENDCHAR
STARTCHAR 2019
ENCODING 8217
SWIDTH 360 0
DWIDTH 6 0
BBX 2 3 2 7
BITMAP
C0
C0
40
ENDCHAR
STARTCHAR 201A
ENCODING 8218
SWIDTH 360 0
DWIDTH 6 0
BBX 3 5 1 -3
BITMAP
E0
E0
20
60
80
ENDCHAR
STARTCHAR 201B
ENCODING 8219
SWIDTH 360 0
DWIDTH 6 0
BBX 3 4 1 7
BITMAP
60
E0
C0
40
ENDCHAR
STARTCHAR 201C
ENCODING 8220
SWIDTH 480 0
DWIDTH 8 0
BBX 7 4 1 8
BITMAP
48
C8
EE
6E
ENDCHAR
STARTCHAR 201D
ENCODING 8221
SWIDTH 480 0
DWIDTH 8 0
BBX 7 4 0 7
BITMAP
EC
EE
26
64
ENDCHAR
STARTCHAR 201E
ENCODING 8222
SWIDTH 480 0
DWIDTH 8 0
BBX 7 4 0 -3
BITMAP
4C
EE
26
24
ENDCHAR
STARTCHAR 2020
ENCODING 8224
SWIDTH 480 0
DWIDTH 8 0
BBX 7 16 0 -4
BITMAP
10
10
10
10
FE
92
10
10
10
10
10
10
10
10
10
10
ENDCHAR
STARTCHAR 2021
ENCODING 8225
SWIDTH 480 0
DWIDTH 8 0
BBX 6 16 1 -4
BITMAP
30
30
10
FC
10
30
10
10
18
10
30
14
FC
10
10
10
ENDCHAR
STARTCHAR 2022
ENCODING 8226
SWIDTH 360 0
DWIDTH 6 0
BBX 4 4 1 3
BITMAP
60
F0
F0
F0
ENDCHAR
STARTCHAR 2026
ENCODING 8230
SWIDTH 960 0
DWIDTH 16 0
BBX 12 2 2 0
BITMAP
8210
8210
ENDCHAR
STARTCHAR 2030
ENCODING 8240
SWIDTH 1020 0
DWIDTH 17 0
BBX 15 12 1 0
BITMAP
7080
D880
D900
DA00
DA00
2400
098C
0A5A
125A
2672
225A
418E
ENDCHAR
STARTCHAR 2032
ENCODING 8242
SWIDTH 240 0
DWIDTH 4 0
BBX 2 5 1 7
BITMAP
40
C0
C0
80
80
ENDCHAR
STARTCHAR 2033
ENCODING 8243
SWIDTH 420 0
DWIDTH 7 0
BBX 5 5 1 7
BITMAP
48
58
58
90
90
ENDCHAR
STARTCHAR 2039
ENCODING 8249
SWIDTH 360 0
DWIDTH 6 0
BBX 3 6 1 1
BITMAP
20
40
C0
C0
40
20
ENDCHAR
STARTCHAR 203A
ENCODING 8250
SWIDTH 360 0
DWIDTH 6 0
BBX 3 8 1 0
BITMAP
80
40
40
20
20
40
40
80
ENDCHAR
STARTCHAR 203C
ENCODING 8252
SWIDTH 540 0
DWIDTH 9 0
BBX 6 12 2 0
BITMAP
88
CC
88
88
88
88
88
88
00
00
88
88
ENDCHAR
STARTCHAR 203E
ENCODING 8254
SWIDTH 360 0
DWIDTH 6 0
BBX 6 1 0 9
BITMAP
FC
ENDCHAR
STARTCHAR 2044
ENCODING 8260
SWIDTH 180 0
DWIDTH 3 0
BBX 7 11 -2 0
BITMAP
02
02
04
08
08
10
20
20
40
40
80
ENDCHAR
STARTCHAR 207F
ENCODING 8319
SWIDTH 360 0
DWIDTH 6 0
BBX 6 5 0 4
BITMAP
78
78
78
78
FC
ENDCHAR
STARTCHAR 20A3
ENCODING 8355
SWIDTH 540 0
DWIDTH 9 0
BBX 8 12 0 0
BITMAP
7F
31
30
30
32
3E
32
32
FC
30
30
70
ENDCHAR
STARTCHAR 20A4
ENCODING 8356
SWIDTH 540 0
DWIDTH 9 0
BBX 8 12 1 0
BITMAP
1C
26
20
20
78
20
78
20
20
61
FE
CC
ENDCHAR
STARTCHAR 20A7
ENCODING 8359
SWIDTH 1020 0
DWIDTH 17 0
BBX 15 12 1 0
BITMAP
FC00
6600
6280
6380
63DE
67B2
7DB0
619C
618E
61A6
61A2
E0F4
ENDCHAR
STARTCHAR 20AA
ENCODING 8362
SWIDTH 780 0
DWIDTH 13 0
BBX 11 9 1 0
BITMAP
FE60
C260
C360
DB60
DB60
DB60
D860
D840
DFC0
ENDCHAR
STARTCHAR 20AB
ENCODING 8363
SWIDTH 540 0
DWIDTH 9 0
BBX 6 10 2 2
BITMAP
18
3C
18
38
D8
D8
D8
D8
78
FC
ENDCHAR
STARTCHAR 20AC
ENCODING 8364
SWIDTH 480 0
DWIDTH 8 0
BBX 8 12 0 0
BITMAP
1E
21
61
41
40
FE
FC
C0
40
41
62
3C
ENDCHAR
STARTCHAR 2105
ENCODING 8453
SWIDTH 840 0
DWIDTH 14 0
BBX 13 13 0 -1
BITMAP
2020
5840
8080
8080
8100
CA00
7200
04F0
0888
0888
1088
2070
2000
ENDCHAR
STARTCHAR 2113
ENCODING 8467
SWIDTH 480 0
DWIDTH 8 0
BBX 7 12 0 0
BITMAP
08
34
24
24
28
30
20
20
E0
20
22
1C
ENDCHAR
STARTCHAR 2116
ENCODING 8470
SWIDTH 960 0
DWIDTH 16 0
BBX 16 11 0 0
BITMAP
7870
18A0
1C80
1C8C
1692
1292
1392
1192
1184
1080
E09F
ENDCHAR
STARTCHAR 2122
ENCODING 8482
SWIDTH 960 0
DWIDTH 16 0
BBX 16 7 0 4
BITMAP
FCC2
90C6
10EA
10AA
10B2
1092
39C7
ENDCHAR
STARTCHAR 2126
ENCODING 8486
SWIDTH 780 0
DWIDTH 13 0
BBX 12 11 1 0
BITMAP
1F00
60C0
4040
C060
C060
C060
C060
60C0
1190
F9F0
F9F0
ENDCHAR
STARTCHAR 212E
ENCODING 8494
SWIDTH 600 0
DWIDTH 10 0
BBX 9 9 1 0
BITMAP
3E00
4100
C100
C180
FF80
C000
C000
4100
3E00
ENDCHAR
STARTCHAR 2153
ENCODING 8531
SWIDTH 780 0
DWIDTH 13 0
BBX 11 12 1 0
BITMAP
6080
6100
6200
6200
6400
E400
09C0
0840
10C0
2060
2060
41C0
ENDCHAR
STARTCHAR 2154
ENCODING 8532
SWIDTH 840 0
DWIDTH 14 0
BBX 12 12 1 0
BITMAP
7040
9880
1100
2100
4200
7C00
04E0
0820
0860
1030
2030
20E0
ENDCHAR
STARTCHAR 215B
ENCODING 8539
SWIDTH 780 0
DWIDTH 13 0
BBX 11 12 1 0
BITMAP
6000
6100
6100
6200
6200
E4C0
05E0
09E0
1080
11E0
21E0
20C0
ENDCHAR
STARTCHAR 215C
ENCODING 8540
SWIDTH 780 0
DWIDTH 13 0
BBX 12 12 0 0
BITMAP
7040
1080
3080
1100
1200
E200
04F0
04F0
0840
10F0
10F0
2060
ENDCHAR
STARTCHAR 215D
ENCODING 8541
SWIDTH 720 0
DWIDTH 12 0
BBX 11 12 0 0
BITMAP
7000
C100
3100
1A00
1200
E440
08E0
08E0
1040
10E0
21E0
00E0
ENDCHAR
STARTCHAR 215E
ENCODING 8542
SWIDTH 780 0
DWIDTH 13 0
BBX 12 12 0 0
BITMAP
7040
9080
1080
2100
2200
0200
04F0
08F0
0840
10F0
20F0
2060
ENDCHAR
STARTCHAR 2190
ENCODING 8592
SWIDTH 1020 0
DWIDTH 17 0
BBX 15 6 1 2
BITMAP
2000
6000
FFFE
4000
2000
1000
ENDCHAR
STARTCHAR 2191
ENCODING 8593
SWIDTH 480 0
DWIDTH 8 0
BBX 6 14 1 -4
BITMAP
10
38
78
94
10
10
10
10
10
10
10
10
10
10
ENDCHAR
STARTCHAR 2192
ENCODING 8594
SWIDTH 1020 0
DWIDTH 17 0
BBX 15 6 1 2
BITMAP
0010
000C
FFFE
000C
0008
0010
ENDCHAR
STARTCHAR 2193
ENCODING 8595
SWIDTH 480 0
DWIDTH 8 0
BBX 6 14 1 -4
BITMAP
10
10
10
10
10
10
10
10
10
10
90
5C
38
10
ENDCHAR
STARTCHAR 2194
ENCODING 8596
SWIDTH 1020 0
DWIDTH 17 0
BBX 15 6 1 2
BITMAP
2010
600C
FFFE
400C
2008
1010
ENDCHAR
STARTCHAR 2195
ENCODING 8597
SWIDTH 480 0
DWIDTH 8 0
BBX 6 15 1 -4
BITMAP
10
38
78
94
10
10
10
10
10
10
10
90
5C
38
10
ENDCHAR
STARTCHAR 21A8
ENCODING 8616
SWIDTH 480 0
DWIDTH 8 0
BBX 6 17 1 -5
BITMAP
10
30
78
94
10
10
10
10
10
10
10
10
5C
38
10
00
FC
ENDCHAR
STARTCHAR 2202
ENCODING 8706
SWIDTH 480 0
DWIDTH 8 0
BBX 7 12 1 0
BITMAP
3C
46
02
1A
66
42
82
84
84
84
88
70
ENDCHAR
STARTCHAR 2206
ENCODING 8710
SWIDTH 600 0
DWIDTH 10 0
BBX 10 11 0 1
BITMAP
0400
0C00
0C00
1600
1200
2300
2100
2180
4180
4080
FFC0
ENDCHAR
STARTCHAR 220F
ENCODING 8719
SWIDTH 840 0
DWIDTH 14 0
BBX 13 16 0 -4
BITMAP
FFF8
6030
6030
6030
6030
6030
6030
6030
6030
6030
6030
6030
6030
6030
6030
F8F8
ENDCHAR
STARTCHAR 2211
ENCODING 8721
SWIDTH 720 0
DWIDTH 12 0
BBX 12 15 0 -4
BITMAP
FFE0
6020
3000
1000
1800
0C00
0600
0200
0400
0800
0800
1000
2010
4020
7FE0
ENDCHAR
STARTCHAR 2212
ENCODING 8722
SWIDTH 540 0
DWIDTH 9 0
BBX 9 1 0 5
BITMAP
FF80
ENDCHAR
STARTCHAR 2215
ENCODING 8725
SWIDTH 180 0
DWIDTH 3 0
BBX 7 11 -2 0
BITMAP
02
02
04
08
08
10
20
20
40
40
80
ENDCHAR
STARTCHAR 2219
ENCODING 8729
SWIDTH 240 0
DWIDTH 4 0
BBX 1 2 1 5
BITMAP
80
80
ENDCHAR
STARTCHAR 221A
ENCODING 8730
SWIDTH 540 0
DWIDTH 9 0
BBX 8 15 1 0
BITMAP
01
01
01
01
02
02
02
E2
22
12
14
0C
0C
04
04
ENDCHAR
STARTCHAR 221E
ENCODING 8734
SWIDTH 720 0
DWIDTH 12 0
BBX 12 7 0 1
BITMAP
01C0
7320
8E20
8410
8410
4E20
31C0
ENDCHAR
STARTCHAR 221F
ENCODING 8735
SWIDTH 960 0
DWIDTH 16 0
BBX 10 10 3 1
BITMAP
8000
8000
8000
8000
8000
8000
8000
8000
8000
FFC0
ENDCHAR
STARTCHAR 2229
ENCODING 8745
SWIDTH 720 0
DWIDTH 12 0
BBX 9 11 2 -1
BITMAP
3C00
4300
8100
8080
8080
8080
8080
8080
8080
8080
8080
ENDCHAR
STARTCHAR 222B
ENCODING 8747
SWIDTH 300 0
DWIDTH 5 0
BBX 5 17 0 -2
BITMAP
18
38
20
20
20
20
20
20
20
20
20
20
20
20
20
20
C0
ENDCHAR
STARTCHAR 2248
ENCODING 8776
SWIDTH 540 0
DWIDTH 9 0
BBX 9 7 0 2
BITMAP
6080
9880
8700
0000
6080
9880
8700
ENDCHAR
STARTCHAR 2260
ENCODING 8800
SWIDTH 540 0
DWIDTH 9 0
BBX 9 12 0 -1
BITMAP
0200
0200
0400
FF80
0800
0800
0800
FF80
1000
2000
2000
2000
ENDCHAR
STARTCHAR 2261
ENCODING 8801
SWIDTH 540 0
DWIDTH 9 0
BBX 9 7 0 2
BITMAP
FF80
0000
0000
FF80
0000
0000
FF80
ENDCHAR
STARTCHAR 2264
ENCODING 8804
SWIDTH 540 0
DWIDTH 9 0
BBX 9 11 0 0
BITMAP
0180
0E00
3000
C000
7000
0C00
0300
0000
0000
0000
FF80
ENDCHAR
STARTCHAR 2265
ENCODING 8805
SWIDTH 540 0
DWIDTH 9 0
BBX 9 11 0 0
BITMAP
E000
1800
0600
0180
0300
1C00
6000
8000
0000
0000
FF80
ENDCHAR
STARTCHAR 2302
ENCODING 8962
SWIDTH 600 0
DWIDTH 10 0
BBX 8 9 1 1
BITMAP
18
24
42
81
81
81
81
81
FF
ENDCHAR
STARTCHAR 2310
ENCODING 8976
SWIDTH 540 0
DWIDTH 9 0
BBX 9 3 0 3
BITMAP
FF80
8000
8000
ENDCHAR
STARTCHAR 2320
ENCODING 8992
SWIDTH 600 0
DWIDTH 10 0
BBX 3 18 5 -5
BITMAP
60
A0
80
80
80
80
80
80
80
80
80
80
80
80
80
80
80
80
ENDCHAR
STARTCHAR 2321
ENCODING 8993
SWIDTH 600 0
DWIDTH 10 0
BBX 3 18 3 -3
BITMAP
20
20
20
20
20
20
20
20
20
20
20
20
20
20
20
20
A0
C0
ENDCHAR
STARTCHAR 2500
ENCODING 9472
SWIDTH 720 0
DWIDTH 12 0
BBX 12 1 0 4
BITMAP
FFF0
ENDCHAR
STARTCHAR 2502
ENCODING 9474
SWIDTH 720 0
DWIDTH 12 0
BBX 1 20 5 -5
BITMAP
80
80
80
80
80
80
80
80
80
80
80
80
80
80
80
80
80
80
80
80
ENDCHAR
STARTCHAR 250C
ENCODING 9484
SWIDTH 720 0
DWIDTH 12 0
BBX 7 11 5 -5
BITMAP
FE
80
80
80
80
80
80
80
80
80
80
ENDCHAR
STARTCHAR 2510
ENCODING 9488
SWIDTH 720 0
DWIDTH 12 0
BBX 6 11 0 -5
BITMAP
FC
04
04
04
04
04
04
04
04
04
04
ENDCHAR
STARTCHAR 2514
ENCODING 9492
SWIDTH 720 0
DWIDTH 12 0
BBX 7 10 5 5
BITMAP
80
80
80
80
80
80
80
80
80
FE
ENDCHAR
STARTCHAR 2518
ENCODING 9496
SWIDTH 720 0
DWIDTH 12 0
BBX 6 10 0 5
BITMAP
04
04
04
04
04
04
04
04
04
FC
ENDCHAR
STARTCHAR 251C
ENCODING 9500
SWIDTH 720 0
DWIDTH 12 0
BBX 7 20 5 -5
BITMAP
80
80
80
80
80
80
80
80
80
FE
80
80
80
80
80
80
80
80
80
80
ENDCHAR
STARTCHAR 2524
ENCODING 9508
SWIDTH 720 0
DWIDTH 12 0
BBX 6 20 0 -5
BITMAP
04
04
04
04
04
04
04
04
04
FC
04
04
04
04
04
04
04
04
04
04
ENDCHAR
STARTCHAR 252C
ENCODING 9516
SWIDTH 720 0
DWIDTH 12 0
BBX 12 11 0 -5
BITMAP
FFF0
0400
0400
0400
0400
0400
0400
0400
0400
0400
0400
ENDCHAR
STARTCHAR 2534
ENCODING 9524
SWIDTH 720 0
DWIDTH 12 0
BBX 12 10 0 5
BITMAP
0400
0400
0400
0400
0400
0400
0400
0400
0400
FFF0
ENDCHAR
STARTCHAR 253C
ENCODING 9532
SWIDTH 720 0
DWIDTH 12 0
BBX 12 20 0 -5
BITMAP
0400
0400
0400
0400
0400
0400
0400
0400
0400
FFF0
0400
0400
0400
0400
0400
0400
0400
0400
0400
0400
ENDCHAR
STARTCHAR 2550
ENCODING 9552
SWIDTH 720 0
DWIDTH 12 0
BBX 12 4 0 3
BITMAP
FFF0
0000
0000
FFF0
ENDCHAR
STARTCHAR 2551
ENCODING 9553
SWIDTH 720 0
DWIDTH 12 0
BBX 4 20 4 -5
BITMAP
90
90
90
90
90
90
90
90
90
90
90
90
90
90
90
90
90
90
90
90
ENDCHAR
STARTCHAR 2552
ENCODING 9554
SWIDTH 720 0
DWIDTH 12 0
BBX 7 12 5 -5
BITMAP
FE
80
80
FE
80
80
80
80
80
80
80
80
ENDCHAR
STARTCHAR 2553
ENCODING 9555
SWIDTH 720 0
DWIDTH 12 0
BBX 8 11 4 -5
BITMAP
FF
F0
90
90
90
90
90
90
90
90
90
ENDCHAR
STARTCHAR 2554
ENCODING 9556
SWIDTH 720 0
DWIDTH 12 0
BBX 8 12 4 -5
BITMAP
FF
80
80
9F
90
90
90
90
90
90
90
90
ENDCHAR
STARTCHAR 2555
ENCODING 9557
SWIDTH 720 0
DWIDTH 12 0
BBX 6 12 0 -5
BITMAP
FC
04
04
FC
04
04
04
04
04
04
04
04
ENDCHAR
STARTCHAR 2556
ENCODING 9558
SWIDTH 720 0
DWIDTH 12 0
BBX 8 11 0 -5
BITMAP
FF
09
09
09
09
09
09
09
09
09
09
ENDCHAR
STARTCHAR 2557
ENCODING 9559
SWIDTH 720 0
DWIDTH 12 0
BBX 8 12 0 -5
BITMAP
FF
01
01
F9
09
09
09
09
09
09
09
09
ENDCHAR
STARTCHAR 2558
ENCODING 9560
SWIDTH 720 0
DWIDTH 12 0
BBX 7 12 5 3
BITMAP
80
80
80
80
80
80
80
80
FE
80
80
FE
ENDCHAR
STARTCHAR 2559
ENCODING 9561
SWIDTH 720 0
DWIDTH 12 0
BBX 8 10 4 5
BITMAP
90
90
90
90
90
90
90
90
90
FF
ENDCHAR
STARTCHAR 255A
ENCODING 9562
SWIDTH 720 0
DWIDTH 12 0
BBX 8 12 4 3
BITMAP
90
90
90
90
90
90
90
90
9F
80
80
FF
ENDCHAR
STARTCHAR 255B
ENCODING 9563
SWIDTH 720 0
DWIDTH 12 0
BBX 6 12 0 3
BITMAP
04
04
04
04
04
04
04
04
FC
04
04
FC
ENDCHAR
STARTCHAR 255C
ENCODING 9564
SWIDTH 720 0
DWIDTH 12 0
BBX 8 10 0 5
BITMAP
09
09
09
09
09
09
09
09
09
FF
ENDCHAR
STARTCHAR 255D
ENCODING 9565
SWIDTH 720 0
DWIDTH 12 0
BBX 8 12 0 3
BITMAP
09
09
09
09
09
09
09
09
F9
01
01
FF
ENDCHAR
STARTCHAR 255E
ENCODING 9566
SWIDTH 720 0
DWIDTH 12 0
BBX 7 20 5 -5
BITMAP
80
80
80
80
80
80
80
80
FE
80
80
FE
80
80
80
80
80
80
80
80
ENDCHAR
STARTCHAR 255F
ENCODING 9567
SWIDTH 720 0
DWIDTH 12 0
BBX 8 20 4 -5
BITMAP
90
90
90
90
90
90
90
90
90
9F
90
90
90
90
90
90
90
90
90
90
ENDCHAR
STARTCHAR 2560
ENCODING 9568
SWIDTH 720 0
DWIDTH 12 0
BBX 8 20 4 -5
BITMAP
90
90
90
90
90
90
90
90
9F
80
80
9F
90
90
90
90
90
90
90
90
ENDCHAR
STARTCHAR 2561
ENCODING 9569
SWIDTH 720 0
DWIDTH 12 0
BBX 6 20 0 -5
BITMAP
04
04
04
04
04
04
04
04
FC
04
04
FC
04
04
04
04
04
04
04
04
ENDCHAR
STARTCHAR 2562
ENCODING 9570
SWIDTH 720 0
DWIDTH 12 0
BBX 8 20 0 -5
BITMAP
09
09
09
09
09
09
09
09
09
F9
09
09
09
09
09
09
09
09
09
09
ENDCHAR
STARTCHAR 2563
ENCODING 9571
SWIDTH 720 0
DWIDTH 12 0
BBX 8 20 0 -5
BITMAP
09
09
09
09
09
09
09
09
F9
01
01
F9
09
09
09
09
09
09
09
09
ENDCHAR
STARTCHAR 2564
ENCODING 9572
SWIDTH 720 0
DWIDTH 12 0
BBX 12 12 0 -5
BITMAP
FFF0
0000
0000
FFF0
0400
0400
0400
0400
0400
0400
0400
0400
ENDCHAR
STARTCHAR 2565
ENCODING 9573
SWIDTH 720 0
DWIDTH 12 0
BBX 12 11 0 -5
BITMAP
FFF0
0F00
0900
0900
0900
0900
0900
0900
0900
0900
0900
ENDCHAR
STARTCHAR 2566
ENCODING 9574
SWIDTH 720 0
DWIDTH 12 0
BBX 12 12 0 -5
BITMAP
FFF0
0000
0000
F9F0
0900
0900
0900
0900
0900
0900
0900
0900
ENDCHAR
STARTCHAR 2567
ENCODING 9575
SWIDTH 720 0
DWIDTH 12 0
BBX 12 12 0 3
BITMAP
0400
0400
0400
0400
0400
0400
0400
0400
FFF0
0000
0000
FFF0
ENDCHAR
STARTCHAR 2568
ENCODING 9576
SWIDTH 720 0
DWIDTH 12 0
BBX 12 10 0 5
BITMAP
0900
0900
0900
0900
0900
0900
0900
0900
0900
FFF0
ENDCHAR
STARTCHAR 2569
ENCODING 9577
SWIDTH 720 0
DWIDTH 12 0
BBX 12 12 0 3
BITMAP
0900
0900
0900
0900
0900
0900
0900
0900
F9F0
0000
0000
FFF0
ENDCHAR
STARTCHAR 256A
ENCODING 9578
SWIDTH 720 0
DWIDTH 12 0
BBX 12 20 0 -5
BITMAP
0400
0400
0400
0400
0400
0400
0400
0400
FFF0
0400
0400
FFF0
0400
0400
0400
0400
0400
0400
0400
0400
ENDCHAR
STARTCHAR 256B
ENCODING 9579
SWIDTH 720 0
DWIDTH 12 0
BBX 12 20 0 -5
BITMAP
0900
0900
0900
0900
0900
0900
0900
0900
0900
FFF0
0900
0900
0900
0900
0900
0900
0900
0900
0900
0900
ENDCHAR
STARTCHAR 256C
ENCODING 9580
SWIDTH 720 0
DWIDTH 12 0
BBX 12 20 0 -5
BITMAP
0900
0900
0900
0900
0900
0900
0900
0900
F9F0
0000
0000
F9F0
0900
0900
0900
0900
0900
0900
0900
0900
ENDCHAR
STARTCHAR 2580
ENCODING 9600
SWIDTH 720 0
DWIDTH 12 0
BBX 12 10 0 6
BITMAP
FFF0
FFF0
FFF0
FFF0
FFF0
FFF0
FFF0
FFF0
FFF0
FFF0
ENDCHAR
STARTCHAR 2584
ENCODING 9604
SWIDTH 720 0
DWIDTH 12 0
BBX 12 10 0 -5
BITMAP
FFF0
FFF0
FFF0
FFF0
FFF0
FFF0
FFF0
FFF0
FFF0
FFF0
ENDCHAR
STARTCHAR 2588
ENCODING 9608
SWIDTH 720 0
DWIDTH 12 0
BBX 12 20 0 -5
BITMAP
FFF0
FFF0
FFF0
FFF0
FFF0
FFF0
FFF0
FFF0
FFF0
FFF0
FFF0
FFF0
FFF0
FFF0
FFF0
FFF0
FFF0
FFF0
FFF0
FFF0
ENDCHAR
STARTCHAR 258C
ENCODING 9612
SWIDTH 720 0
DWIDTH 12 0
BBX 6 20 0 -5
BITMAP
FC
FC
FC
FC
FC
FC
FC
FC
FC
FC
FC
FC
FC
FC
FC
FC
FC
FC
FC
FC
ENDCHAR
STARTCHAR 2590
ENCODING 9616
SWIDTH 720 0
DWIDTH 12 0
BBX 6 20 6 -5
BITMAP
FC
FC
FC
FC
FC
FC
FC
FC
FC
FC
FC
FC
FC
FC
FC
FC
FC
FC
FC
FC
ENDCHAR
STARTCHAR 2591
ENCODING 9617
SWIDTH 720 0
DWIDTH 12 0
BBX 11 19 1 -4
BITMAP
8880
0000
2220
0000
8880
0000
2220
0000
8880
0000
2220
0000
8880
0000
2220
0000
8880
0000
2220
ENDCHAR
STARTCHAR 2592
ENCODING 9618
SWIDTH 720 0
DWIDTH 12 0
BBX 12 19 0 -4
BITMAP
5550
0000
AAA0
0000
5550
0000
AAA0
0000
5550
0000
AAA0
0000
5550
0000
AAA0
0000
5550
0000
AAA0
ENDCHAR
STARTCHAR 2593
ENCODING 9619
SWIDTH 720 0
DWIDTH 12 0
BBX 12 20 0 -4
BITMAP
5550
FFF0
AAA0
FFF0
5550
FFF0
AAA0
FFF0
5550
FFF0
AAA0
FFF0
5550
FFF0
AAA0
FFF0
5550
FFF0
AAA0
FFF0
ENDCHAR
STARTCHAR 25A0
ENCODING 9632
SWIDTH 600 0
DWIDTH 10 0
BBX 8 8 1 0
BITMAP
FF
FF
FF
FF
FF
FF
FF
FF
ENDCHAR
STARTCHAR 25A1
ENCODING 9633
SWIDTH 600 0
DWIDTH 10 0
BBX 8 8 1 0
BITMAP
FF
81
81
81
81
81
81
FF
ENDCHAR
STARTCHAR 25AA
ENCODING 9642
SWIDTH 360 0
DWIDTH 6 0
BBX 4 4 1 4
BITMAP
F0
F0
F0
F0
ENDCHAR
STARTCHAR 25AB
ENCODING 9643
SWIDTH 360 0
DWIDTH 6 0
BBX 4 5 1 3
BITMAP
F0
90
90
90
F0
ENDCHAR
STARTCHAR 25AC
ENCODING 9644
SWIDTH 1020 0
DWIDTH 17 0
BBX 17 3 0 2
BITMAP
FFFF80
FFFF80
FFFF80
ENDCHAR
STARTCHAR 25B2
ENCODING 9650
SWIDTH 1020 0
DWIDTH 17 0
BBX 11 11 3 1
BITMAP
0400
0C00
0E00
1E00
1F00
3F00
3F80
7F80
7FC0
FFC0
FFE0
ENDCHAR
STARTCHAR 25BA
ENCODING 9658
SWIDTH 1020 0
DWIDTH 17 0
BBX 12 11 2 0
BITMAP
C000
F000
FC00
FF00
FFC0
FFF0
FFC0
FF00
FC00
F000
C000
ENDCHAR
STARTCHAR 25BC
ENCODING 9660
SWIDTH 1020 0
DWIDTH 17 0
BBX 11 11 3 0
BITMAP
FFE0
FFC0
7FC0
7F80
3F80
3F00
1F00
1E00
0E00
0C00
0400
ENDCHAR
STARTCHAR 25C4
ENCODING 9668
SWIDTH 1020 0
DWIDTH 17 0
BBX 11 11 3 0
BITMAP
0060
01E0
07E0
1FE0
7FE0
FFE0
3FE0
0FE0
03E0
00E0
0020
ENDCHAR
STARTCHAR 25CA
ENCODING 9674
SWIDTH 480 0
DWIDTH 8 0
BBX 8 12 0 0
BITMAP
10
18
24
24
42
42
81
42
22
24
18
18
ENDCHAR
STARTCHAR 25CB
ENCODING 9675
SWIDTH 600 0
DWIDTH 10 0
BBX 8 7 1 1
BITMAP
3C
42
81
81
81
42
3C
ENDCHAR
STARTCHAR 25CF
ENCODING 9679
SWIDTH 600 0
DWIDTH 10 0
BBX 7 7 2 2
BITMAP
78
FC
FE
FE
FE
FC
38
ENDCHAR
STARTCHAR 25D8
ENCODING 9688
SWIDTH 600 0
DWIDTH 10 0
BBX 8 8 1 0
BITMAP
FF
FF
FF
C3
C3
FF
FF
FF
ENDCHAR
STARTCHAR 25D9
ENCODING 9689
SWIDTH 600 0
DWIDTH 10 0
BBX 9 9 0 1
BITMAP
FF80
FF80
FF80
BF80
BF80
BF80
DF80
E380
FF80
ENDCHAR
STARTCHAR 25E6
ENCODING 9702
SWIDTH 360 0
DWIDTH 6 0
BBX 4 5 1 3
BITMAP
60
90
90
90
60
ENDCHAR
STARTCHAR 263A
ENCODING 9786
SWIDTH 1020 0
DWIDTH 17 0
BBX 11 11 3 -1
BITMAP
0E00
3180
4040
4040
9120
8020
8020
9140
4E40
2080
1F00
ENDCHAR
STARTCHAR 263B
ENCODING 9787
SWIDTH 1080 0
DWIDTH 18 0
BBX 11 11 3 -1
BITMAP
0E00
3F80
7FC0
7FE0
6EE0
FFE0
7FE0
6EE0
71C0
3F80
0F00
ENDCHAR
STARTCHAR 263C
ENCODING 9788
SWIDTH 900 0
DWIDTH 15 0
BBX 15 15 0 -1
BITMAP
0100
0108
2390
1C60
1020
1010
2010
E01E
2010
1010
0820
14D0
2308
0100
0100
ENDCHAR
STARTCHAR 2640
ENCODING 9792
SWIDTH 780 0
DWIDTH 13 0
BBX 9 17 2 -4
BITMAP
1800
6600
8100
8100
8080
8080
8080
8100
6200
1C00
0800
0800
FF00
0800
0800
0800
0800
ENDCHAR
STARTCHAR 2642
ENCODING 9794
SWIDTH 780 0
DWIDTH 13 0
BBX 11 15 1 -1
BITMAP
01C0
06C0
0140
0140
0220
0200
1C00
6200
8100
8100
8080
8080
8100
4100
3E00
ENDCHAR
STARTCHAR 2660
ENCODING 9824
SWIDTH 540 0
DWIDTH 9 0
BBX 9 10 0 1
BITMAP
0800
0800
1C00
3E00
7F00
FF80
FF00
0800
1800
7F00
ENDCHAR
STARTCHAR 2663
ENCODING 9827
SWIDTH 660 0
DWIDTH 11 0
BBX 10 11 0 -1
BITMAP
0C00
1E00
1F00
1E80
FFC0
FFC0
FFC0
75C0
0C00
1E00
0100
ENDCHAR
STARTCHAR 2665
ENCODING 9829
SWIDTH 600 0
DWIDTH 10 0
BBX 9 10 0 0
BITMAP
7300
F780
FF80
FF80
7F00
3E00
1E00
1C00
0800
0800
ENDCHAR
STARTCHAR 2666
ENCODING 9830
SWIDTH 540 0
DWIDTH 9 0
BBX 7 10 1 0
BITMAP
10
30
38
7C
FC
FE
7C
78
30
10
ENDCHAR
STARTCHAR 266A
ENCODING 9834
SWIDTH 480 0
DWIDTH 8 0
BBX 8 11 0 0
BITMAP
0E
0F
09
09
08
08
08
78
F8
F8
70
ENDCHAR
STARTCHAR 266B
ENCODING 9835
SWIDTH 780 0
DWIDTH 13 0
BBX 10 14 1 -1
BITMAP
0040
03C0
1FC0
1C40
1040
1040
1040
1040
13C0
17C0
77C0
F380
F000
E000
ENDCHAR
STARTCHAR E801
ENCODING 59393
SWIDTH 300 0
DWIDTH 5 0
BBX 5 11 -1 0
BITMAP
80
00
30
38
08
08
08
08
08
08
08
ENDCHAR
STARTCHAR E802
ENCODING 59394
SWIDTH 480 0
DWIDTH 8 0
BBX 6 12 1 -3
BITMAP
FC
FC
04
04
04
24
04
24
04
04
04
04
ENDCHAR
STARTCHAR E803
ENCODING 59395
SWIDTH 480 0
DWIDTH 8 0
BBX 6 12 1 -2
BITMAP
FC
FC
04
04
04
74
24
24
04
04
04
04
ENDCHAR
STARTCHAR E804
ENCODING 59396
SWIDTH 420 0
DWIDTH 7 0
BBX 8 12 -1 1
BITMAP
60
A0
40
3E
3F
01
01
01
02
04
08
08
ENDCHAR
STARTCHAR E805
ENCODING 59397
SWIDTH 420 0
DWIDTH 7 0
BBX 8 12 -1 0
BITMAP
60
A0
40
3E
3F
01
01
09
02
04
08
08
ENDCHAR
STARTCHAR E818
ENCODING 59416
SWIDTH 240 0
DWIDTH 4 0
BBX 3 6 0 10
BITMAP
20
C0
40
00
E0
80
ENDCHAR
STARTCHAR E83A
ENCODING 59450
SWIDTH 660 0
DWIDTH 11 0
BBX 11 1 0 2
BITMAP
FFE0
ENDCHAR
STARTCHAR F001
ENCODING 61441
SWIDTH 540 0
DWIDTH 9 0
BBX 8 12 0 0
BITMAP
0C
36
20
20
FE
22
22
22
22
22
22
F7
ENDCHAR
STARTCHAR F002
ENCODING 61442
SWIDTH 540 0
DWIDTH 9 0
BBX 9 12 0 0
BITMAP
0D00
3700
2100
2100
7F00
2100
2100
2100
2100
2100
2100
F780
ENDCHAR
STARTCHAR F004
ENCODING 61444
SWIDTH 360 0
DWIDTH 6 0
BBX 2 3 2 -3
BITMAP
C0
40
80
ENDCHAR
STARTCHAR F005
ENCODING 61445
SWIDTH 360 0
DWIDTH 6 0
BBX 2 3 2 -3
BITMAP
C0
40
C0
ENDCHAR
STARTCHAR F006
ENCODING 61446
SWIDTH 0 0
DWIDTH 0 0
BBX 1 1 -3 13
BITMAP
80
ENDCHAR
STARTCHAR F007
ENCODING 61447
SWIDTH 0 0
DWIDTH 0 0
BBX 2 1 -6 13
BITMAP
C0
ENDCHAR
STARTCHAR F008
ENCODING 61448
SWIDTH 0 0
DWIDTH 0 0
BBX 2 2 -3 9
BITMAP
C0
80
ENDCHAR
STARTCHAR F009
ENCODING 61449
SWIDTH 0 0
DWIDTH 0 0
BBX 2 2 -4 12
BITMAP
C0
80
ENDCHAR
STARTCHAR F00F
ENCODING 61455
SWIDTH 0 0
DWIDTH 0 0
BBX 2 2 -5 9
BITMAP
C0
40
ENDCHAR
STARTCHAR F010
ENCODING 61456
SWIDTH 0 0
DWIDTH 0 0
BBX 2 1 -4 13
BITMAP
C0
ENDCHAR
STARTCHAR F011
ENCODING 61457
SWIDTH 0 0
DWIDTH 0 0
BBX 2 1 -7 13
BITMAP
C0
ENDCHAR
STARTCHAR F012
ENCODING 61458
SWIDTH 0 0
DWIDTH 0 0
BBX 3 2 -4 8
BITMAP
40
A0
ENDCHAR
STARTCHAR F013
ENCODING 61459
SWIDTH 0 0
DWIDTH 0 0
BBX 3 3 -5 11
BITMAP
E0
20
40
ENDCHAR
STARTCHAR F014
ENCODING 61460
SWIDTH 0 0
DWIDTH 0 0
BBX 3 3 -5 8
BITMAP
40
A0
40
ENDCHAR
STARTCHAR F015
ENCODING 61461
SWIDTH 0 0
DWIDTH 0 0
BBX 5 2 -8 13
BITMAP
E8
30
ENDCHAR
STARTCHAR F016
ENCODING 61462
SWIDTH 0 0
DWIDTH 0 0
BBX 5 2 -9 12
BITMAP
E0
38
ENDCHAR
STARTCHAR F017
ENCODING 61463
SWIDTH 0 0
DWIDTH 0 0
BBX 5 2 -9 12
BITMAP
E0
38
ENDCHAR
STARTCHAR F018
ENCODING 61464
SWIDTH 0 0
DWIDTH 0 0
BBX 5 2 -9 12
BITMAP
E0
38
ENDCHAR
STARTCHAR F019
ENCODING 61465
SWIDTH 0 0
DWIDTH 0 0
BBX 5 2 -6 8
BITMAP
E0
38
ENDCHAR
STARTCHAR F01A
ENCODING 61466
SWIDTH 0 0
DWIDTH 0 0
BBX 5 2 -7 8
BITMAP
E0
38
ENDCHAR
STARTCHAR F01B
ENCODING 61467
SWIDTH 0 0
DWIDTH 0 0
BBX 5 2 -8 8
BITMAP
60
B8
ENDCHAR
STARTCHAR F01C
ENCODING 61468
SWIDTH 0 0
DWIDTH 0 0
BBX 5 2 -5 12
BITMAP
E0
38
ENDCHAR
STARTCHAR F01D
ENCODING 61469
SWIDTH 0 0
DWIDTH 0 0
BBX 5 2 -5 8
BITMAP
E0
38
ENDCHAR
STARTCHAR F01E
ENCODING 61470
SWIDTH 0 0
DWIDTH 0 0
BBX 2 2 -6 -3
BITMAP
C0
C0
ENDCHAR
STARTCHAR F01F
ENCODING 61471
SWIDTH 0 0
DWIDTH 0 0
BBX 2 2 -7 -3
BITMAP
C0
C0
ENDCHAR
STARTCHAR F020
ENCODING 61472
SWIDTH 0 0
DWIDTH 0 0
BBX 2 2 -7 -3
BITMAP
C0
C0
ENDCHAR
STARTCHAR F021
ENCODING 61473
SWIDTH 0 0
DWIDTH 0 0
BBX 2 2 -7 -3
BITMAP
C0
C0
ENDCHAR
STARTCHAR F022
ENCODING 61474
SWIDTH 0 0
DWIDTH 0 0
BBX 2 2 -8 -3
BITMAP
C0
C0
ENDCHAR
STARTCHAR F023
ENCODING 61475
SWIDTH 0 0
DWIDTH 0 0
BBX 2 2 -5 -3
BITMAP
C0
C0
ENDCHAR
STARTCHAR F024
ENCODING 61476
SWIDTH 0 0
DWIDTH 0 0
BBX 2 2 -5 -3
BITMAP
C0
C0
ENDCHAR
STARTCHAR F025
ENCODING 61477
SWIDTH 0 0
DWIDTH 0 0
BBX 2 2 -5 -3
BITMAP
C0
C0
ENDCHAR
STARTCHAR F026
ENCODING 61478
SWIDTH 0 0
DWIDTH 0 0
BBX 2 2 -6 -3
BITMAP
C0
C0
ENDCHAR
STARTCHAR F027
ENCODING 61479
SWIDTH 0 0
DWIDTH 0 0
BBX 2 2 -5 -3
BITMAP
C0
C0
ENDCHAR
STARTCHAR F028
ENCODING 61480
SWIDTH 0 0
DWIDTH 0 0
BBX 2 2 -6 -3
BITMAP
C0
C0
ENDCHAR
STARTCHAR F029
ENCODING 61481
SWIDTH 0 0
DWIDTH 0 0
BBX 2 2 -4 -3
BITMAP
C0
C0
ENDCHAR
STARTCHAR F02A
ENCODING 61482
SWIDTH 0 0
DWIDTH 0 0
BBX 2 2 -3 -3
BITMAP
C0
C0
ENDCHAR
STARTCHAR F02B
ENCODING 61483
SWIDTH 0 0
DWIDTH 0 0
BBX 2 2 -7 -3
BITMAP
C0
C0
ENDCHAR
STARTCHAR F02C
ENCODING 61484
SWIDTH 0 0
DWIDTH 0 0
BBX 2 2 -3 -3
BITMAP
C0
C0
ENDCHAR
STARTCHAR F02D
ENCODING 61485
SWIDTH 0 0
DWIDTH 0 0
BBX 5 2 -7 13
BITMAP
E8
30
ENDCHAR
STARTCHAR F02E
ENCODING 61486
SWIDTH 0 0
DWIDTH 0 0
BBX 5 2 -7 12
BITMAP
E0
38
ENDCHAR
STARTCHAR F02F
ENCODING 61487
SWIDTH 0 0
DWIDTH 0 0
BBX 5 2 -8 13
BITMAP
E8
30
ENDCHAR
STARTCHAR F030
ENCODING 61488
SWIDTH 0 0
DWIDTH 0 0
BBX 5 2 -9 12
BITMAP
E0
38
ENDCHAR
STARTCHAR F031
ENCODING 61489
SWIDTH 300 0
DWIDTH 5 0
BBX 3 8 1 0
BITMAP
40
C0
40
40
40
40
40
E0
ENDCHAR
STARTCHAR FB01
ENCODING 64257
SWIDTH 540 0
DWIDTH 9 0
BBX 8 12 0 0
BITMAP
0C
36
20
20
FE
22
22
22
22
22
22
F7
ENDCHAR
STARTCHAR FB02
ENCODING 64258
SWIDTH 540 0
DWIDTH 9 0
BBX 9 12 0 0
BITMAP
0D00
3700
2100
2100
7F00
2100
2100
2100
2100
2100
2100
F780
ENDCHAR
STARTCHAR FB20
ENCODING 64288
SWIDTH 480 0
DWIDTH 8 0
BBX 7 9 0 1
BITMAP
EE
66
42
44
34
14
14
FC
F8
ENDCHAR
STARTCHAR FB2A
ENCODING 64298
SWIDTH 600 0
DWIDTH 10 0
BBX 8 11 1 1
BITMAP
01
00
DB
DB
91
92
92
A2
A4
7C
7C
ENDCHAR
STARTCHAR FB2B
ENCODING 64299
SWIDTH 600 0
DWIDTH 10 0
BBX 8 11 1 1
BITMAP
80
00
DB
DB
91
92
92
A2
A4
7C
7C
ENDCHAR
STARTCHAR FB2C
ENCODING 64300
SWIDTH 600 0
DWIDTH 10 0
BBX 8 11 1 1
BITMAP
01
00
DB
DB
89
91
96
A2
A4
7C
7C
ENDCHAR
STARTCHAR FB2D
ENCODING 64301
SWIDTH 600 0
DWIDTH 10 0
BBX 8 11 1 1
BITMAP
80
00
DB
DB
89
91
96
A2
A4
7C
7C
ENDCHAR
STARTCHAR FB2E
ENCODING 64302
SWIDTH 480 0
DWIDTH 8 0
BBX 7 11 1 -1
BITMAP
8C
CE
64
38
F8
98
8C
C6
C2
00
38
ENDCHAR
STARTCHAR FB2F
ENCODING 64303
SWIDTH 480 0
DWIDTH 8 0
BBX 7 13 1 -3
BITMAP
8C
CE
64
38
F8
98
8C
C6
C2
00
38
10
10
ENDCHAR
STARTCHAR FB30
ENCODING 64304
SWIDTH 480 0
DWIDTH 8 0
BBX 7 9 1 0
BITMAP
8C
CE
64
78
B8
98
8C
D6
C2
ENDCHAR
STARTCHAR FB31
ENCODING 64305
SWIDTH 480 0
DWIDTH 8 0
BBX 6 9 1 1
BITMAP
F8
FC
04
04
24
04
08
FC
FC
ENDCHAR
STARTCHAR FB32
ENCODING 64306
SWIDTH 360 0
DWIDTH 6 0
BBX 5 9 0 0
BITMAP
60
70
10
10
10
50
28
68
E0
ENDCHAR
STARTCHAR FB33
ENCODING 64307
SWIDTH 420 0
DWIDTH 7 0
BBX 6 9 0 0
BITMAP
FC
FC
08
08
28
08
08
08
08
ENDCHAR
STARTCHAR FB34
ENCODING 64308
SWIDTH 480 0
DWIDTH 8 0
BBX 6 9 1 0
BITMAP
FC
FC
04
04
24
84
84
84
84
ENDCHAR
STARTCHAR FB35
ENCODING 64309
SWIDTH 300 0
DWIDTH 5 0
BBX 3 9 1 0
BITMAP
C0
E0
20
20
A0
20
20
20
20
ENDCHAR
STARTCHAR FB36
ENCODING 64310
SWIDTH 300 0
DWIDTH 5 0
BBX 5 10 0 -1
BITMAP
40
70
78
20
20
A0
20
20
20
20
ENDCHAR
STARTCHAR FB38
ENCODING 64312
SWIDTH 480 0
DWIDTH 8 0
BBX 6 9 1 1
BITMAP
C8
DC
A4
84
94
84
84
78
78
ENDCHAR
STARTCHAR FB39
ENCODING 64313
SWIDTH 240 0
DWIDTH 4 0
BBX 4 4 0 4
BITMAP
E0
70
10
50
ENDCHAR
STARTCHAR FB3A
ENCODING 64314
SWIDTH 480 0
DWIDTH 8 0
BBX 6 12 1 -2
BITMAP
FC
FC
04
04
24
04
04
04
04
04
04
04
ENDCHAR
STARTCHAR FB3B
ENCODING 64315
SWIDTH 420 0
DWIDTH 7 0
BBX 6 9 1 1
BITMAP
F0
F8
08
04
24
04
04
F8
F0
ENDCHAR
STARTCHAR FB3C
ENCODING 64316
SWIDTH 420 0
DWIDTH 7 0
BBX 7 13 0 -1
BITMAP
80
C0
40
80
7C
7E
02
02
12
04
08
10
10
ENDCHAR
STARTCHAR FB3E
ENCODING 64318
SWIDTH 480 0
DWIDTH 8 0
BBX 8 9 0 1
BITMAP
40
6E
3E
21
41
49
81
9E
9E
ENDCHAR
STARTCHAR FB40
ENCODING 64320
SWIDTH 300 0
DWIDTH 5 0
BBX 4 9 0 1
BITMAP
60
70
10
10
70
10
10
70
F0
ENDCHAR
STARTCHAR FB41
ENCODING 64321
SWIDTH 480 0
DWIDTH 8 0
BBX 7 9 1 1
BITMAP
F8
FC
86
82
92
82
84
FC
78
ENDCHAR
STARTCHAR FB43
ENCODING 64323
SWIDTH 480 0
DWIDTH 8 0
BBX 6 12 0 -2
BITMAP
F8
FC
84
84
D4
84
04
04
04
04
04
04
ENDCHAR
STARTCHAR FB44
ENCODING 64324
SWIDTH 420 0
DWIDTH 7 0
BBX 6 9 1 1
BITMAP
F8
F8
84
C4
D4
04
04
F8
F8
ENDCHAR
STARTCHAR FB46
ENCODING 64326
SWIDTH 480 0
DWIDTH 8 0
BBX 7 9 0 1
BITMAP
EE
66
24
28
78
18
04
7E
7E
ENDCHAR
STARTCHAR FB47
ENCODING 64327
SWIDTH 480 0
DWIDTH 8 0
BBX 6 12 1 -2
BITMAP
F8
FC
04
04
A4
88
90
A0
A0
80
80
80
ENDCHAR
STARTCHAR FB48
ENCODING 64328
SWIDTH 480 0
DWIDTH 8 0
BBX 6 9 1 0
BITMAP
F8
FC
04
04
24
04
04
04
04
ENDCHAR
STARTCHAR FB49
ENCODING 64329
SWIDTH 600 0
DWIDTH 10 0
BBX 8 9 1 1
BITMAP
DB
DB
89
91
96
A2
A4
7C
7C
ENDCHAR
STARTCHAR FB4A
ENCODING 64330
SWIDTH 480 0
DWIDTH 8 0
BBX 7 9 0 0
BITMAP
7C
7E
22
42
4A
42
42
C2
C2
ENDCHAR
STARTCHAR FB4B
ENCODING 64331
SWIDTH 300 0
DWIDTH 5 0
BBX 3 11 1 0
BITMAP
40
00
C0
E0
20
20
20
20
20
20
20
ENDCHAR
STARTCHAR FB4C
ENCODING 64332
SWIDTH 480 0
DWIDTH 8 0
BBX 7 11 0 0
BITMAP
38
00
F8
FC
04
04
04
04
04
FE
FC
ENDCHAR
STARTCHAR FB4D
ENCODING 64333
SWIDTH 420 0
DWIDTH 7 0
BBX 6 11 1 0
BITMAP
70
00
F0
F8
08
04
04
04
04
F8
F0
ENDCHAR
STARTCHAR FB4E
ENCODING 64334
SWIDTH 420 0
DWIDTH 7 0
BBX 6 11 1 0
BITMAP
38
00
F8
F8
84
C4
C4
04
04
F8
F8
ENDCHAR
STARTCHAR FB4F
ENCODING 64335
SWIDTH 480 0
DWIDTH 8 0
BBX 8 13 0 0
BITMAP
80
C0
40
40
66
77
12
1C
2C
44
62
33
31
ENDCHAR
STARTCHAR FB56
ENCODING 64342
SWIDTH 720 0
DWIDTH 12 0
BBX 12 10 1 -2
BITMAP
0020
8030
8010
C010
7FF0
0000
0000
0300
0C00
0300
ENDCHAR
STARTCHAR FB57
ENCODING 64343
SWIDTH 720 0
DWIDTH 12 0
BBX 12 10 1 -2
BITMAP
0020
8030
8010
C010
7FF0
0000
0000
0300
0C00
0300
ENDCHAR
STARTCHAR FB58
ENCODING 64344
SWIDTH 240 0
DWIDTH 4 0
BBX 5 11 0 -3
BITMAP
10
18
08
08
F8
00
00
B0
C0
20
20
ENDCHAR
STARTCHAR FB59
ENCODING 64345
SWIDTH 240 0
DWIDTH 4 0
BBX 5 11 0 -3
BITMAP
10
18
08
08
F8
00
00
B0
C0
20
20
ENDCHAR
STARTCHAR FB7A
ENCODING 64378
SWIDTH 540 0
DWIDTH 9 0
BBX 8 10 0 -3
BITMAP
7F
7E
30
40
86
88
86
C0
60
3F
ENDCHAR
STARTCHAR FB7B
ENCODING 64379
SWIDTH 540 0
DWIDTH 9 0
BBX 10 10 0 -3
BITMAP
7F00
7F00
1200
63C0
8800
BC00
9800
C800
7000
3F00
ENDCHAR
STARTCHAR FB7C
ENCODING 64380
SWIDTH 540 0
DWIDTH 9 0
BBX 9 9 0 -2
BITMAP
3800
0E00
0300
FF80
0000
0000
0C00
3000
0C00
ENDCHAR
STARTCHAR FB7D
ENCODING 64381
SWIDTH 540 0
DWIDTH 9 0
BBX 9 9 0 -2
BITMAP
3800
0E00
0300
FF80
0000
0000
0C00
3000
0C00
ENDCHAR
STARTCHAR FB8A
ENCODING 64394
SWIDTH 480 0
DWIDTH 8 0
BBX 7 14 2 -2
BITMAP
10
18
04
14
00
04
04
02
02
02
02
04
18
F0
ENDCHAR
STARTCHAR FB8B
ENCODING 64395
SWIDTH 480 0
DWIDTH 8 0
BBX 7 14 2 -2
BITMAP
10
18
04
14
00
04
04
02
02
02
02
04
18
F0
ENDCHAR
STARTCHAR FB8E
ENCODING 64398
SWIDTH 840 0
DWIDTH 14 0
BBX 13 9 1 3
BITMAP
0038
00E0
0100
0180
01C0
8060
8010
8008
FFF8
ENDCHAR
STARTCHAR FB8F
ENCODING 64399
SWIDTH 960 0
DWIDTH 16 0
BBX 15 9 1 3
BITMAP
0038
00E0
0100
0180
01C0
8020
8030
8028
FFC6
ENDCHAR
STARTCHAR FB90
ENCODING 64400
SWIDTH 420 0
DWIDTH 7 0
BBX 7 9 0 3
BITMAP
0C
38
40
60
70
18
04
02
FE
ENDCHAR
STARTCHAR FB91
ENCODING 64401
SWIDTH 540 0
DWIDTH 9 0
BBX 9 9 0 3
BITMAP
0C00
3800
4000
6000
7000
1800
0C00
1A00
F180
ENDCHAR
STARTCHAR FB92
ENCODING 64402
SWIDTH 840 0
DWIDTH 14 0
BBX 13 11 1 3
BITMAP
0030
00C0
0130
00E0
0100
0180
01C0
8060
8010
8008
FFF8
ENDCHAR
STARTCHAR FB93
ENCODING 64403
SWIDTH 960 0
DWIDTH 16 0
BBX 15 11 1 3
BITMAP
0030
00C0
0130
00E0
0100
0180
01C0
8020
8030
8028
FFC6
ENDCHAR
STARTCHAR FB94
ENCODING 64404
SWIDTH 420 0
DWIDTH 7 0
BBX 7 11 0 3
BITMAP
0C
30
4C
38
40
60
70
18
04
02
FE
ENDCHAR
STARTCHAR FB95
ENCODING 64405
SWIDTH 540 0
DWIDTH 9 0
BBX 9 11 0 3
BITMAP
0C00
3000
4C00
3800
4000
6000
7000
1800
0C00
1A00
F180
ENDCHAR
STARTCHAR FBFC
ENCODING 64508
SWIDTH 660 0
DWIDTH 11 0
BBX 10 9 0 -1
BITMAP
00C0
0100
4200
8400
83C0
8040
8080
EF80
7E00
ENDCHAR
STARTCHAR FBFD
ENCODING 64509
SWIDTH 600 0
DWIDTH 10 0
BBX 10 6 1 -1
BITMAP
03C0
8400
8780
8080
E300
7E00
ENDCHAR
STARTCHAR FBFE
ENCODING 64510
SWIDTH 240 0
DWIDTH 4 0
BBX 5 9 0 -1
BITMAP
10
18
08
08
F8
00
10
50
40
ENDCHAR
STARTCHAR FBFF
ENCODING 64511
SWIDTH 240 0
DWIDTH 4 0
BBX 5 9 0 -1
BITMAP
10
18
08
08
F8
00
10
50
40
ENDCHAR
STARTCHAR FC5E
ENCODING 64606
SWIDTH 240 0
DWIDTH 4 0
BBX 3 5 0 11
BITMAP
A0
A0
40
A0
C0
ENDCHAR
STARTCHAR FC5F
ENCODING 64607
SWIDTH 240 0
DWIDTH 4 0
BBX 3 5 1 10
BITMAP
20
40
80
80
C0
ENDCHAR
STARTCHAR FC60
ENCODING 64608
SWIDTH 240 0
DWIDTH 4 0
BBX 3 4 1 11
BITMAP
C0
20
40
80
ENDCHAR
STARTCHAR FC61
ENCODING 64609
SWIDTH 240 0
DWIDTH 4 0
BBX 3 5 1 10
BITMAP
60
60
20
60
80
ENDCHAR
STARTCHAR FC62
ENCODING 64610
SWIDTH 240 0
DWIDTH 4 0
BBX 3 3 1 11
BITMAP
20
C0
40
ENDCHAR
STARTCHAR FD3E
ENCODING 64830
SWIDTH 300 0
DWIDTH 5 0
BBX 4 16 1 -3
BITMAP
10
20
60
40
40
C0
C0
C0
C0
C0
C0
C0
40
60
20
20
ENDCHAR
STARTCHAR FD3F
ENCODING 64831
SWIDTH 300 0
DWIDTH 5 0
BBX 4 16 0 -3
BITMAP
80
40
60
60
20
30
30
30
30
30
30
30
20
60
40
40
ENDCHAR
STARTCHAR FDF2
ENCODING 65010
SWIDTH 600 0
DWIDTH 10 0
BBX 10 10 0 3
BITMAP
0400
0000
0100
0600
0200
1280
1240
3240
4B40
FFC0
ENDCHAR
STARTCHAR FE80
ENCODING 65152
SWIDTH 420 0
DWIDTH 7 0
BBX 5 5 1 1
BITMAP
70
90
C8
F8
40
ENDCHAR
STARTCHAR FE81
ENCODING 65153
SWIDTH 180 0
DWIDTH 3 0
BBX 3 11 0 2
BITMAP
E0
00
00
40
40
20
20
20
20
20
20
ENDCHAR
STARTCHAR FE82
ENCODING 65154
SWIDTH 240 0
DWIDTH 4 0
BBX 4 11 0 2
BITMAP
E0
00
40
40
40
40
40
40
40
40
30
ENDCHAR
STARTCHAR FE83
ENCODING 65155
SWIDTH 180 0
DWIDTH 3 0
BBX 2 12 1 2
BITMAP
40
80
80
00
80
80
40
40
40
40
40
40
ENDCHAR
STARTCHAR FE84
ENCODING 65156
SWIDTH 240 0
DWIDTH 4 0
BBX 4 12 1 2
BITMAP
40
80
80
80
C0
40
40
40
40
40
40
30
ENDCHAR
STARTCHAR FE85
ENCODING 65157
SWIDTH 420 0
DWIDTH 7 0
BBX 6 10 2 -1
BITMAP
30
30
00
0C
14
1C
04
04
18
F0
ENDCHAR
STARTCHAR FE86
ENCODING 65158
SWIDTH 420 0
DWIDTH 7 0
BBX 6 10 2 -1
BITMAP
30
30
00
0C
14
1C
04
04
18
F0
ENDCHAR
STARTCHAR FE87
ENCODING 65159
SWIDTH 180 0
DWIDTH 3 0
BBX 3 12 0 0
BITMAP
40
40
20
20
20
20
20
20
00
00
40
C0
ENDCHAR
STARTCHAR FE88
ENCODING 65160
SWIDTH 240 0
DWIDTH 4 0
BBX 4 14 1 -1
BITMAP
80
C0
40
40
40
40
40
40
30
00
00
40
A0
40
ENDCHAR
STARTCHAR FE89
ENCODING 65161
SWIDTH 660 0
DWIDTH 11 0
BBX 10 10 0 -1
BITMAP
6000
60C0
0140
0200
8400
83C0
8040
8080
EF80
7E00
ENDCHAR
STARTCHAR FE8A
ENCODING 65162
SWIDTH 600 0
DWIDTH 10 0
BBX 10 10 1 -2
BITMAP
4000
6000
0000
0000
03C0
8400
8780
8080
E300
7E00
ENDCHAR
STARTCHAR FE8B
ENCODING 65163
SWIDTH 240 0
DWIDTH 4 0
BBX 5 8 0 2
BITMAP
20
20
00
10
18
08
08
F8
ENDCHAR
STARTCHAR FE8C
ENCODING 65164
SWIDTH 240 0
DWIDTH 4 0
BBX 5 8 0 2
BITMAP
20
20
00
10
18
08
08
F8
ENDCHAR
STARTCHAR FE8D
ENCODING 65165
SWIDTH 180 0
DWIDTH 3 0
BBX 2 8 1 4
BITMAP
80
80
40
40
40
40
40
40
ENDCHAR
STARTCHAR FE8E
ENCODING 65166
SWIDTH 240 0
DWIDTH 4 0
BBX 3 9 1 3
BITMAP
80
80
80
80
80
80
80
80
60
ENDCHAR
STARTCHAR FE8F
ENCODING 65167
SWIDTH 720 0
DWIDTH 12 0
BBX 12 8 1 0
BITMAP
0020
8030
8010
C010
7FF0
0000
0000
0600
ENDCHAR
STARTCHAR FE90
ENCODING 65168
SWIDTH 720 0
DWIDTH 12 0
BBX 12 8 1 0
BITMAP
0020
8030
8010
C010
7FF0
0000
0000
0600
ENDCHAR
STARTCHAR FE91
ENCODING 65169
SWIDTH 240 0
DWIDTH 4 0
BBX 5 8 0 -1
BITMAP
10
18
08
08
F8
00
00
30
ENDCHAR
STARTCHAR FE92
ENCODING 65170
SWIDTH 240 0
DWIDTH 4 0
BBX 5 8 0 -1
BITMAP
10
18
08
08
F8
00
00
30
ENDCHAR
STARTCHAR FE93
ENCODING 65171
SWIDTH 300 0
DWIDTH 5 0
BBX 5 8 0 3
BITMAP
30
C0
00
20
30
58
48
70
ENDCHAR
STARTCHAR FE94
ENCODING 65172
SWIDTH 360 0
DWIDTH 6 0
BBX 7 9 0 3
BITMAP
58
60
00
00
08
38
48
F8
06
ENDCHAR
STARTCHAR FE95
ENCODING 65173
SWIDTH 720 0
DWIDTH 12 0
BBX 12 8 1 2
BITMAP
0200
0B00
0C00
0020
8030
8010
C010
7FF0
ENDCHAR
STARTCHAR FE96
ENCODING 65174
SWIDTH 720 0
DWIDTH 12 0
BBX 12 8 1 2
BITMAP
0200
0B00
0C00
0020
8030
8010
C010
7FF0
ENDCHAR
STARTCHAR FE97
ENCODING 65175
SWIDTH 240 0
DWIDTH 4 0
BBX 5 8 0 3
BITMAP
30
C0
00
10
18
08
08
F8
ENDCHAR
STARTCHAR FE98
ENCODING 65176
SWIDTH 240 0
DWIDTH 4 0
BBX 5 8 0 3
BITMAP
30
C0
00
10
18
08
08
F8
ENDCHAR
STARTCHAR FE99
ENCODING 65177
SWIDTH 720 0
DWIDTH 12 0
BBX 12 9 1 3
BITMAP
0C00
0600
0B00
0C00
0020
8030
8010
C010
7FF0
ENDCHAR
STARTCHAR FE9A
ENCODING 65178
SWIDTH 720 0
DWIDTH 12 0
BBX 12 9 1 3
BITMAP
0C00
0600
0B00
0C00
0020
8030
8010
C010
7FF0
ENDCHAR
STARTCHAR FE9B
ENCODING 65179
SWIDTH 240 0
DWIDTH 4 0
BBX 5 10 0 2
BITMAP
40
40
30
C0
00
10
18
08
08
F8
ENDCHAR
STARTCHAR FE9C
ENCODING 65180
SWIDTH 240 0
DWIDTH 4 0
BBX 5 10 0 2
BITMAP
40
40
30
C0
00
10
18
08
08
F8
ENDCHAR
STARTCHAR FE9D
ENCODING 65181
SWIDTH 540 0
DWIDTH 9 0
BBX 8 10 0 -3
BITMAP
7F
7E
30
40
80
84
80
C0
60
3F
ENDCHAR
STARTCHAR FE9E
ENCODING 65182
SWIDTH 540 0
DWIDTH 9 0
BBX 10 10 0 -3
BITMAP
7F00
7F00
1200
63C0
8000
8C00
8000
C000
7000
3F00
ENDCHAR
STARTCHAR FE9F
ENCODING 65183
SWIDTH 540 0
DWIDTH 9 0
BBX 9 7 0 0
BITMAP
3800
0E00
0300
FF80
0000
0000
1800
ENDCHAR
STARTCHAR FEA0
ENCODING 65184
SWIDTH 540 0
DWIDTH 9 0
BBX 9 7 0 0
BITMAP
3800
0E00
0300
FF80
0000
0000
1800
ENDCHAR
STARTCHAR FEA1
ENCODING 65185
SWIDTH 540 0
DWIDTH 9 0
BBX 8 10 0 -3
BITMAP
7F
7E
30
40
80
80
80
C0
60
3F
ENDCHAR
STARTCHAR FEA2
ENCODING 65186
SWIDTH 540 0
DWIDTH 9 0
BBX 10 10 0 -3
BITMAP
7F00
7F00
1200
63C0
8000
8000
8000
C000
7000
3F00
ENDCHAR
STARTCHAR FEA3
ENCODING 65187
SWIDTH 540 0
DWIDTH 9 0
BBX 9 4 0 3
BITMAP
3800
0E00
0300
FF80
ENDCHAR
STARTCHAR FEA4
ENCODING 65188
SWIDTH 540 0
DWIDTH 9 0
BBX 9 4 0 3
BITMAP
3800
0E00
0300
FF80
ENDCHAR
STARTCHAR FEA5
ENCODING 65189
SWIDTH 540 0
DWIDTH 9 0
BBX 8 13 0 -3
BITMAP
08
00
00
7F
7E
30
40
80
80
80
C0
60
3F
ENDCHAR
STARTCHAR FEA6
ENCODING 65190
SWIDTH 540 0
DWIDTH 9 0
BBX 10 13 0 -3
BITMAP
0C00
0000
0000
7F00
7F00
1200
63C0
8000
8000
8000
C000
7000
3F00
ENDCHAR
STARTCHAR FEA7
ENCODING 65191
SWIDTH 540 0
DWIDTH 9 0
BBX 9 7 0 3
BITMAP
1800
0000
0000
3800
0E00
0300
FF80
ENDCHAR
STARTCHAR FEA8
ENCODING 65192
SWIDTH 540 0
DWIDTH 9 0
BBX 9 7 0 3
BITMAP
1800
0000
0000
3800
0E00
0300
FF80
ENDCHAR
STARTCHAR FEA9
ENCODING 65193
SWIDTH 360 0
DWIDTH 6 0
BBX 5 6 1 3
BITMAP
30
10
08
08
08
F8
ENDCHAR
STARTCHAR FEAA
ENCODING 65194
SWIDTH 360 0
DWIDTH 6 0
BBX 5 6 1 3
BITMAP
30
10
08
08
08
F8
ENDCHAR
STARTCHAR FEAB
ENCODING 65195
SWIDTH 360 0
DWIDTH 6 0
BBX 5 10 1 2
BITMAP
40
40
00
00
30
10
08
08
08
F8
ENDCHAR
STARTCHAR FEAC
ENCODING 65196
SWIDTH 360 0
DWIDTH 6 0
BBX 5 10 1 2
BITMAP
40
40
00
00
30
10
08
08
08
F8
ENDCHAR
STARTCHAR FEAD
ENCODING 65197
SWIDTH 480 0
DWIDTH 8 0
BBX 7 9 2 -2
BITMAP
04
04
02
02
02
02
04
18
F0
ENDCHAR
STARTCHAR FEAE
ENCODING 65198
SWIDTH 480 0
DWIDTH 8 0
BBX 7 9 2 -2
BITMAP
04
04
02
02
02
02
04
18
F0
ENDCHAR
STARTCHAR FEAF
ENCODING 65199
SWIDTH 480 0
DWIDTH 8 0
BBX 7 12 2 -1
BITMAP
08
08
00
04
04
02
02
02
02
04
18
F0
ENDCHAR
STARTCHAR FEB0
ENCODING 65200
SWIDTH 480 0
DWIDTH 8 0
BBX 7 12 2 -1
BITMAP
08
08
00
04
04
02
02
02
02
04
18
F0
ENDCHAR
STARTCHAR FEB1
ENCODING 65201
SWIDTH 840 0
DWIDTH 14 0
BBX 14 8 1 -1
BITMAP
0100
4184
8094
80FC
8080
8100
C300
7E00
ENDCHAR
STARTCHAR FEB2
ENCODING 65202
SWIDTH 840 0
DWIDTH 14 0
BBX 14 8 1 -1
BITMAP
0100
4184
8094
80FC
8080
8100
C300
7E00
ENDCHAR
STARTCHAR FEB3
ENCODING 65203
SWIDTH 540 0
DWIDTH 9 0
BBX 10 3 0 3
BITMAP
1040
1140
FFC0
ENDCHAR
STARTCHAR FEB4
ENCODING 65204
SWIDTH 540 0
DWIDTH 9 0
BBX 10 3 0 3
BITMAP
1040
1140
FFC0
ENDCHAR
STARTCHAR FEB5
ENCODING 65205
SWIDTH 840 0
DWIDTH 14 0
BBX 14 13 1 -1
BITMAP
0020
0030
0058
0020
0000
0100
4184
8094
80FC
8080
8100
C300
7E00
ENDCHAR
STARTCHAR FEB6
ENCODING 65206
SWIDTH 840 0
DWIDTH 14 0
BBX 14 13 1 -1
BITMAP
0020
0030
0058
0020
0000
0100
4184
8094
80FC
8080
8100
C300
7E00
ENDCHAR
STARTCHAR FEB7
ENCODING 65207
SWIDTH 540 0
DWIDTH 9 0
BBX 10 9 0 3
BITMAP
0600
0300
0500
0400
0000
0000
1040
1140
FFC0
ENDCHAR
STARTCHAR FEB8
ENCODING 65208
SWIDTH 540 0
DWIDTH 9 0
BBX 10 9 0 3
BITMAP
0600
0300
0500
0400
0000
0000
1040
1140
FFC0
ENDCHAR
STARTCHAR FEB9
ENCODING 65209
SWIDTH 1080 0
DWIDTH 18 0
BBX 18 8 1 -1
BITMAP
010380
410FC0
809040
80FFC0
810000
810000
C30000
7E0000
ENDCHAR
STARTCHAR FEBA
ENCODING 65210
SWIDTH 1080 0
DWIDTH 18 0
BBX 18 8 1 -1
BITMAP
010380
410FC0
809040
80FFC0
810000
810000
C30000
7E0000
ENDCHAR
STARTCHAR FEBB
ENCODING 65211
SWIDTH 840 0
DWIDTH 14 0
BBX 14 4 0 2
BITMAP
0038
006C
1184
FFFC
ENDCHAR
STARTCHAR FEBC
ENCODING 65212
SWIDTH 840 0
DWIDTH 14 0
BBX 14 4 0 2
BITMAP
0038
006C
1184
FFFC
ENDCHAR
STARTCHAR FEBD
ENCODING 65213
SWIDTH 1080 0
DWIDTH 18 0
BBX 18 11 1 -1
BITMAP
001800
000000
000000
010380
410FC0
809040
80FFC0
810000
810000
C30000
7E0000
ENDCHAR
STARTCHAR FEBE
ENCODING 65214
SWIDTH 1080 0
DWIDTH 18 0
BBX 18 11 1 -1
BITMAP
001800
000000
000000
010380
410FC0
809040
80FFC0
810000
810000
C30000
7E0000
ENDCHAR
STARTCHAR FEBF
ENCODING 65215
SWIDTH 840 0
DWIDTH 14 0
BBX 14 7 0 3
BITMAP
0080
0080
0000
0038
006C
1184
FFFC
ENDCHAR
STARTCHAR FEC0
ENCODING 65216
SWIDTH 840 0
DWIDTH 14 0
BBX 14 7 0 3
BITMAP
0080
0080
0000
0038
006C
1184
FFFC
ENDCHAR
STARTCHAR FEC1
ENCODING 65217
SWIDTH 600 0
DWIDTH 10 0
BBX 10 10 0 3
BITMAP
1800
1800
1000
1000
0800
0800
0B80
16C0
1840
FFC0
ENDCHAR
STARTCHAR FEC2
ENCODING 65218
SWIDTH 600 0
DWIDTH 10 0
BBX 10 10 0 3
BITMAP
1800
1800
1000
1000
0800
0800
0B80
16C0
1840
FFC0
ENDCHAR
STARTCHAR FEC3
ENCODING 65219
SWIDTH 600 0
DWIDTH 10 0
BBX 10 10 0 3
BITMAP
1800
1800
1000
1000
0800
0800
0B80
16C0
1840
FFC0
ENDCHAR
STARTCHAR FEC4
ENCODING 65220
SWIDTH 600 0
DWIDTH 10 0
BBX 10 10 0 3
BITMAP
1800
1800
1000
1000
0800
0800
0B80
16C0
1840
FFC0
ENDCHAR
STARTCHAR FEC5
ENCODING 65221
SWIDTH 600 0
DWIDTH 10 0
BBX 10 10 0 3
BITMAP
1800
1800
1100
1100
0800
0800
0B80
16C0
1840
FFC0
ENDCHAR
STARTCHAR FEC6
ENCODING 65222
SWIDTH 600 0
DWIDTH 10 0
BBX 10 10 0 3
BITMAP
1800
1800
1100
1100
0800
0800
0B80
16C0
1840
FFC0
ENDCHAR
STARTCHAR FEC7
ENCODING 65223
SWIDTH 600 0
DWIDTH 10 0
BBX 10 10 0 3
BITMAP
1800
1800
1100
1100
0800
0800
0B80
16C0
1840
FFC0
ENDCHAR
STARTCHAR FEC8
ENCODING 65224
SWIDTH 600 0
DWIDTH 10 0
BBX 10 10 0 3
BITMAP
1800
1800
1100
1100
0800
0800
0B80
16C0
1840
FFC0
ENDCHAR
STARTCHAR FEC9
ENCODING 65225
SWIDTH 540 0
DWIDTH 9 0
BBX 8 12 0 -3
BITMAP
78
40
80
EE
78
60
40
80
80
80
60
3F
ENDCHAR
STARTCHAR FECA
ENCODING 65226
SWIDTH 480 0
DWIDTH 8 0
BBX 8 10 0 -3
BITMAP
38
18
38
6F
40
80
80
C0
60
3E
ENDCHAR
STARTCHAR FECB
ENCODING 65227
SWIDTH 540 0
DWIDTH 9 0
BBX 8 5 0 2
BITMAP
3C
40
40
63
FE
ENDCHAR
STARTCHAR FECC
ENCODING 65228
SWIDTH 420 0
DWIDTH 7 0
BBX 7 4 0 2
BITMAP
3C
3C
18
FE
ENDCHAR
STARTCHAR FECD
ENCODING 65229
SWIDTH 540 0
DWIDTH 9 0
BBX 8 15 0 -3
BITMAP
30
00
00
78
40
80
EE
78
60
40
80
80
80
60
3F
ENDCHAR
STARTCHAR FECE
ENCODING 65230
SWIDTH 480 0
DWIDTH 8 0
BBX 8 14 0 -4
BITMAP
10
10
00
00
38
18
38
6F
40
80
80
C0
60
3E
ENDCHAR
STARTCHAR FECF
ENCODING 65231
SWIDTH 540 0
DWIDTH 9 0
BBX 8 8 0 2
BITMAP
10
10
00
3C
40
40
63
FE
ENDCHAR
STARTCHAR FED0
ENCODING 65232
SWIDTH 420 0
DWIDTH 7 0
BBX 7 7 0 3
BITMAP
30
00
00
3C
3C
18
FE
ENDCHAR
STARTCHAR FED1
ENCODING 65233
SWIDTH 780 0
DWIDTH 13 0
BBX 13 8 1 3
BITMAP
0020
0000
0000
0010
8038
8028
C018
7FF8
ENDCHAR
STARTCHAR FED2
ENCODING 65234
SWIDTH 780 0
DWIDTH 13 0
BBX 13 8 1 3
BITMAP
0020
0000
0000
0010
8038
8028
C018
7FF8
ENDCHAR
STARTCHAR FED3
ENCODING 65235
SWIDTH 240 0
DWIDTH 4 0
BBX 5 9 0 3
BITMAP
30
00
00
30
50
58
78
08
F8
ENDCHAR
STARTCHAR FED4
ENCODING 65236
SWIDTH 240 0
DWIDTH 4 0
BBX 5 9 0 2
BITMAP
10
10
00
00
38
28
28
18
F8
ENDCHAR
STARTCHAR FED5
ENCODING 65237
SWIDTH 600 0
DWIDTH 10 0
BBX 9 12 1 -1
BITMAP
0300
0C00
0000
0000
0300
0580
0780
8380
8080
8080
E380
7E00
ENDCHAR
STARTCHAR FED6
ENCODING 65238
SWIDTH 600 0
DWIDTH 10 0
BBX 9 12 1 -1
BITMAP
0300
0C00
0000
0000
0300
0580
0780
8380
8080
8080
E380
7E00
ENDCHAR
STARTCHAR FED7
ENCODING 65239
SWIDTH 240 0
DWIDTH 4 0
BBX 5 9 0 3
BITMAP
58
60
00
30
50
58
78
08
F8
ENDCHAR
STARTCHAR FED8
ENCODING 65240
SWIDTH 240 0
DWIDTH 4 0
BBX 5 9 0 3
BITMAP
08
60
00
00
38
28
28
18
F8
ENDCHAR
STARTCHAR FED9
ENCODING 65241
SWIDTH 600 0
DWIDTH 10 0
BBX 10 9 1 3
BITMAP
0080
0080
0480
0880
0E80
0280
9C40
8040
FFC0
ENDCHAR
STARTCHAR FEDA
ENCODING 65242
SWIDTH 600 0
DWIDTH 10 0
BBX 10 9 1 3
BITMAP
0080
0080
0480
0880
0E80
0280
9C40
8040
FFC0
ENDCHAR
STARTCHAR FEDB
ENCODING 65243
SWIDTH 420 0
DWIDTH 7 0
BBX 7 9 0 3
BITMAP
0C
38
40
60
70
18
04
02
FE
ENDCHAR
STARTCHAR FEDC
ENCODING 65244
SWIDTH 420 0
DWIDTH 7 0
BBX 7 9 0 3
BITMAP
0C
38
40
60
70
18
04
02
FE
ENDCHAR
STARTCHAR FEDD
ENCODING 65245
SWIDTH 480 0
DWIDTH 8 0
BBX 8 13 1 0
BITMAP
02
03
03
02
02
01
01
81
81
81
81
EF
7C
ENDCHAR
STARTCHAR FEDE
ENCODING 65246
SWIDTH 480 0
DWIDTH 8 0
BBX 8 13 1 0
BITMAP
02
03
03
02
02
01
01
81
81
81
81
EF
7C
ENDCHAR
STARTCHAR FEDF
ENCODING 65247
SWIDTH 180 0
DWIDTH 3 0
BBX 4 10 0 3
BITMAP
20
30
20
20
20
10
10
10
10
F0
ENDCHAR
STARTCHAR FEE0
ENCODING 65248
SWIDTH 180 0
DWIDTH 3 0
BBX 4 10 0 3
BITMAP
20
30
20
20
20
10
10
10
10
F0
ENDCHAR
STARTCHAR FEE1
ENCODING 65249
SWIDTH 360 0
DWIDTH 6 0
BBX 5 9 1 -4
BITMAP
30
58
38
F8
80
80
80
80
40
ENDCHAR
STARTCHAR FEE2
ENCODING 65250
SWIDTH 360 0
DWIDTH 6 0
BBX 5 9 1 -4
BITMAP
30
58
38
F8
80
80
80
80
40
ENDCHAR
STARTCHAR FEE3
ENCODING 65251
SWIDTH 420 0
DWIDTH 7 0
BBX 7 4 0 3
BITMAP
04
0A
1A
FE
ENDCHAR
STARTCHAR FEE4
ENCODING 65252
SWIDTH 420 0
DWIDTH 7 0
BBX 7 4 0 3
BITMAP
04
0A
1A
FE
ENDCHAR
STARTCHAR FEE5
ENCODING 65253
SWIDTH 540 0
DWIDTH 9 0
BBX 9 10 1 -1
BITMAP
0800
0000
0000
0180
8080
8080
8080
8080
C300
7E00
ENDCHAR
STARTCHAR FEE6
ENCODING 65254
SWIDTH 540 0
DWIDTH 9 0
BBX 9 10 1 -1
BITMAP
0800
0000
0000
0180
8080
8080
8080
8080
C300
7E00
ENDCHAR
STARTCHAR FEE7
ENCODING 65255
SWIDTH 240 0
DWIDTH 4 0
BBX 5 8 0 2
BITMAP
20
30
00
10
18
08
08
F8
ENDCHAR
STARTCHAR FEE8
ENCODING 65256
SWIDTH 240 0
DWIDTH 4 0
BBX 5 8 0 2
BITMAP
20
30
00
10
18
08
08
F8
ENDCHAR
STARTCHAR FEE9
ENCODING 65257
SWIDTH 300 0
DWIDTH 5 0
BBX 4 5 1 2
BITMAP
40
60
B0
90
E0
ENDCHAR
STARTCHAR FEEA
ENCODING 65258
SWIDTH 360 0
DWIDTH 6 0
BBX 7 5 0 4
BITMAP
08
38
48
F8
06
ENDCHAR
STARTCHAR FEEB
ENCODING 65259
SWIDTH 480 0
DWIDTH 8 0
BBX 7 7 0 3
BITMAP
10
18
3C
2C
3A
FA
06
ENDCHAR
STARTCHAR FEEC
ENCODING 65260
SWIDTH 420 0
DWIDTH 7 0
BBX 7 8 0 0
BITMAP
0C
14
28
FE
38
24
34
1C
ENDCHAR
STARTCHAR FEED
ENCODING 65261
SWIDTH 420 0
DWIDTH 7 0
BBX 6 7 2 0
BITMAP
1C
14
1C
04
0C
18
F0
ENDCHAR
STARTCHAR FEEE
ENCODING 65262
SWIDTH 420 0
DWIDTH 7 0
BBX 6 7 2 0
BITMAP
1C
14
1C
04
0C
18
F0
ENDCHAR
STARTCHAR FEEF
ENCODING 65263
SWIDTH 660 0
DWIDTH 11 0
BBX 10 9 0 -1
BITMAP
00C0
0100
4200
8400
83C0
8040
8080
EF80
7E00
ENDCHAR
STARTCHAR FEF0
ENCODING 65264
SWIDTH 600 0
DWIDTH 10 0
BBX 10 6 1 -1
BITMAP
03C0
8400
8780
8080
E300
7E00
ENDCHAR
STARTCHAR FEF1
ENCODING 65265
SWIDTH 660 0
DWIDTH 11 0
BBX 10 12 0 -4
BITMAP
00C0
0100
4200
8400
83C0
8040
8080
EF80
7E00
0200
0A00
0800
ENDCHAR
STARTCHAR FEF2
ENCODING 65266
SWIDTH 600 0
DWIDTH 10 0
BBX 10 8 1 -3
BITMAP
03C0
8400
8780
8080
E300
7E00
1400
1400
ENDCHAR
STARTCHAR FEF3
ENCODING 65267
SWIDTH 240 0
DWIDTH 4 0
BBX 5 9 0 -1
BITMAP
10
18
08
08
F8
00
10
50
40
ENDCHAR
STARTCHAR FEF4
ENCODING 65268
SWIDTH 240 0
DWIDTH 4 0
BBX 5 9 0 -1
BITMAP
10
18
08
08
F8
00
10
50
40
ENDCHAR
STARTCHAR FEF5
ENCODING 65269
SWIDTH 540 0
DWIDTH 9 0
BBX 7 13 1 1
BITMAP
E0
00
82
C6
E2
22
12
14
0C
08
14
3C
20
ENDCHAR
STARTCHAR FEF6
ENCODING 65270
SWIDTH 600 0
DWIDTH 10 0
BBX 10 12 1 2
BITMAP
E000
0000
C200
E200
7200
0A00
0A00
0700
0500
0500
19C0
F000
ENDCHAR
STARTCHAR FEF7
ENCODING 65271
SWIDTH 540 0
DWIDTH 9 0
BBX 8 14 0 1
BITMAP
40
80
C0
40
63
61
31
09
0A
06
04
0A
1E
18
ENDCHAR
STARTCHAR FEF8
ENCODING 65272
SWIDTH 600 0
DWIDTH 10 0
BBX 10 13 0 2
BITMAP
4000
8000
C000
4100
7100
3900
0500
0500
0100
0280
0680
0CC0
7800
ENDCHAR
STARTCHAR FEF9
ENCODING 65273
SWIDTH 540 0
DWIDTH 9 0
BBX 7 14 1 -1
BITMAP
82
C6
E2
22
12
14
0C
08
14
3C
20
10
20
20
ENDCHAR
STARTCHAR FEFA
ENCODING 65274
SWIDTH 600 0
DWIDTH 10 0
BBX 9 14 1 -1
BITMAP
8200
E200
7200
0A00
0A00
0200
0600
0D00
1980
F000
0000
4000
8000
C000
ENDCHAR
STARTCHAR FEFB
ENCODING 65275
SWIDTH 540 0
DWIDTH 9 0
BBX 7 11 1 2
BITMAP
82
C6
C2
62
12
14
0C
08
14
3C
38
ENDCHAR
STARTCHAR FEFC
ENCODING 65276
SWIDTH 600 0
DWIDTH 10 0
BBX 10 10 1 3
BITMAP
C200
E200
7200
0A00
0A00
0700
0500
0500
19C0
F000
ENDCHAR
STARTCHAR FFFC
ENCODING 65532
SWIDTH 1020 0
DWIDTH 17 0
BBX 17 12 0 0
BITMAP
E67380
800080
800080
1DE200
A32280
A3E280
A33280
231200
1DEC00
800080
800080
E67380
ENDCHAR
ENDFONT
